<svg xmlns="http://www.w3.org/2000/svg" xmlns:xlink="http://www.w3.org/1999/xlink" viewBox="0 0 46 46"><defs><style>.cls-1{fill:url(#linear-gradient);}.cls-2{fill:url(#linear-gradient-2);}.cls-3{fill:url(#linear-gradient-3);}.cls-4{fill:url(#linear-gradient-4);}.cls-5{fill:#fff;}</style><linearGradient id="linear-gradient" x1="5.15" y1="-4.07" x2="45.57" y2="57.24" gradientUnits="userSpaceOnUse"><stop offset="0" stop-color="#fabc3c"/><stop offset="1" stop-color="#ff006a"/></linearGradient><linearGradient id="linear-gradient-2" x1="16.28" y1="24.33" x2="30.18" y2="35.21" gradientUnits="userSpaceOnUse"><stop offset="0" stop-color="#ffbb18"/><stop offset="0.15" stop-color="#fcad13"/><stop offset="0.46" stop-color="#f8950b"/><stop offset="0.76" stop-color="#f58606"/><stop offset="1" stop-color="#f48104"/></linearGradient><linearGradient id="linear-gradient-3" x1="-2589.27" y1="-1237.99" x2="-2567.27" y2="-1237.99" gradientTransform="translate(970.72 2718.4) rotate(45)" gradientUnits="userSpaceOnUse"><stop offset="0" stop-color="#fff685"/><stop offset="0.02" stop-color="#fff581"/><stop offset="0.24" stop-color="#ffef56"/><stop offset="0.46" stop-color="#feea34"/><stop offset="0.66" stop-color="#fee71b"/><stop offset="0.85" stop-color="#fee50c"/><stop offset="1" stop-color="#fee407"/></linearGradient><linearGradient id="linear-gradient-4" x1="18.49" y1="12.98" x2="26.76" y2="25.65" xlink:href="#linear-gradient-2"/></defs><title>special-plan-icon</title><g id="Layer_2" data-name="Layer 2"><g id="Layer_1-2" data-name="Layer 1"><circle class="cls-1" cx="23" cy="23" r="23"/><path class="cls-2" d="M30.49,36.53V22.36h-15V36.53a.57.57,0,0,0,.83.52l6.4-3.21a.59.59,0,0,1,.52,0l6.4,3.21A.57.57,0,0,0,30.49,36.53Z"/><circle class="cls-3" cx="23" cy="19.89" r="11"/><circle class="cls-4" cx="23" cy="19.89" r="8.56"/><path class="cls-5" d="M23.11,15.47l1.36,2.76a.13.13,0,0,0,.09.07l3.05.44a.12.12,0,0,1,.06.21l-2.2,2.14a.11.11,0,0,0,0,.11l.52,3a.12.12,0,0,1-.18.13l-2.72-1.43a.13.13,0,0,0-.12,0l-2.72,1.43a.12.12,0,0,1-.18-.13l.52-3a.11.11,0,0,0,0-.11L18.33,19a.12.12,0,0,1,.06-.21l3.05-.44a.13.13,0,0,0,.09-.07l1.36-2.76A.12.12,0,0,1,23.11,15.47Z"/></g></g></svg>