<svg xmlns="http://www.w3.org/2000/svg" width="38" height="24.9" viewBox="0 0 38 24.9"><defs><style>.cls-1{fill:#ffb95c;}.cls-2{fill:#212121;}</style></defs><title>Asset 24</title><g id="Layer_2" data-name="Layer 2"><g id="Layer_2-2" data-name="Layer 2"><path class="cls-1" d="M.66.66,11.86,11.3a6.58,6.58,0,0,0,9,0L32.1.66Z"/><path class="cls-2" d="M32.76,7.21V0H0V24.9H32.76V17.69H31.45v5l-10.1-9.59-.9,1,10,9.52H2.3l10-9.52-.9-1L1.31,22.71V2.18l10.1,9.59a7.2,7.2,0,0,0,9.94,0l10.1-9.59v5ZM20.45,10.82a5.9,5.9,0,0,1-8.14,0L2.3,1.31H30.46Z"/><polygon class="cls-2" points="33.61 11.33 34.53 12.26 37.62 9.17 34.53 6.09 33.61 7.01 35.11 8.52 26.86 8.52 26.86 9.83 35.11 9.83 33.61 11.33"/><polygon class="cls-1" points="38 15.07 29.1 15.07 30.6 13.57 29.68 12.64 26.59 15.72 29.68 18.81 30.6 17.88 29.1 16.38 38 16.38 38 15.07"/></g></g></svg>