<svg xmlns="http://www.w3.org/2000/svg" viewBox="0 0 25.27 24.5"><defs><style>.cls-1{fill:#1dd8cf;}.cls-2{fill:none;stroke:#212121;stroke-linecap:round;stroke-linejoin:round;}.cls-3{fill:#212121;}</style></defs><title>insurance-type</title><g id="Layer_2" data-name="Layer 2"><g id="Layer_1-2" data-name="Layer 1"><circle class="cls-1" cx="9.07" cy="6.38" r="4.61"/><path class="cls-2" d="M8.67,1.77C3.92,3.21.5,7.17.5,11.84a9.26,9.26,0,0,0,.18,1.8h0c7.38-5,8.08,0,12,0,4.31.08,4.73-4.73,12,0h0a9.26,9.26,0,0,0,.18-1.8c0-4.66-3.41-8.62-8.17-10.06"/><path class="cls-2" d="M6.58,21a3,3,0,0,0,3.21,3,3.11,3.11,0,0,0,2.84-3.14V16.5"/><circle class="cls-3" cx="12.63" cy="0.99" r="0.99"/><path class="cls-2" d="M8.61,5.35A4,4,0,0,0,5.46,7.53"/></g></g></svg>