<svg xmlns="http://www.w3.org/2000/svg" viewBox="0 0 21.61 25"><defs><style>.cls-1{fill:#1dd8cf;}.cls-2{fill:none;stroke:#212121;stroke-linecap:round;stroke-linejoin:round;}</style></defs><title>location</title><g id="Layer_2" data-name="Layer 2"><g id="Layer_1-2" data-name="Layer 1"><circle class="cls-1" cx="13.94" cy="16.22" r="6.15"/><path class="cls-2" d="M17.82,19.65l3.12,3a1.23,1.23,0,0,1-1.06,1.85H1.72A1.23,1.23,0,0,1,.66,22.66l3.13-3"/><path class="cls-2" d="M14.45,18.72l-1.8,2.1a2.45,2.45,0,0,1-3.72,0L4.11,15.19A8.92,8.92,0,0,1,2.72,5.5a9.3,9.3,0,0,1,1.7-2.37h0a9,9,0,0,1,12.71,0h0"/><path class="cls-2" d="M18.84,5.5a8.93,8.93,0,0,1-1.37,9.7l-1.34,1.56"/><path class="cls-2" d="M8,9.25a3.15,3.15,0,1,1-.19,2.4"/><path class="cls-2" d="M4.64,9.54A4.56,4.56,0,0,1,8.05,4.8"/></g></g></svg>