<svg xmlns="http://www.w3.org/2000/svg" viewBox="0 0 24.98 25"><defs><style>.cls-1{fill:#1dd8cf;}.cls-2{fill:none;stroke:#212121;stroke-linecap:round;stroke-linejoin:round;}</style></defs><title>month</title><g id="Layer_2" data-name="Layer 2"><g id="Layer_1-2" data-name="Layer 1"><rect class="cls-1" x="13.25" y="13.31" width="9.6" height="4" rx="1.95" ry="1.95"/><circle class="cls-1" cx="8.38" cy="15.25" r="2.07"/><rect class="cls-2" x="16.24" y="0.5" width="2.74" height="5.47" rx="1.33" ry="1.33"/><rect class="cls-2" x="8.38" y="0.5" width="2.74" height="5.47" rx="1.33" ry="1.33"/><path class="cls-2" d="M5.63,24.5H4.15A3.65,3.65,0,0,1,.5,20.85v-.91A.91.91,0,0,1,1.41,19H16.28a.91.91,0,0,1,.91.91v.91a3.65,3.65,0,0,0,3.65,3.65h0a3.65,3.65,0,0,0,3.65-3.65v-14a3.65,3.65,0,0,0-3.65-3.65h-.24"/><line class="cls-2" x1="20.83" y1="24.5" x2="8.27" y2="24.5"/><path class="cls-2" d="M2.88,19V6.88A3.65,3.65,0,0,1,6.53,3.23H6.8"/><line class="cls-2" x1="16.25" y1="3.23" x2="12.92" y2="3.23"/><line class="cls-2" x1="20.7" y1="8.68" x2="21.75" y2="8.68"/><line class="cls-2" x1="5.62" y1="8.68" x2="18.14" y2="8.68"/><rect class="cls-2" x="5.62" y="12.01" width="3.58" height="4.22" rx="1" ry="1"/><path class="cls-2" d="M17.15,16.23H12.93a.91.91,0,0,1-.91-.91v-2.4a.91.91,0,0,1,.91-.91h7.9a.91.91,0,0,1,.91.91v2.4a.91.91,0,0,1-.91.91H19.37"/><line class="cls-2" x1="11.51" y1="21.82" x2="3.9" y2="21.82"/><line class="cls-2" x1="14.73" y1="21.82" x2="13.9" y2="21.82"/></g></g></svg>