<svg xmlns="http://www.w3.org/2000/svg" viewBox="0 0 17.94 27"><defs><style>.cls-1{fill:#1dd8cf;}.cls-2{fill:none;stroke:#212121;stroke-linecap:round;stroke-linejoin:round;}</style></defs><title>person</title><g id="Layer_2" data-name="Layer 2"><g id="Layer_1-2" data-name="Layer 1"><circle class="cls-1" cx="6.77" cy="5.41" r="4.11"/><path class="cls-2" d="M12.37,8.49a15.39,15.39,0,0,0,2.17,0s.07,9.63-5.57,9.63S3.41,8.5,3.41,8.5A4.51,4.51,0,0,0,7.14,6.3a5.89,5.89,0,0,0,3.29,1.86"/><path class="cls-2" d="M5,1.67A7.41,7.41,0,0,1,9,.5,8.12,8.12,0,0,1,16.8,8.89a5.15,5.15,0,0,1-.44,1.89"/><path class="cls-2" d="M1.58,10.79a5.22,5.22,0,0,1-.44-1.9,8.72,8.72,0,0,1,1.92-5.5"/><line class="cls-2" x1="11.4" y1="10.51" x2="11.4" y2="11.44"/><line class="cls-2" x1="6.55" y1="10.51" x2="6.55" y2="11.44"/><path class="cls-2" d="M10.21,14.7a2,2,0,0,1-2.48,0"/><path class="cls-2" d="M14.45,10.07A1.5,1.5,0,0,1,15,10a1.59,1.59,0,0,1,1.39.8,1.49,1.49,0,0,1,.24.83A1.62,1.62,0,0,1,15,13.24a1.57,1.57,0,0,1-1-.34"/><path class="cls-2" d="M3.49,10.07A1.5,1.5,0,0,0,3,10a1.6,1.6,0,0,0-1.39.81,1.54,1.54,0,0,0-.23.82A1.62,1.62,0,0,0,3,13.24a1.57,1.57,0,0,0,1-.34"/><path class="cls-2" d="M17.24,22.78a4,4,0,0,1,.2,1.25V26.5"/><path class="cls-2" d="M10.94,20h2.49a4,4,0,0,1,2.2.66"/><path class="cls-2" d="M.5,26.5V24a4,4,0,0,1,4-4H7"/><path class="cls-2" d="M11.07,17.58v1.71A2.1,2.1,0,0,1,9,21.39H9a2.1,2.1,0,0,1-2.1-2.1V17.6"/><line class="cls-2" x1="14.26" y1="26.5" x2="14.26" y2="24.72"/><line class="cls-2" x1="3.69" y1="24.72" x2="3.69" y2="26.5"/></g></g></svg>