<svg xmlns="http://www.w3.org/2000/svg" viewBox="0 0 165 99.66"><defs><style>.cls-1,.cls-3{fill:#3b8bff;}.cls-1{opacity:0.2;}.cls-1,.cls-15,.cls-4,.cls-9{isolation:isolate;}.cls-2,.cls-9{fill:#3f3d56;}.cls-15,.cls-4,.cls-5{opacity:0.1;}.cls-6{fill:#d0d2d5;}.cls-7{fill:#444053;}.cls-8{fill:#fff;}.cls-9{opacity:0.2;}.cls-10{fill:#efb7b9;}.cls-11{fill:#f86d70;}.cls-12{fill:#454b69;}.cls-13{fill:#464353;}.cls-14{fill:#a1616a;}.cls-15{fill:none;stroke:#000;stroke-miterlimit:10;}</style></defs><title>step2</title><g id="Layer_2" data-name="Layer 2"><g id="Layer_1-2" data-name="Layer 1"><path class="cls-1" d="M163.26,93a27,27,0,0,1-2.34,4.5,19.47,19.47,0,0,1-1.42,2l0,0H.8l0,0c.14-.11,1-.79,2.28-2,.94-.83,2.11-1.92,3.43-3.22C17.32,83.63,38,58.54,20.78,35.55,4.75,14.18,22,10.3,33.39,9.85a32.59,32.59,0,0,1,12.83,2.1,113.89,113.89,0,0,0,27.4,6.47l1.25.13a120,120,0,0,0,20,.36h0l.59,0a118.76,118.76,0,0,0,19.52-3l1.23-.29c21.36-4.94,41.06,11.9,36.14,30.94-1.82,7-1.36,14.55,4.71,20.62C167,77,165.74,86.8,163.26,93Z"/><ellipse class="cls-2" cx="128.17" cy="38.86" rx="2.01" ry="1.53" transform="translate(31.71 131.77) rotate(-60.79)"/><ellipse class="cls-2" cx="129.37" cy="36.72" rx="2.01" ry="1.53" transform="translate(34.19 131.72) rotate(-60.79)"/><ellipse class="cls-2" cx="130.57" cy="34.58" rx="2.01" ry="1.53" transform="translate(36.67 131.67) rotate(-60.79)"/><ellipse class="cls-2" cx="131.76" cy="32.44" rx="2.01" ry="1.53" transform="translate(39.15 131.61) rotate(-60.79)"/><ellipse class="cls-2" cx="132.96" cy="30.3" rx="2.01" ry="1.53" transform="translate(41.63 131.56) rotate(-60.79)"/><ellipse class="cls-2" cx="134.15" cy="28.16" rx="2.01" ry="1.53" transform="translate(44.11 131.51) rotate(-60.79)"/><ellipse class="cls-2" cx="135.35" cy="26.02" rx="2.01" ry="1.53" transform="translate(46.59 131.46) rotate(-60.79)"/><path class="cls-3" d="M148.54,14.17a7.48,7.48,0,0,0,.91-.45l-3.19-2.54L150,13.32a7.35,7.35,0,0,0,3-5l-6.58-.21,6.64-.83a7.34,7.34,0,1,0-14.58,1.25,7.38,7.38,0,0,0-1.38.76l3.24,4.92-4-4.35A7.34,7.34,0,0,0,134,16.46a7.34,7.34,0,1,0,10.07,5.63,7.34,7.34,0,0,0,4.43-7.92Z"/><path class="cls-4" d="M134.88,11.73a7.32,7.32,0,0,0-.84,4.73,7.34,7.34,0,1,0,10.07,5.63C145.58,21.48,135.29,11,134.88,11.73Z"/><path class="cls-2" d="M144.41,90.26h1.73a3.57,3.57,0,0,1,3.57,3.57v5.3h-8.87v-5.3A3.57,3.57,0,0,1,144.41,90.26Z"/><path class="cls-4" d="M144.41,90.26h1.73a3.57,3.57,0,0,1,3.57,3.57v5.3h-8.87v-5.3A3.57,3.57,0,0,1,144.41,90.26Z"/><circle class="cls-2" cx="144.92" cy="91.5" r="0.71"/><circle class="cls-2" cx="144.92" cy="90.61" r="0.71"/><circle class="cls-2" cx="144.92" cy="89.73" r="0.71"/><circle class="cls-2" cx="144.92" cy="88.84" r="0.71"/><circle class="cls-2" cx="144.92" cy="87.95" r="0.71"/><circle class="cls-2" cx="144.92" cy="87.07" r="0.71"/><circle class="cls-2" cx="144.92" cy="86.18" r="0.71"/><circle class="cls-2" cx="145.99" cy="86.53" r="0.71"/><circle class="cls-2" cx="146.7" cy="86.18" r="0.71"/><circle class="cls-2" cx="147.41" cy="85.82" r="0.71"/><circle class="cls-2" cx="144.92" cy="85.29" r="0.71"/><circle class="cls-2" cx="144.92" cy="84.41" r="0.71"/><circle class="cls-2" cx="144.92" cy="83.52" r="0.71"/><circle class="cls-2" cx="144.92" cy="82.63" r="0.71"/><path class="cls-3" d="M147.86,80.34l-.53.06a4.08,4.08,0,0,0,.46-.47,3,3,0,0,0-.43-.83,1.48,1.48,0,0,1-.57.18l-.53.06a9.48,9.48,0,0,0,.68-.71,3,3,0,1,0,1,2.23,3,3,0,0,0,0-.52Z"/><path class="cls-3" d="M150.23,83.87a1.4,1.4,0,0,1-.6.2l-.53.06a5.2,5.2,0,0,0,.53-.55,1.83,1.83,0,0,0-.45-.06,1.78,1.78,0,1,0,1.06.35Z"/><circle class="cls-2" cx="143.86" cy="86.53" r="0.71"/><circle class="cls-2" cx="143.15" cy="86.18" r="0.71"/><circle class="cls-2" cx="142.44" cy="85.82" r="0.71"/><path class="cls-3" d="M139.61,83.87a1.4,1.4,0,0,0,.6.2l.53.06a5.2,5.2,0,0,1-.53-.55,1.83,1.83,0,0,1,.45-.06,1.78,1.78,0,1,1-1.06.35Z"/><path class="cls-2" d="M144.41,90.79h1.73a3.57,3.57,0,0,1,3.57,3.57v4.69a.61.61,0,0,1-.61.61h-7.66a.61.61,0,0,1-.61-.61V94.36A3.57,3.57,0,0,1,144.41,90.79Z"/><g class="cls-5"><path d="M147.92,80.54l-.23.22.24,0C147.93,80.67,147.92,80.6,147.92,80.54Z"/><path d="M146.62,79.69l.53-.06a1.66,1.66,0,0,0,.46-.13,3.23,3.23,0,0,0-.25-.41,1.07,1.07,0,0,1-.29.12A4.22,4.22,0,0,1,146.62,79.69Z"/><path d="M142.26,81.21a3,3,0,0,1,4.64-2.54l0,0a3,3,0,0,0-4,4.5l0,0A3,3,0,0,1,142.26,81.21Z"/></g><g class="cls-5"><path d="M149.11,84.48l.53-.06a1.4,1.4,0,0,0,.6-.2,1.77,1.77,0,0,1,.71,1.26,1.65,1.65,0,0,0,0-.19,1.77,1.77,0,0,0-.71-1.43,1.4,1.4,0,0,1-.6.2l-.14,0A3.51,3.51,0,0,1,149.11,84.48Z"/><path d="M149.18,83.87h.18l.28-.31a1.83,1.83,0,0,0-.45-.06,1.77,1.77,0,0,0-1.77,1.77h0a1.2,1.2,0,0,0,0,.18A1.77,1.77,0,0,1,149.18,83.87Z"/></g><g class="cls-5"><path d="M140.74,84.48l-.53-.06a1.4,1.4,0,0,1-.6-.2,1.77,1.77,0,0,0-.71,1.26,1.65,1.65,0,0,1,0-.19,1.77,1.77,0,0,1,.71-1.43,1.4,1.4,0,0,0,.6.2l.14,0A3.64,3.64,0,0,0,140.74,84.48Z"/><path d="M140.66,83.87h-.18l-.28-.31a1.83,1.83,0,0,1,.45-.06,1.77,1.77,0,0,1,1.77,1.77,1.21,1.21,0,0,1,0,.18A1.77,1.77,0,0,0,140.66,83.87Z"/></g><path class="cls-2" d="M8.14,77H21.78a3.57,3.57,0,0,1,3.57,3.57v17.2H4.57V80.58A3.57,3.57,0,0,1,8.14,77Z"/><path class="cls-4" d="M8.14,77H21.78a3.57,3.57,0,0,1,3.57,3.57v17.2H4.57V80.58A3.57,3.57,0,0,1,8.14,77Z"/><circle class="cls-2" cx="14.13" cy="79.91" r="1.66"/><circle class="cls-2" cx="14.13" cy="77.84" r="1.66"/><circle class="cls-2" cx="14.13" cy="75.76" r="1.66"/><circle class="cls-2" cx="14.13" cy="73.68" r="1.66"/><circle class="cls-2" cx="14.13" cy="71.6" r="1.66"/><circle class="cls-2" cx="14.13" cy="69.52" r="1.66"/><circle class="cls-2" cx="14.13" cy="67.45" r="1.66"/><circle class="cls-2" cx="16.62" cy="68.28" r="1.66"/><circle class="cls-2" cx="18.29" cy="67.45" r="1.66"/><circle class="cls-2" cx="19.95" cy="66.61" r="1.66"/><circle class="cls-2" cx="14.13" cy="65.37" r="1.66"/><circle class="cls-2" cx="14.13" cy="63.29" r="1.66"/><circle class="cls-2" cx="14.13" cy="61.21" r="1.66"/><circle class="cls-2" cx="14.13" cy="59.13" r="1.66"/><path class="cls-3" d="M21,53.77q-.62.09-1.24.13a9.68,9.68,0,0,0,1.07-1.1,7,7,0,0,0-1-2,3.39,3.39,0,0,1-1.33.43c-.41.06-.83.1-1.24.13a22.4,22.4,0,0,0,1.59-1.66,7.08,7.08,0,1,0,2.21,4Z"/><path class="cls-3" d="M26.58,62a3.27,3.27,0,0,1-1.4.47c-.41.06-.83.1-1.24.13a11.69,11.69,0,0,0,1.23-1.28,4.16,4.16,0,1,0,1.41.68Z"/><circle class="cls-2" cx="11.64" cy="68.28" r="1.66"/><circle class="cls-2" cx="9.97" cy="67.45" r="1.66"/><circle class="cls-2" cx="8.31" cy="66.61" r="1.66"/><path class="cls-3" d="M1.68,62a3.27,3.27,0,0,0,1.4.47c.41.06.83.1,1.24.13a11.69,11.69,0,0,1-1.23-1.28A4.16,4.16,0,1,1,1.68,62Z"/><path class="cls-2" d="M8.14,78.25H21.78a3.57,3.57,0,0,1,3.57,3.57V98.43a.61.61,0,0,1-.61.61H5.18a.61.61,0,0,1-.61-.6h0V81.82A3.57,3.57,0,0,1,8.14,78.25Z"/><g class="cls-5"><path d="M21.15,54.23a5.37,5.37,0,0,1-.54.51l.57,0C21.18,54.53,21.17,54.38,21.15,54.23Z"/><path d="M18.12,52.24c.42,0,.83-.07,1.24-.13a4,4,0,0,0,1.08-.29,7.22,7.22,0,0,0-.58-1,2.45,2.45,0,0,1-.67.29A9.88,9.88,0,0,1,18.12,52.24Z"/><path d="M7.9,55.81a7.05,7.05,0,0,1,10.87-5.94l.11-.11A7.06,7.06,0,1,0,9.41,60.23l.16.14A7,7,0,0,1,7.9,55.81Z"/></g><g class="cls-5"><path d="M23.94,63.46q.62,0,1.24-.13a3.27,3.27,0,0,0,1.4-.47,4.15,4.15,0,0,1,1.66,2.94,4.35,4.35,0,0,0,0-.44A4.14,4.14,0,0,0,26.58,62a3.27,3.27,0,0,1-1.4.47l-.33,0A8.23,8.23,0,0,1,23.94,63.46Z"/><path d="M24.1,62l.42,0,.65-.71a4.14,4.14,0,0,0-5.22,4c0,.14,0,.29,0,.42A4.16,4.16,0,0,1,24.1,62Z"/></g><g class="cls-5"><path d="M4.32,63.46q-.62,0-1.24-.13a3.23,3.23,0,0,1-1.4-.47A4.15,4.15,0,0,0,0,65.81a4.35,4.35,0,0,1,0-.44A4.14,4.14,0,0,1,1.68,62a3.27,3.27,0,0,0,1.4.47l.33,0A8.35,8.35,0,0,0,4.32,63.46Z"/><path d="M4.16,62l-.42,0-.65-.71a4.14,4.14,0,0,1,5.22,4,2.8,2.8,0,0,1,0,.42A4.16,4.16,0,0,0,4.16,62Z"/></g><polygon class="cls-6" points="97.09 99.45 69.25 99.09 69.33 98.38 70.67 86.6 95.13 86.6 96.93 98.38 97.06 99.27 97.09 99.45"/><polygon class="cls-4" points="97.06 99.27 83.17 99.27 69.25 99.09 69.33 98.38 96.93 98.38 97.06 99.27"/><rect class="cls-6" x="64.61" y="98.56" width="36.95" height="0.89"/><path class="cls-7" d="M136.8,15.85a2.32,2.32,0,0,0-2.31-2.34H31.31A2.32,2.32,0,0,0,29,15.85h0V78.39H136.8Z"/><path class="cls-6" d="M29,77.76v7.33a2.31,2.31,0,0,0,2.3,2.32H134.49a2.31,2.31,0,0,0,2.31-2.31h0V77.76Z"/><rect class="cls-1" x="33.46" y="17.44" width="99.41" height="56.22"/><path class="cls-3" d="M83.44,84.62a2.41,2.41,0,0,0,1.9-.92h0a2.6,2.6,0,0,0,.19-.28l-1.32-.22h1.43a2.4,2.4,0,0,0,0-1.91l-1.92,1L85.52,81a2.41,2.41,0,1,0-4,2.68h0A2.41,2.41,0,0,0,83.44,84.62Z"/><polygon class="cls-4" points="85.85 87.4 96.95 98.56 95.25 87.4 85.85 87.4"/><rect class="cls-8" x="36.23" y="25.09" width="76.75" height="40.75"/><rect class="cls-1" x="40.51" y="35.72" width="21.41" height="1.11"/><rect class="cls-1" x="42.41" y="29.85" width="2.06" height="5.87"/><rect class="cls-1" x="45.43" y="29.85" width="2.06" height="5.87"/><rect class="cls-1" x="48.44" y="29.85" width="2.06" height="5.87"/><rect class="cls-1" x="51.45" y="29.85" width="2.06" height="5.87"/><rect class="cls-1" x="54.46" y="29.85" width="2.06" height="5.87"/><rect class="cls-1" x="57.48" y="29.85" width="2.06" height="5.87"/><rect class="cls-1" x="42.41" y="30.96" width="2.06" height="0.63"/><rect class="cls-1" x="45.43" y="30.96" width="2.06" height="0.63"/><rect class="cls-1" x="48.44" y="30.96" width="2.06" height="0.63"/><rect class="cls-1" x="51.45" y="30.96" width="2.06" height="0.63"/><rect class="cls-1" x="54.46" y="30.96" width="2.06" height="0.63"/><rect class="cls-1" x="57.48" y="30.96" width="2.06" height="0.63"/><rect class="cls-1" x="42.41" y="33.81" width="2.06" height="0.63"/><rect class="cls-1" x="45.43" y="33.81" width="2.06" height="0.63"/><rect class="cls-1" x="48.44" y="33.81" width="2.06" height="0.63"/><rect class="cls-1" x="51.45" y="33.81" width="2.06" height="0.63"/><rect class="cls-1" x="54.46" y="33.81" width="2.06" height="0.63"/><rect class="cls-1" x="57.48" y="33.81" width="2.06" height="0.63"/><rect class="cls-1" x="87.45" y="38.57" width="21.41" height="1.11"/><rect class="cls-1" x="89.35" y="32.7" width="2.06" height="5.87"/><rect class="cls-1" x="92.36" y="32.7" width="2.06" height="5.87"/><rect class="cls-1" x="95.37" y="32.7" width="2.06" height="5.87"/><rect class="cls-1" x="98.39" y="32.7" width="2.06" height="5.87"/><rect class="cls-1" x="101.4" y="32.7" width="2.06" height="5.87"/><rect class="cls-1" x="104.41" y="32.7" width="2.06" height="5.87"/><rect class="cls-1" x="89.35" y="33.81" width="2.06" height="0.63"/><rect class="cls-1" x="92.36" y="33.81" width="2.06" height="0.63"/><rect class="cls-1" x="95.37" y="33.81" width="2.06" height="0.63"/><rect class="cls-1" x="98.39" y="33.81" width="2.06" height="0.63"/><rect class="cls-1" x="101.4" y="33.81" width="2.06" height="0.63"/><rect class="cls-1" x="104.41" y="33.81" width="2.06" height="0.63"/><rect class="cls-1" x="89.35" y="36.67" width="2.06" height="0.63"/><rect class="cls-1" x="92.36" y="36.67" width="2.06" height="0.63"/><rect class="cls-1" x="95.37" y="36.67" width="2.06" height="0.63"/><rect class="cls-1" x="98.39" y="36.67" width="2.06" height="0.63"/><rect class="cls-1" x="101.4" y="36.67" width="2.06" height="0.63"/><rect class="cls-1" x="104.41" y="36.67" width="2.06" height="0.63"/><rect class="cls-1" x="87.45" y="46.66" width="21.41" height="1.11"/><rect class="cls-1" x="89.35" y="40.79" width="2.06" height="5.87"/><rect class="cls-1" x="92.36" y="40.79" width="2.06" height="5.87"/><rect class="cls-1" x="95.37" y="40.79" width="2.06" height="5.87"/><rect class="cls-1" x="98.39" y="40.79" width="2.06" height="5.87"/><rect class="cls-1" x="101.4" y="40.79" width="2.06" height="5.87"/><rect class="cls-1" x="104.41" y="40.79" width="2.06" height="5.87"/><rect class="cls-1" x="89.35" y="41.9" width="2.06" height="0.63"/><rect class="cls-1" x="92.36" y="41.9" width="2.06" height="0.63"/><rect class="cls-1" x="95.37" y="41.9" width="2.06" height="0.63"/><rect class="cls-1" x="98.39" y="41.9" width="2.06" height="0.63"/><rect class="cls-1" x="101.4" y="41.9" width="2.06" height="0.63"/><rect class="cls-1" x="104.41" y="41.9" width="2.06" height="0.63"/><rect class="cls-1" x="89.35" y="44.75" width="2.06" height="0.63"/><rect class="cls-1" x="92.36" y="44.75" width="2.06" height="0.63"/><rect class="cls-1" x="95.37" y="44.75" width="2.06" height="0.63"/><rect class="cls-1" x="98.39" y="44.75" width="2.06" height="0.63"/><rect class="cls-1" x="101.4" y="44.75" width="2.06" height="0.63"/><rect class="cls-1" x="104.41" y="44.75" width="2.06" height="0.63"/><path class="cls-1" d="M53.64,48.26a5.65,5.65,0,0,1-.44-.64l3.08-.51-3.34,0a5.63,5.63,0,0,1-.11-4.45L57.31,45l-4.12-3a5.62,5.62,0,1,1,9.28,6.28,5.62,5.62,0,0,1,.64,1l-4,2.08,4.26-1.43a5.62,5.62,0,0,1-.91,5.27,5.62,5.62,0,1,1-8.83,0,5.62,5.62,0,0,1,0-6.95Z"/><path class="cls-1" d="M63.67,51.74a5.59,5.59,0,0,1-1.2,3.47,5.62,5.62,0,1,1-8.83,0C52.89,54.25,63.67,51.11,63.67,51.74Z"/><path class="cls-9" d="M59,65.8l0,0H57.08l0,0a1.86,1.86,0,0,1-.25-.94A1.93,1.93,0,0,1,57,64.2h0l.39.05a6.69,6.69,0,0,0,1.33,0l.39-.05h0a1.9,1.9,0,0,1,.11.65A1.86,1.86,0,0,1,59,65.8Z"/><path class="cls-1" d="M52.1,65.85H41.49l-.06-.19A5.58,5.58,0,0,1,41.55,62a5.62,5.62,0,0,1-2.05-6.64,5.81,5.81,0,0,1-.61-.49l2.8-1.39-3.18,1a5.62,5.62,0,0,1-1.42-4.22l5,.9-4.83-1.68a5.62,5.62,0,1,1,10.72,3.27,5.72,5.72,0,0,1,.92.79l-3.21,3.17,3.65-2.63A5.62,5.62,0,0,1,50,59.38,5.62,5.62,0,0,1,52.1,65.85Z"/><path class="cls-1" d="M52.1,65.85H41.49l-.06-.19A5.58,5.58,0,0,1,41.55,62c-1-.69,8.38-6.88,8.57-6.28A5.61,5.61,0,0,1,50,59.38,5.62,5.62,0,0,1,52.1,65.85Z"/><path class="cls-1" d="M100.14,58.24a5.59,5.59,0,0,1-2.81,2.36,5.8,5.8,0,0,1,0,1.21l-4.5-.27,4.39,1a5.63,5.63,0,0,1-2.17,3.35H89V66H82.72l0-.16A5.64,5.64,0,0,1,86.18,62a5.62,5.62,0,0,1,3.57-6,5.62,5.62,0,0,1,0-.78l2.91,1.14-2.87-1.69a5.63,5.63,0,0,1,2.19-3.88l2.65,4.28-2-4.71a5.62,5.62,0,0,1,7.55,7.79Z"/><path class="cls-1" d="M96.58,64.2a5.54,5.54,0,0,1-1.5,1.65H89V66H82.72l0-.16A5.64,5.64,0,0,1,86.18,62c-.05-.41,1.16-.35,2.77-.08C92.1,62.48,96.79,63.84,96.58,64.2Z"/><path class="cls-10" d="M70,49.21s.76,4.17-.95,5.52,1.45,9.51,6.7,8.56,7.38-7.79,7.38-7.79-5.25-1.09-3.31-6.61Z"/><path class="cls-4" d="M70,49.21s.76,4.17-.95,5.52,1.45,9.51,6.7,8.56,7.38-7.79,7.38-7.79-5.25-1.09-3.31-6.61Z"/><circle class="cls-10" cx="74.67" cy="43.57" r="8.69"/><path class="cls-11" d="M89,60.09V66H60.25V60.36A3.64,3.64,0,0,1,62.47,57l.82-.35c2.08-.89,4.61-2,5.44-2.45a1.36,1.36,0,0,0,.25-.16c.45-.45.36.14.36.14s0,.11,0,.31c0,1.33.14,6.56,6.27,6.12s6.24-4.46,6.19-5.65a3,3,0,0,0,0-.33A8.19,8.19,0,0,1,83,55a25.2,25.2,0,0,1,3.59,1.55c.15.11.34.22.54.33A3.62,3.62,0,0,1,89,60.09Z"/><path class="cls-4" d="M83,55c-.51,2.34-2.09,6.74-7.82,6.85-6.1.12-6.45-5.95-6.41-7.67a1.32,1.32,0,0,0,.26-.17c.45-.45.36.14.36.14s-.77,6.93,6.25,6.43,6.16-6,6.16-6A7.16,7.16,0,0,1,83,55Z"/><path class="cls-12" d="M64.38,44a1.5,1.5,0,0,1,1.57.57,2.81,2.81,0,0,1,.4,1.49c.38.08.59-.35.63-.67a17.42,17.42,0,0,1,.59-3.92,4.69,4.69,0,0,1,2.89-3A3.34,3.34,0,0,1,72,38.34c.31.05.61.16.92.21,1.08.18,2.26-.33,3.27,0a2.58,2.58,0,0,1,1.34,1.26,2.75,2.75,0,0,0,.52.76,3.63,3.63,0,0,0,1.72.61,2.23,2.23,0,0,1,1.56.81,2.1,2.1,0,0,1,0,1.4,3.41,3.41,0,0,0,.35,2.16c.11.22.35.46.62.39a.55.55,0,0,0,.3-.24c.71-1,.69-2.3,1.58-3.19.3-.3.68-.53,1-.84a1.88,1.88,0,0,0,.5-1.71,5.65,5.65,0,0,0-1.15-1.86,7.28,7.28,0,0,1-1.24-2.56.46.46,0,0,1,0-.33A.9.9,0,0,1,83.6,35,1.19,1.19,0,0,0,84,33.44a2.52,2.52,0,0,0-1.42-1.13,9.45,9.45,0,0,0-2-.43,1.06,1.06,0,0,1-1.09-.54c-.06-.16-.06-.32-.12-.48a1.1,1.1,0,0,0-.83-.58,2.43,2.43,0,0,0-1.12.08,1.74,1.74,0,0,1-1.25.09c-.19-.11-.29-.3-.5-.39-.41-.18-.85.18-1.14.47a2.81,2.81,0,0,1-1,.69,1.53,1.53,0,0,1-1.28-.08,4,4,0,0,1-.66-.7,2.47,2.47,0,0,0-1.55-.64,5.48,5.48,0,0,0-1.75.19,10.6,10.6,0,0,0-3.08,1.29,3.3,3.3,0,0,0-1.18,1.1,2.49,2.49,0,0,0-.27,1.13,4.09,4.09,0,0,0,1.43,3.39,2,2,0,0,0-1,1.52,8.36,8.36,0,0,0-.4,2.86,6.27,6.27,0,0,1,.11,1.48,3.21,3.21,0,0,0-.1.71A.68.68,0,0,0,64.38,44Z"/><g class="cls-5"><path d="M85.54,39.6a2,2,0,0,1-.38.55c-.29.3-.67.54-1,.84-.89.89-.87,2.19-1.58,3.19a.54.54,0,0,1-.3.24c-.27.07-.5-.18-.62-.39a3.47,3.47,0,0,1-.31-.84l0,.22a3.41,3.41,0,0,0,.35,2.16c.11.22.35.46.62.39a.55.55,0,0,0,.3-.24c.71-1,.69-2.3,1.58-3.19.3-.3.68-.53,1-.84a1.88,1.88,0,0,0,.5-1.71A2.06,2.06,0,0,0,85.54,39.6Z"/><path d="M83.6,33.44a.88.88,0,0,0-.32.26.46.46,0,0,0,0,.33,7,7,0,0,0,.32.95h0a1.19,1.19,0,0,0,.4-1.54,1.56,1.56,0,0,0-.14-.24A1.19,1.19,0,0,1,83.6,33.44Z"/><path d="M65.24,35.36a3.88,3.88,0,0,1-1.36-2.41,3.43,3.43,0,0,0-.06.57,4.34,4.34,0,0,0,.69,2.57A1.46,1.46,0,0,1,65.24,35.36Z"/><path d="M81.35,41.87a2.1,2.1,0,0,0,0-1.4,2.22,2.22,0,0,0-1.56-.81,3.62,3.62,0,0,1-1.72-.61,2.75,2.75,0,0,1-.52-.76A2.56,2.56,0,0,0,76.23,37c-1-.36-2.19.16-3.27,0-.31-.05-.61-.16-.92-.21a3.34,3.34,0,0,0-1.57.14,4.69,4.69,0,0,0-2.89,3A17.28,17.28,0,0,0,67,43.85c0,.32-.25.75-.63.67A2.83,2.83,0,0,0,66,43a1.49,1.49,0,0,0-1.57-.57.76.76,0,0,1-.44-.29,2.4,2.4,0,0,1,0,.57,3.21,3.21,0,0,0-.1.71.68.68,0,0,0,.54.54,1.5,1.5,0,0,1,1.57.57,2.81,2.81,0,0,1,.4,1.49c.38.08.59-.35.63-.67a17.42,17.42,0,0,1,.59-3.92,4.69,4.69,0,0,1,2.89-3A3.34,3.34,0,0,1,72,38.34c.31.05.61.16.92.21,1.08.18,2.26-.33,3.27,0a2.58,2.58,0,0,1,1.34,1.26,2.75,2.75,0,0,0,.52.76,3.63,3.63,0,0,0,1.72.61,2.29,2.29,0,0,1,1.53.76S81.34,41.9,81.35,41.87Z"/><path d="M63.94,41.22a4,4,0,0,0-.07-1.16,5.17,5.17,0,0,0,0,1.22c0,.1,0,.21,0,.31C63.88,41.47,63.92,41.34,63.94,41.22Z"/></g><rect class="cls-8" x="116.9" y="56.98" width="12.85" height="8.92"/><path class="cls-1" d="M128.61,63.71a1.59,1.59,0,0,1-.8.67,1.63,1.63,0,0,1,0,.34l-1.29-.08,1.25.27a1.61,1.61,0,0,1-.62,1h-1.74v0h-1.77a.07.07,0,0,1,0,0,1.57,1.57,0,0,1,.17-.41,1.59,1.59,0,0,1,.8-.67,1.6,1.6,0,0,1,1-1.7,1.43,1.43,0,0,1,0-.22l.83.33-.82-.48a1.6,1.6,0,0,1,.62-1.1l.75,1.22-.56-1.34a1.6,1.6,0,0,1,2.14,2.22Z"/><path class="cls-1" d="M127.59,65.41a1.57,1.57,0,0,1-.43.47h-1.74v0h-1.77a.07.07,0,0,1,0,0,1.57,1.57,0,0,1,.17-.41,1.59,1.59,0,0,1,.8-.67c0-.12.33-.1.79,0A7,7,0,0,1,127.59,65.41Z"/><path class="cls-1" d="M117.39,63.71a1.59,1.59,0,0,0,.8.67,1.63,1.63,0,0,0,0,.34l1.29-.08-1.25.27a1.61,1.61,0,0,0,.62,1h1.74v0h1.77a.27.27,0,0,0,0,0,1.67,1.67,0,0,0-.17-.41,1.6,1.6,0,0,0-.8-.67,1.6,1.6,0,0,0-1-1.7,1.62,1.62,0,0,0,0-.22l-.83.33.82-.48a1.6,1.6,0,0,0-.62-1.1L119,62.83l.56-1.34a1.6,1.6,0,0,0-2.14,2.22Z"/><path class="cls-1" d="M118.41,65.41a1.57,1.57,0,0,0,.43.47h1.74v0h1.77a.27.27,0,0,0,0,0,1.67,1.67,0,0,0-.17-.41,1.6,1.6,0,0,0-.8-.67c0-.12-.33-.1-.79,0A6.92,6.92,0,0,0,118.41,65.41Z"/><rect class="cls-13" x="121.73" y="58.94" width="2.87" height="3.2"/><rect class="cls-4" x="121.73" y="58.94" width="2.87" height="3.2"/><polygon class="cls-14" points="120.5 65.07 120.44 65.9 121.26 65.9 121.31 64.8 120.5 65.07"/><polygon class="cls-14" points="124.82 65.07 124.69 65.9 125.45 65.9 125.49 64.8 124.82 65.07"/><path class="cls-14" d="M122.44,60.54a1.33,1.33,0,0,1-.13.52,1,1,0,0,0,1.67.12s-.34-.29-.26-.61S122.44,60.54,122.44,60.54Z"/><path class="cls-4" d="M122.44,60.54a1.33,1.33,0,0,1-.13.52,1,1,0,0,0,1.67.12s-.34-.29-.26-.61S122.44,60.54,122.44,60.54Z"/><circle class="cls-14" cx="123.16" cy="59.48" r="1.44"/><path class="cls-3" d="M123.09,61.43a.71.71,0,0,1-.69-.56,3.67,3.67,0,0,1-.38.29c-.06,0-.63.35-.74.37a.61.61,0,0,0-.29.14,1.25,1.25,0,0,0-.48.93c0,.64-.1,1.9-.1,1.9l0,.46v.3a1,1,0,0,0,.86-.14s0-.11.06-.14.07-.18.06-.24a2.32,2.32,0,0,1,0-.27.19.19,0,0,0,.08.12.61.61,0,0,1,0,.25c0,.06-.06.2,0,.23a.14.14,0,0,1,0,.17,1,1,0,0,0-.13.25s0,.18-.06.2a.82.82,0,0,0-.07.23h3.57a3.44,3.44,0,0,1-.14-.56c0-.09-.09-.46,0-.55a.76.76,0,0,0,.16-.46l0,.39-.11.86s.66.21.73.08a4.58,4.58,0,0,0,.17-.69s.16-.71.2-.81.13-2.08-.41-2.37a16,16,0,0,0-1.57-.76A.66.66,0,0,1,123.09,61.43Z"/><path class="cls-15" d="M121.37,63.37a.71.71,0,0,0-.12.5,1.39,1.39,0,0,0,.17.5"/><path class="cls-15" d="M124.83,63.51a1.51,1.51,0,0,1,.06.22.68.68,0,0,1-.09.56"/><path class="cls-13" d="M122.52,58.5a.48.48,0,0,1,.34,0,1.76,1.76,0,0,0,.32.13l.23,0a.7.7,0,0,1,.56.55c.06.35-.14.7-.14,1.06a.88.88,0,0,0,.2.56,1.66,1.66,0,0,1,.29.34c0,.09,0,.2.09.29a.74.74,0,0,0,.41.35,2.76,2.76,0,0,1,.5.22c.29.19.45.55.79.63a.13.13,0,0,0,.1,0,.13.13,0,0,0,0-.1.47.47,0,0,0-.13-.38c-.08-.08-.2-.14-.23-.25s0-.2.08-.3a1,1,0,0,0-.3-.94,1.93,1.93,0,0,1-.55-.86,2.25,2.25,0,0,1,0-.34,2.25,2.25,0,0,0-.12-.69,1,1,0,0,0-.17-.33c-.07-.09-.16-.15-.24-.23a3.53,3.53,0,0,1-.27-.43,1.29,1.29,0,0,0-1-.59,2.16,2.16,0,0,0-1.12.39,1,1,0,0,0-.32.28c-.14.23-.1.53-.18.78s-.28.45-.35.7a.49.49,0,0,0,0,.23,1.16,1.16,0,0,0,.1.23,1.7,1.7,0,0,1,.13.58,1.14,1.14,0,0,1-.09.7,1.18,1.18,0,0,1-.36.3.7.7,0,0,0,.5.15.88.88,0,0,0,.75-.21.75.75,0,0,0,.11-.52,2.19,2.19,0,0,0-.12-.58,4.45,4.45,0,0,1-.28-.79.75.75,0,0,1,.14-.57c.05-.06.14-.1.19-.17S122.39,58.54,122.52,58.5Z"/><g class="cls-5"><path d="M121.38,59.82a1.7,1.7,0,0,1,.13.58c0,.06,0,.13,0,.19a2,2,0,0,0,0-.42,1.69,1.69,0,0,0-.13-.57,1.29,1.29,0,0,1-.1-.23.48.48,0,0,0,0,.23A1.16,1.16,0,0,0,121.38,59.82Z"/><path d="M122.32,61.14a.89.89,0,0,1-.75.22,1.12,1.12,0,0,1-.34-.05l-.17.13a.7.7,0,0,0,.5.15.88.88,0,0,0,.75-.21.71.71,0,0,0,.12-.49A.55.55,0,0,1,122.32,61.14Z"/><path d="M125.89,61.71l0,0,.05-.12a.59.59,0,0,0,0-.29l0,.07C125.93,61.5,125.86,61.6,125.89,61.71Z"/><path d="M124,59.3a.89.89,0,0,0,0-.3.7.7,0,0,0-.56-.55l-.23,0a1.86,1.86,0,0,1-.32-.13.48.48,0,0,0-.34,0c-.13,0-.11.14-.17.24s-.13.1-.19.17a.74.74,0,0,0-.14.53.64.64,0,0,1,.13-.3c.05-.06.14-.1.19-.17s0-.19.17-.24a.48.48,0,0,1,.34,0,1.76,1.76,0,0,0,.32.13l.23,0a.7.7,0,0,1,.56.55Z"/><path d="M126.19,62.44a.14.14,0,0,1-.1,0c-.33-.08-.5-.44-.79-.63a3,3,0,0,0-.5-.22.73.73,0,0,1-.41-.34c0-.09,0-.2-.09-.29a1.66,1.66,0,0,0-.29-.34.89.89,0,0,1-.21-.5,1.1,1.1,0,0,0,0,.17.88.88,0,0,0,.21.57,1.66,1.66,0,0,1,.29.34c0,.09,0,.2.09.29a.74.74,0,0,0,.41.35,2.76,2.76,0,0,1,.5.22c.29.19.45.55.79.63a.13.13,0,0,0,.1,0,.13.13,0,0,0,0-.1.47.47,0,0,0,0-.16Z"/></g><rect class="cls-1" x="118.21" y="57.63" width="1.84" height="2.62"/><rect class="cls-1" x="118.48" y="58.01" width="1.31" height="1.87"/><rect class="cls-1" x="126.08" y="58.03" width="3.02" height="1.57"/><rect class="cls-1" x="126.47" y="58.23" width="2.23" height="1.16"/></g></g></svg>