<svg xmlns="http://www.w3.org/2000/svg" viewBox="0 0 180 125.94"><defs><style>.cls-1,.cls-12{fill:#3b8bff;}.cls-1{opacity:0.2;}.cls-1,.cls-8{isolation:isolate;}.cls-2{fill:#aaabb0;}.cls-3{fill:#33323d;}.cls-4{fill:#444053;}.cls-5{fill:#4c4981;}.cls-6{fill:#ffb9b9;}.cls-7{fill:#4c4c78;}.cls-14,.cls-8{opacity:0.1;}.cls-9{fill:#ae6e79;}.cls-10{fill:#f86d70;}.cls-11{fill:#fff;}.cls-13{fill:#3f3d56;}.cls-15{fill:#464a5f;}.cls-16{fill:#9c9ca1;}.cls-17{fill:#939498;}</style></defs><title>step5</title><g id="Layer_2" data-name="Layer 2"><g id="Layer_1-2" data-name="Layer 1"><path class="cls-1" d="M76.58,4.84C69.26,2.06,61.53-.27,53.64,0,42,.45,30.89,7,25.43,16.57c-4.63,8.12-5.2,17.65-7.19,26.66-2.45,11.11-7.16,21.66-12.19,32C3.35,80.76.5,86.43.06,92.51c-.61,8.44,3.7,16.85,10.46,22.46s15.74,8.58,24.76,9.22c4.8.34,9.81,0,14.07-2.06,4.51-2.21,7.79-6.2,12.32-8.38,4.19-2,9.1-2.3,13.81-2a65.52,65.52,0,0,1,18,3.59c6.58,2.31,12.7,5.66,19.26,8s13.9,3.65,20.61,1.7c6.31-1.84,11.29-6.3,15.78-10.82a191.79,191.79,0,0,0,20.13-23.81c4.05-5.68,7.82-11.67,9.62-18.29,3.43-12.66-1.29-26.93-11.75-35.58-8.66-7.16-20.29-10.27-31.68-12.15-10.38-1.72-22.38-1.83-31.94-6.31C94.42,13.75,86.13,8.48,76.58,4.84Z"/><polygon class="cls-2" points="105.03 102.77 105.03 108.8 106.74 108.8 106.41 102.33 105.03 102.77"/><polygon class="cls-2" points="79.26 101.55 79.26 107.58 80.98 107.58 80.65 101.11 79.26 101.55"/><rect class="cls-2" x="107.02" y="91.59" width="2.21" height="10.74" rx="1.11" ry="1.11"/><path class="cls-2" d="M79.73,89.21h0a1.11,1.11,0,0,1,1.11,1.11v10.9a1.11,1.11,0,0,1-1.11,1.11h0a1.11,1.11,0,0,1-1.11-1.11V90.32A1.11,1.11,0,0,1,79.73,89.21Z"/><path class="cls-2" d="M112.06,27.34s2.21-.94,2.55,0,.5,9.08.5,9.08H113Z"/><path class="cls-2" d="M87.82,27.34s-2.21-.94-2.55,0-.5,9.08-.5,9.08h2.1Z"/><polygon class="cls-2" points="88.15 19.26 87.81 26.01 89.31 26.01 89.31 19.09 88.15 19.26"/><path class="cls-3" d="M86.87,36.41l.44-9.74s-.17-2.16,5.09-1.49,20.64,2,20.64,2v9.24Z"/><path class="cls-3" d="M107.9,87.72l-.83,14.89a32.26,32.26,0,0,1-27,.33l1.33-15.66Z"/><polygon class="cls-4" points="96.34 29.11 96.61 38.74 113.77 38.74 112.77 26.01 96.34 29.11"/><rect class="cls-5" x="81.92" y="81.35" width="16.16" height="20.48"/><path class="cls-6" d="M92.13,89.71s2.32-1.83,2.71-1.27-1.38,2.93-2.1,2.66S92.13,89.71,92.13,89.71Z"/><rect class="cls-7" x="50.56" y="35.86" width="106.09" height="53.13"/><path class="cls-3" d="M86.93,18.87s-.83-7.75,0-8.69,14.78-9.85,27.67.61c0,0,1.22.06,1,2.82a33.21,33.21,0,0,0,0,5.26S87.87,20.86,86.93,18.87Z"/><path class="cls-8" d="M86.93,18.87s-.83-7.75,0-8.69,14.78-9.85,27.67.61c0,0,1.22.06,1,2.82a33.21,33.21,0,0,0,0,5.26S87.87,20.86,86.93,18.87Z"/><path class="cls-3" d="M86.93,19.87s-.83-7.75,0-8.69,14.78-9.85,27.67.61c0,0,1.22.06,1,2.82a33.21,33.21,0,0,0,0,5.26S87.87,21.86,86.93,19.87Z"/><path class="cls-5" d="M116.09,16.33s.88,3.32.61,3.87a6.69,6.69,0,0,0-.23,2.1s.06,1-.38,1.11-.83.17-.47.5,0,.83,0,.83a2.59,2.59,0,0,0,0,1.27c.19.5-1.14.71-1,1.33s.48,2.38,0,2.44.17,2.21-.27,2.21-.75,3.87-.75,3.87-3.07-2.6-5.12-1.88a7,7,0,0,1,.83-2.93c.66-.78.46-2.77.46-2.77l3.29-9.91Z"/><path class="cls-9" d="M99.66,62.11c-.72.8-1.49-3.45-1.49-3.45s-2,2.82-3.38.94c-.92-1.3-.19-5,.33-7.14.24-1,.43-1.6.43-1.6l3-.5s0,.65.08,1.44c.09,1.07.28,2.39.7,2.71C100,55.06,100.38,61.31,99.66,62.11Z"/><path class="cls-8" d="M98.11,12.4s-5.2-.05-6.48,2.71-1.33,3.71-1.83,4.15S95.23,22,95.23,22l.28,9.52a3.16,3.16,0,0,1,3-.64,10.24,10.24,0,0,0,4.26,0s-.11-.2,1.44,0,6.48-2.4,6.48-2.4.08-4.16,0-5.05,3.51-7.4,3.51-7.4,2.82-2.71-.11-3.65a4.37,4.37,0,0,0-3.71-1.55C107.73,10.86,98.11,12.4,98.11,12.4Z"/><path class="cls-5" d="M98.11,12.23s-5.2-.05-6.48,2.71-1.33,3.71-1.83,4.15,5.42,2.77,5.42,2.77l.28,9.52a3.16,3.16,0,0,1,3-.64,10.24,10.24,0,0,0,4.26,0s-.11-.2,1.44,0,6.48-2.4,6.48-2.4,1.94-3.15,1.83-4,3.87-7.58,3.87-7.58.61-3.54-2.32-4.48a4.37,4.37,0,0,0-3.71-1.55C107.73,10.7,98.11,12.23,98.11,12.23Z"/><path class="cls-8" d="M98.63,51.8c-1.14-.36-2.93.43-3.5.66.24-1,.43-1.6.43-1.6l3-.5S98.56,51,98.63,51.8Z"/><path class="cls-5" d="M91.41,19.09h-1.6a18.7,18.7,0,0,0,0,4.37c.33,1,.5.85.39,1.59s.78,1.87.78,1.87a13,13,0,0,0,.66,3.82c.55,1-.61,5.68-.61,5.68a6.68,6.68,0,0,0,1.38,2.16c.94.94,1.44,4.43,1.16,5.75a1.59,1.59,0,0,0,.78,1.83s.44,6.2.61,6.2,3.38-1.66,4.37-.22l-.78-5.7.06-11a2.91,2.91,0,0,1-.5-2.6c.55-1.22-.44-4.1-.44-4.1l-1.44-6.42Z"/><path class="cls-3" d="M81.45,106.59s-2.32-.5-2.38,0-2.77,5.59.61,7.08,12.4,4.7,27.06.55c0,0,.94.33.72-1.72s-.22-4.32-.22-4.32a11.89,11.89,0,0,0-3.88-.39C101.71,108,87.26,111,81.45,106.59Z"/><path class="cls-8" d="M81.45,106.59s-2.32-.5-2.38,0-2.77,5.59.61,7.08,12.4,4.7,27.06.55c0,0,.94.33.72-1.72s-.22-4.32-.22-4.32a11.89,11.89,0,0,0-3.88-.39C101.71,108,87.26,111,81.45,106.59Z"/><path class="cls-3" d="M81.45,105.92s-2.32-.5-2.38,0-2.77,5.59.61,7.08,12.4,4.7,27.06.55c0,0,.94.33.72-1.72s-.22-4.32-.22-4.32a11.89,11.89,0,0,0-3.88-.39C101.71,107.37,87.26,110.3,81.45,105.92Z"/><path class="cls-4" d="M95,21.08a21.86,21.86,0,0,0-.52,2.41,2.07,2.07,0,0,0,1,2.08,3.46,3.46,0,0,1,.61.25,1.35,1.35,0,0,1,.47.92,5,5,0,0,1,.06,1.36,2.31,2.31,0,0,0,.09,1.35c.4.71,1.43.6,2.22.41L98.69,32a.4.4,0,0,0,.48.55,4.23,4.23,0,0,0,2-.5,1.78,1.78,0,0,0,.91-1.71c-.13-.78-.94-1.41-.83-2.19.08-.61.68-1,1.07-1.46a2.82,2.82,0,0,0,.19-3.13,3.56,3.56,0,0,0-2.74-1.68,7.33,7.33,0,0,1-1.83-.2,1.38,1.38,0,0,1-.85-.89"/><path class="cls-10" d="M75.7,94.91l.58-1.26s3.13-2.91,3.85-3.12,3.65-1.09,4.1-1.09S92.74,89,92.74,89l.94,2.21L83.54,93.44l-3.42,2.49Z"/><path class="cls-6" d="M100.06,60.93,99.53,65l-.2,1.57-2.38.33s-.26-.55-.62-1.4c-1.1-2.57-3.18-7.87-2-8.78,1.6-1.22,2,2.82,2,2.82l1.83-.89Z"/><rect class="cls-11" x="87.65" y="68.51" width="12.02" height="18.15"/><rect class="cls-8" x="87.65" y="68.51" width="12.02" height="18.15"/><rect class="cls-11" x="88.72" y="71.59" width="18.15" height="12.02" transform="translate(6.73 162.99) rotate(-81.59)"/><rect class="cls-12" x="92" y="71.43" width="9.34" height="6.18" transform="translate(8.81 159.26) rotate(-81.59)"/><rect class="cls-12" x="94.82" y="79.13" width="2.03" height="7.49" transform="translate(-0.17 165.55) rotate(-81.59)"/><circle class="cls-8" cx="102.81" cy="15.77" r="6.94"/><circle class="cls-9" cx="102.81" cy="15.6" r="6.94"/><path class="cls-4" d="M97.09,20.75a.79.79,0,0,1,0-.54c.26-.55,1-.6,1.63-.57,1.43.07,3,.07,4.13-.83.46-.37,1-1.31,1.66-1.13s.85,1,1.48,1.15a3,3,0,0,0,1.38-.17,10,10,0,0,1,2,0,2.48,2.48,0,0,0,1.87-.62,3.44,3.44,0,0,0,.46-2.61,14.06,14.06,0,0,1,.24-3.51c.23-1.15.57-2.43-.06-3.42s-1.86-1.2-2.71-1.91S108,4.86,107.15,4.24c-1.06-.78-2.51-.66-3.82-.53L100.5,4a4.24,4.24,0,0,0-2.1.6C97.31,5.41,97.16,7,96.13,7.9a9.22,9.22,0,0,1-1.57.86,1.88,1.88,0,0,0-1.09,1.33,4.09,4.09,0,0,0,.35,1.44A6.81,6.81,0,0,1,93.34,15c-.31,1.15-.37,2.56.53,3.32.18.16.4.28.57.44a2.52,2.52,0,0,1,.55,2.3"/><ellipse class="cls-4" cx="103.38" cy="23.86" rx="0.17" ry="0.42"/><ellipse class="cls-4" cx="103.38" cy="25.59" rx="0.17" ry="0.42"/><path class="cls-9" d="M99.7,62.1a3,3,0,0,0,.36-1.42l-2-2.47S98.92,63,99.7,62.1Z"/><path class="cls-8" d="M101.93,102.88s-3.25,5-13.39,4.48c-9.56-.5-14.22-5.2-14-6.86s-.61-5.7,1.44-6.86a4.6,4.6,0,0,1,3.85.18,2.17,2.17,0,0,0,2.29-.41A6,6,0,0,1,88,92.28a2.11,2.11,0,0,0,1.16,0c1.24-.38,4.18-1,6.31.42a2.16,2.16,0,0,0,2.31.09l0,0c1-.61,5.64,5.15,5.64,5.15S103.64,102.33,101.93,102.88Z"/><path class="cls-10" d="M101.93,103s-3.25,5-13.39,4.48c-9.56-.5-14.22-5.2-14-6.86S73.92,95,76,93.8a4.6,4.6,0,0,1,3.85.18,2.17,2.17,0,0,0,2.29-.41A6,6,0,0,1,88,92.45a2.11,2.11,0,0,0,1.16,0c1.24-.38,4.18-1,6.31.42a2.16,2.16,0,0,0,2.31.09l0,0c1-.61,5.64,5.15,5.64,5.15S103.64,102.49,101.93,103Z"/><circle class="cls-8" cx="88.53" cy="98.4" r="6.61"/><circle class="cls-6" cx="88.53" cy="98.56" r="6.61"/><path class="cls-13" d="M86.64,92.85A2.76,2.76,0,0,0,84.92,94a4.58,4.58,0,0,1-.57,1.08c-.42.42-1.12.43-1.69.66s-.94,1.07-.39,1.33a1.24,1.24,0,0,0-1.08,1.09,3.25,3.25,0,0,0,.32,1.56,10.43,10.43,0,0,0,2.71,4.5c2.28,1.9,5.71,1.81,8.77,1.61a1.43,1.43,0,0,0,.72-.17,1.33,1.33,0,0,0,.43-1,23.17,23.17,0,0,1,1.64-4.51,5,5,0,0,0-.15-4.6C94.26,93.56,89,92.22,86.64,92.85Z"/><path class="cls-8" d="M99.53,65l-.2,1.57-2.38.33s-.26-.55-.62-1.4l3.17-.59Z"/><path class="cls-10" d="M102,99.67l1.38-1.61-.28-8.85a14.36,14.36,0,0,0,.28-1.94,11.85,11.85,0,0,0-.69-3A6.59,6.59,0,0,1,103.2,83c.33-.66-.47-2.16-.47-2.16S101.54,77,102,75a4.35,4.35,0,0,0-.12-3,16.89,16.89,0,0,1-.43-3c.05-.88-1.11-1.72-1.11-1.72l-.88-2.16L96,65.75v7.47s.22,7.14,0,8.52a5.06,5.06,0,0,0,.44,2.71,7.41,7.41,0,0,0-.05,2.82c.33.78,1,2.66,1,2.66a4.32,4.32,0,0,0,.11,2,1.89,1.89,0,0,1,0,1.52Z"/><g class="cls-14"><path d="M112,11.37a14.06,14.06,0,0,0-.25,3,14.12,14.12,0,0,1,.26-2.45,9.48,9.48,0,0,0,.29-2.27A13.78,13.78,0,0,1,112,11.37Z"/><path d="M94.45,18.23c-.18-.17-.39-.28-.57-.44a2.28,2.28,0,0,1-.73-1.66,2.54,2.54,0,0,0,.73,2.16c.18.16.4.28.57.44a2,2,0,0,1,.6,1.39A2.28,2.28,0,0,0,94.45,18.23Z"/><path d="M93.92,12a3.13,3.13,0,0,0-.09-1c-.1-.36-.27-.7-.33-1.06a1.1,1.1,0,0,1,0,.12,4.16,4.16,0,0,0,.35,1.44A2.82,2.82,0,0,1,93.92,12Z"/><path d="M111.3,17.5a2.46,2.46,0,0,1-1.87.62,9.88,9.88,0,0,0-2,0,2.92,2.92,0,0,1-1.38.17c-.63-.18-.88-1-1.48-1.15s-1.2.76-1.66,1.13c-1.12.9-2.69.89-4.13.83-.61,0-1.36,0-1.62.57a.77.77,0,0,0,0,.54l-2,.32A3.94,3.94,0,0,1,95,21l2.08-.33a.77.77,0,0,1,0-.54c.26-.55,1-.6,1.62-.57,1.43.07,3,.07,4.13-.83.46-.37,1-1.31,1.66-1.13s.85,1,1.48,1.15a3.06,3.06,0,0,0,1.38-.17,9.88,9.88,0,0,1,2,0A2.48,2.48,0,0,0,111.3,18a2.64,2.64,0,0,0,.5-1.95A2.17,2.17,0,0,1,111.3,17.5Z"/></g><g class="cls-14"><path d="M95.93,25.47a3.36,3.36,0,0,0-.61-.25,1.59,1.59,0,0,1-.8-.82,1.78,1.78,0,0,0,1,1.32,3.36,3.36,0,0,1,.61.25.92.92,0,0,1,.29.34A1.28,1.28,0,0,0,95.93,25.47Z"/><path d="M98.76,29.51c-.77.19-1.76.3-2.18-.35a1.14,1.14,0,0,0,.13.45c.36.64,1.24.62,2,.46Z"/><path d="M101.87,30a1.78,1.78,0,0,1-.91,1.7,4.34,4.34,0,0,1-2,.5.68.68,0,0,1-.32,0,.4.4,0,0,0,.49.53,4.23,4.23,0,0,0,2-.5,1.77,1.77,0,0,0,.91-1.71A1.88,1.88,0,0,0,101.87,30Z"/><path d="M102.6,24a2.73,2.73,0,0,1-.5,2.35c-.39.47-1,.86-1.07,1.46a1.38,1.38,0,0,0,.17.81,1.08,1.08,0,0,1,0-.31c.08-.61.68-1,1.07-1.46A2.79,2.79,0,0,0,102.6,24Z"/></g><g class="cls-14"><path d="M82.66,96c.56-.23,1.27-.24,1.69-.66a4.6,4.6,0,0,0,.57-1.08,2.73,2.73,0,0,1,1.72-1.14c2.32-.63,7.62.72,9,2.67a3.63,3.63,0,0,1,.63,2,3.75,3.75,0,0,0-.63-2.34c-1.38-2-6.68-3.3-9-2.67a2.74,2.74,0,0,0-1.72,1.14A4.6,4.6,0,0,1,84.35,95c-.42.42-1.13.43-1.69.66A1,1,0,0,0,82,96.7,1.14,1.14,0,0,1,82.66,96Z"/><path d="M81.2,98.39a1.23,1.23,0,0,1,1.08-1.09A.44.44,0,0,1,82,97a1.29,1.29,0,0,0-.83,1,1.75,1.75,0,0,0,0,.41A.28.28,0,0,0,81.2,98.39Z"/></g><rect class="cls-11" x="101.26" y="38.22" width="15.11" height="19.7"/><rect class="cls-8" x="101.26" y="38.22" width="15.11" height="19.7"/><rect class="cls-11" x="108.81" y="40.52" width="15.11" height="19.7" transform="matrix(0.99, -0.17, 0.17, 0.99, -6.85, 20.46)"/><rect class="cls-12" x="111.23" y="54.84" width="3.55" height="4.63" transform="translate(-8.05 19.98) rotate(-9.76)"/><rect class="cls-12" x="116.07" y="54.01" width="3.55" height="4.63" transform="translate(-7.84 20.79) rotate(-9.76)"/><rect class="cls-12" x="110.66" y="48.08" width="12.45" height="4.65" transform="translate(-6.84 20.51) rotate(-9.74)"/><rect class="cls-12" x="109.33" y="42.64" width="12.45" height="1.04" transform="translate(-5.64 20.18) rotate(-9.74)"/><rect class="cls-12" x="109.73" y="44.52" width="12.45" height="1.04" transform="translate(-5.95 20.27) rotate(-9.74)"/><path class="cls-9" d="M109.76,32.87s-6.94,7-3.46,8.74,5.76-5.89,5.76-5.89l.55-1.74Z"/><path class="cls-8" d="M109.15,32.26l-.86,1.9s4.23.59,5.12,1.87l-.52-3.35-.62-1.43Z"/><path class="cls-5" d="M109.32,32.09l-.86,1.9s4.23.59,5.12,1.87l-.52-3.35-.62-1.43Z"/><polygon class="cls-15" points="134.94 66.95 134.85 67.01 134.98 67.07 135.12 67.06 135.13 66.96 134.94 66.95"/><polygon class="cls-8" points="134.94 66.95 134.85 67.01 134.98 67.07 135.12 67.06 135.13 66.96 134.94 66.95"/><polygon class="cls-16" points="134.94 66.95 134.85 67.01 134.78 66.92 134.82 66.85 134.86 66.83 134.94 66.95"/><polygon class="cls-8" points="134.94 66.95 134.85 67.01 134.78 66.92 134.82 66.85 134.86 66.83 134.94 66.95"/><path class="cls-16" d="M151.29,55.48l-6.8-9.82a.81.81,0,0,0-1.12-.21h0l-15.15,10.4A.81.81,0,0,0,128,57l6.78,9.94Z"/><path class="cls-8" d="M151.29,55.48l-6.8-9.82a.81.81,0,0,0-1.12-.21h0l-15.15,10.4A.81.81,0,0,0,128,57l6.78,9.94Z"/><path class="cls-16" d="M151.45,55.5l-6.8-9.82a.81.81,0,0,0-1.13-.21h0L128.38,55.88a.81.81,0,0,0-.21,1.13L134.94,67Z"/><path class="cls-15" d="M157.13,57.44l-5.64-1.81L135,67.07l5.73,1.88a.87.87,0,0,0,.77-.12l15.7-11.08a.17.17,0,0,0,0-.31Z"/><path class="cls-8" d="M157.13,57.44l-5.64-1.81L135,67.07l5.73,1.88a.87.87,0,0,0,.77-.12l15.7-11.08a.17.17,0,0,0,0-.31Z"/><path class="cls-15" d="M157.1,57.33l-5.64-1.81L134.94,67l5.73,1.87a.86.86,0,0,0,.77-.11l15.7-11.08a.17.17,0,0,0,0-.3Z"/><g class="cls-14"><path d="M148.79,55.06l-.42-.6a.17.17,0,0,0-.23,0l-.62.41a.17.17,0,0,0,0,.22l.38.59a.17.17,0,0,0,.22,0l.65-.41A.17.17,0,0,0,148.79,55.06Z"/><path d="M147.67,55.83l-.42-.6a.17.17,0,0,0-.23,0l-.62.42a.17.17,0,0,0,0,.22l.38.59a.17.17,0,0,0,.22,0l.65-.41a.17.17,0,0,0,0-.23Z"/><path d="M146.5,56.64l-.42-.6a.17.17,0,0,0-.23,0l-.62.42a.17.17,0,0,0,0,.23l.38.59a.17.17,0,0,0,.22,0l.65-.41a.17.17,0,0,0,.05-.23Z"/><path d="M145.32,57.46l-.42-.6a.17.17,0,0,0-.22,0l-.62.42a.17.17,0,0,0,0,.22l.38.59a.17.17,0,0,0,.22,0l.65-.41a.17.17,0,0,0,0-.23Z"/><path d="M144.14,58.28l-.42-.6a.17.17,0,0,0-.23,0l-.62.42a.17.17,0,0,0,0,.22l.38.59a.17.17,0,0,0,.22,0l.65-.41a.17.17,0,0,0,0-.23Z"/><path d="M143,59.17l-.52-.74a.07.07,0,0,0-.1,0h0l-.76.51a.07.07,0,0,0,0,.1h0l.48.73a.08.08,0,0,0,.1,0l.8-.5a.08.08,0,0,0,0-.1Z"/><path d="M141.83,60l-.52-.74a.08.08,0,0,0-.11,0h0l-.76.51a.08.08,0,0,0,0,.1l.48.73a.07.07,0,0,0,.1,0h0l.8-.5a.07.07,0,0,0,0-.1Z"/><path d="M140.78,60.72l-.52-.73a.08.08,0,0,0-.1,0l-.76.51a.08.08,0,0,0,0,.11l.48.73a.08.08,0,0,0,.1,0l.8-.5a.08.08,0,0,0,0-.1Z"/><path d="M139.61,61.53l-.52-.74a.08.08,0,0,0-.1,0l-.76.51a.08.08,0,0,0,0,.11h0l.48.73a.08.08,0,0,0,.1,0l.8-.5a.08.08,0,0,0,0-.11Z"/><path d="M138.47,62.31l-.52-.74a.07.07,0,0,0-.1,0h0l-.76.51a.07.07,0,0,0,0,.1h0l.48.73a.08.08,0,0,0,.1,0l.8-.5a.08.08,0,0,0,0-.1Z"/><path d="M137.33,63.1l-.51-.74a.08.08,0,0,0-.1,0l-.76.51a.08.08,0,0,0,0,.11h0l.48.73a.08.08,0,0,0,.1,0l.8-.5a.08.08,0,0,0,0-.11Z"/><path d="M136.2,63.89l-.52-.74a.07.07,0,0,0-.1,0h0l-.76.51a.07.07,0,0,0,0,.1h0l.48.73a.08.08,0,0,0,.1,0l.8-.5a.08.08,0,0,0,0-.1Z"/><path d="M148,54l-.42-.6a.17.17,0,0,0-.23,0l-.61.42a.17.17,0,0,0,0,.22l.38.59a.17.17,0,0,0,.22,0l.65-.41A.17.17,0,0,0,148,54Z"/><path d="M146.4,51.62,146,51a.17.17,0,0,0-.22,0l-.62.42a.17.17,0,0,0,0,.22l.38.59a.17.17,0,0,0,.22,0l.65-.41A.17.17,0,0,0,146.4,51.62Z"/><path d="M146.92,54.75l-.42-.6a.17.17,0,0,0-.22,0l-.62.42a.17.17,0,0,0,0,.22l.38.59a.17.17,0,0,0,.22,0l.65-.41a.17.17,0,0,0,0-.23Z"/><path d="M145.76,55.56l-.42-.6a.17.17,0,0,0-.23,0l-.62.41a.17.17,0,0,0,0,.23l.38.59a.17.17,0,0,0,.22,0l.65-.41A.17.17,0,0,0,145.76,55.56Z"/><path d="M144.57,56.38l-.42-.6a.17.17,0,0,0-.23,0l-.62.42a.17.17,0,0,0,0,.22l.38.59a.17.17,0,0,0,.22,0l.65-.41a.17.17,0,0,0,.05-.23Z"/><path d="M145.32,52.43l-.42-.6a.17.17,0,0,0-.22,0l-.62.42a.17.17,0,0,0,0,.22l.38.59a.17.17,0,0,0,.22,0l.65-.41a.17.17,0,0,0,0-.23Z"/><path d="M144.15,53.24l-.42-.6a.17.17,0,0,0-.23,0l-.62.41a.17.17,0,0,0,0,.22l.38.59a.17.17,0,0,0,.22,0l.65-.41A.17.17,0,0,0,144.15,53.24Z"/><path d="M143,54.06l-.42-.6a.17.17,0,0,0-.22,0l-.62.42a.17.17,0,0,0,0,.22l.38.59a.17.17,0,0,0,.22,0l.65-.41a.17.17,0,0,0,.05-.23Z"/><path d="M143.39,57.2l-.42-.6a.17.17,0,0,0-.22,0l-.61.42a.17.17,0,0,0,0,.22l.38.59a.17.17,0,0,0,.22,0l.65-.41a.17.17,0,0,0,0-.23Z"/><path d="M142.21,58l-.42-.6a.17.17,0,0,0-.23,0l-.62.42a.17.17,0,0,0,0,.22l.38.59a.17.17,0,0,0,.22,0l.65-.41a.17.17,0,0,0,0-.23Z"/><path d="M141.08,58.91l-.52-.74a.07.07,0,0,0-.1,0h0l-.76.51a.07.07,0,0,0,0,.1h0l.48.73a.07.07,0,0,0,.1,0h0l.8-.5a.08.08,0,0,0,0-.1Z"/><path d="M140,59.64l-.52-.74a.08.08,0,0,0-.1,0l-.76.51a.08.08,0,0,0,0,.11l.48.73a.08.08,0,0,0,.1,0l.8-.5a.07.07,0,0,0,0-.1Z"/><path d="M138.86,60.45l-.52-.74a.08.08,0,0,0-.1,0l-.76.51a.07.07,0,0,0,0,.1h0l.48.73a.08.08,0,0,0,.1,0l.8-.5a.08.08,0,0,0,0-.11Z"/><path d="M137.72,61.23l-.52-.74a.07.07,0,0,0-.1,0h0l-.76.51a.07.07,0,0,0,0,.1h0l.48.73a.08.08,0,0,0,.1,0l.8-.5a.08.08,0,0,0,0-.11Z"/><path d="M145,54.44l-.42-.6a.17.17,0,0,0-.22,0l-.62.42a.17.17,0,0,0,0,.22l.38.59a.17.17,0,0,0,.22,0l.65-.41a.17.17,0,0,0,0-.23Z"/><path d="M143.79,55.26l-.42-.6a.17.17,0,0,0-.23,0l-.62.42a.17.17,0,0,0,0,.22l.38.59a.17.17,0,0,0,.22,0l.65-.41a.17.17,0,0,0,0-.23Z"/><path d="M142.61,56.07l-.42-.6a.17.17,0,0,0-.23,0l-.62.42a.17.17,0,0,0,0,.22l.38.59a.17.17,0,0,0,.22,0l.65-.41a.17.17,0,0,0,0-.23Z"/><path d="M141.43,56.89l-.42-.6a.17.17,0,0,0-.22,0l-.62.42a.17.17,0,0,0,0,.22l.38.6a.17.17,0,0,0,.22,0l.65-.41a.17.17,0,0,0,.05-.23Z"/><path d="M140.31,57.79l-.52-.74a.07.07,0,0,0-.1,0h0l-.76.51a.08.08,0,0,0,0,.1l.48.73a.07.07,0,0,0,.1,0h0l.8-.5a.08.08,0,0,0,0-.1Z"/><path d="M139.25,58.51l-.52-.74a.08.08,0,0,0-.11,0l-.76.51a.08.08,0,0,0,0,.11l.48.73a.08.08,0,0,0,.1,0l.8-.5a.08.08,0,0,0,0-.1Z"/><path d="M138.08,59.32l-.52-.74a.08.08,0,0,0-.11,0l-.76.51a.08.08,0,0,0,0,.11l.48.73a.08.08,0,0,0,.1,0l.8-.5a.07.07,0,0,0,0-.1Z"/><path d="M136.94,60.11l-.52-.74a.08.08,0,0,0-.11,0h0l-.76.51a.08.08,0,0,0,0,.1l.48.73a.07.07,0,0,0,.1,0h0l.8-.5a.07.07,0,0,0,0-.1Z"/><path d="M136.59,62l-.52-.74a.08.08,0,0,0-.1,0l-.76.51a.07.07,0,0,0,0,.1h0l.48.73a.08.08,0,0,0,.1,0l.8-.5a.08.08,0,0,0,0-.11Z"/><path d="M135.45,62.8l-.52-.74a.07.07,0,0,0-.1,0h0l-.76.51a.07.07,0,0,0,0,.1h0l.48.73a.08.08,0,0,0,.1,0l.8-.5a.08.08,0,0,0,0-.1Z"/><path d="M137.23,58.1l-.5-.7a.1.1,0,0,0-.14,0l-.72.48a.1.1,0,0,0,0,.14h0l.45.69a.1.1,0,0,0,.14,0h0l.76-.48a.1.1,0,0,0,0-.14Z"/><path d="M136.1,58.89l-.49-.7a.1.1,0,0,0-.14,0h0l-.72.49a.1.1,0,0,0,0,.14h0l.45.69a.1.1,0,0,0,.14,0l.76-.48a.1.1,0,0,0,0-.14Z"/><path d="M135,59.67l-.49-.7a.1.1,0,0,0-.14,0l-.72.48a.1.1,0,0,0,0,.14h0l.45.69a.1.1,0,0,0,.14,0h0l.76-.48a.1.1,0,0,0,0-.14Z"/><path d="M133.84,60.48l-.52-.74a.08.08,0,0,0-.1,0l-.76.51a.08.08,0,0,0,0,.11l.48.73a.08.08,0,0,0,.1,0l.8-.5a.07.07,0,0,0,0-.1Z"/><path d="M147.28,52.82l-.45-.64a.17.17,0,0,0-.23,0l-1.76,1.23a.17.17,0,0,0,0,.22l.42.65a.17.17,0,0,0,.23,0h0L147.24,53A.17.17,0,0,0,147.28,52.82Z"/><path d="M135.81,60.87l-.55-.78a.07.07,0,0,0-.1,0h0l-1.9,1.33a.07.07,0,0,0,0,.1l.52.8a.08.08,0,0,0,.11,0h0L135.79,61A.08.08,0,0,0,135.81,60.87Z"/><path d="M141.84,54.92l-.51-.74a.08.08,0,0,0-.1,0L137,57a.08.08,0,0,0,0,.1l.52.8a.08.08,0,0,0,.11,0h0l4.2-2.9a.08.08,0,0,0,0-.11Z"/></g><path class="cls-15" d="M148.9,55.08l-.42-.6a.17.17,0,0,0-.23,0l-.62.42a.17.17,0,0,0,0,.22l.38.59a.17.17,0,0,0,.22,0l.65-.41a.17.17,0,0,0,0-.23Z"/><path class="cls-15" d="M147.78,55.85l-.42-.6a.17.17,0,0,0-.22,0l-.62.42a.17.17,0,0,0,0,.22l.38.59a.17.17,0,0,0,.22,0l.65-.41a.17.17,0,0,0,0-.23Z"/><path class="cls-15" d="M146.62,56.66l-.42-.6a.17.17,0,0,0-.23,0l-.62.42a.17.17,0,0,0,0,.22l.38.59a.17.17,0,0,0,.22,0l.65-.41a.17.17,0,0,0,0-.23Z"/><path class="cls-15" d="M145.43,57.48l-.42-.6a.17.17,0,0,0-.22,0l-.62.42a.17.17,0,0,0,0,.23h0l.38.59a.17.17,0,0,0,.22,0l.65-.41a.17.17,0,0,0,.05-.23Z"/><path class="cls-15" d="M144.25,58.3l-.42-.6a.17.17,0,0,0-.22,0l-.62.42a.17.17,0,0,0,0,.22l.38.59a.17.17,0,0,0,.22,0l.65-.41a.17.17,0,0,0,0-.23Z"/><path class="cls-15" d="M143.12,59.19l-.52-.74a.07.07,0,0,0-.1,0h0l-.76.51a.07.07,0,0,0,0,.1h0l.48.73a.08.08,0,0,0,.1,0l.8-.5a.08.08,0,0,0,0-.1Z"/><path class="cls-15" d="M141.94,60l-.52-.74a.08.08,0,0,0-.11,0h0l-.76.51a.07.07,0,0,0,0,.1h0l.48.73a.07.07,0,0,0,.1,0h0l.8-.5a.08.08,0,0,0,0-.11Z"/><path class="cls-15" d="M140.89,60.74l-.52-.74a.08.08,0,0,0-.1,0l-.76.5a.08.08,0,0,0,0,.11l.48.73a.08.08,0,0,0,.1,0l.8-.5a.08.08,0,0,0,0-.11Z"/><path class="cls-15" d="M139.72,61.55l-.52-.74a.08.08,0,0,0-.1,0l-.76.51a.08.08,0,0,0,0,.11h0l.48.73a.08.08,0,0,0,.1,0l.8-.5a.08.08,0,0,0,0-.1Z"/><path class="cls-15" d="M138.58,62.33l-.52-.74a.07.07,0,0,0-.1,0h0l-.76.51a.07.07,0,0,0,0,.1h0l.48.73a.07.07,0,0,0,.1,0h0l.8-.5a.08.08,0,0,0,0-.1Z"/><path class="cls-15" d="M137.44,63.12l-.52-.74a.08.08,0,0,0-.1,0l-.76.51a.08.08,0,0,0,0,.11l.48.73a.08.08,0,0,0,.1,0l.8-.5a.08.08,0,0,0,0-.1Z"/><path class="cls-15" d="M136.31,63.91l-.52-.74a.07.07,0,0,0-.1,0h0l-.76.51a.07.07,0,0,0,0,.1h0l.48.73a.07.07,0,0,0,.1,0h0l.8-.5a.08.08,0,0,0,0-.1Z"/><path class="cls-15" d="M148.15,54l-.42-.6a.17.17,0,0,0-.22,0l-.62.42a.17.17,0,0,0,0,.22l.38.59a.17.17,0,0,0,.22,0l.65-.41a.17.17,0,0,0,0-.23Z"/><path class="cls-15" d="M146.51,51.64l-.42-.6a.17.17,0,0,0-.22,0l-.62.42a.17.17,0,0,0,0,.22l.38.59a.17.17,0,0,0,.22,0l.65-.41a.17.17,0,0,0,0-.23Z"/><path class="cls-15" d="M147,54.77l-.42-.6a.17.17,0,0,0-.22,0l-.62.42a.17.17,0,0,0,0,.22l.38.59a.17.17,0,0,0,.22,0L147,55A.17.17,0,0,0,147,54.77Z"/><path class="cls-15" d="M145.87,55.58l-.41-.6a.17.17,0,0,0-.22,0l-.62.42a.17.17,0,0,0,0,.23l.38.59a.17.17,0,0,0,.22,0l.65-.41a.17.17,0,0,0,0-.23Z"/><path class="cls-15" d="M144.68,56.4l-.42-.6a.17.17,0,0,0-.23,0l-.62.42a.17.17,0,0,0,0,.22l.38.59a.17.17,0,0,0,.22,0l.65-.41a.17.17,0,0,0,0-.23Z"/><path class="cls-15" d="M145.43,52.45l-.42-.6a.17.17,0,0,0-.22,0l-.62.42a.17.17,0,0,0,0,.22l.38.59a.17.17,0,0,0,.22,0l.65-.41A.17.17,0,0,0,145.43,52.45Z"/><path class="cls-15" d="M144.26,53.26l-.42-.6a.17.17,0,0,0-.22,0L143,53a.17.17,0,0,0,0,.22l.38.59a.17.17,0,0,0,.22,0l.65-.41a.17.17,0,0,0,0-.23Z"/><path class="cls-15" d="M143.07,54.08l-.42-.6a.17.17,0,0,0-.23,0l-.62.42a.17.17,0,0,0,0,.22l.38.59a.17.17,0,0,0,.22,0l.65-.41a.17.17,0,0,0,.05-.23Z"/><path class="cls-15" d="M143.5,57.22l-.42-.6a.17.17,0,0,0-.22,0l-.62.41a.17.17,0,0,0,0,.22l.38.59a.17.17,0,0,0,.22,0l.65-.41A.17.17,0,0,0,143.5,57.22Z"/><path class="cls-15" d="M142.32,58l-.42-.6a.17.17,0,0,0-.22,0l-.62.43a.17.17,0,0,0,0,.22l.38.59a.17.17,0,0,0,.22,0l.65-.41a.17.17,0,0,0,.05-.23Z"/><path class="cls-15" d="M141.19,58.93l-.52-.74a.07.07,0,0,0-.1,0h0l-.75.51a.07.07,0,0,0,0,.1h0l.48.73a.07.07,0,0,0,.1,0h0l.8-.5a.08.08,0,0,0,0-.11Z"/><path class="cls-15" d="M140.14,59.65l-.52-.74a.08.08,0,0,0-.11,0l-.76.51a.08.08,0,0,0,0,.11l.48.73a.08.08,0,0,0,.1,0l.8-.5a.07.07,0,0,0,0-.1Z"/><path class="cls-15" d="M139,60.47l-.52-.74a.08.08,0,0,0-.1,0l-.76.51a.08.08,0,0,0,0,.11l.48.73a.08.08,0,0,0,.1,0l.8-.5a.07.07,0,0,0,0-.1Z"/><path class="cls-15" d="M137.83,61.25l-.51-.74a.07.07,0,0,0-.1,0h0l-.76.51a.08.08,0,0,0,0,.1l.48.73a.08.08,0,0,0,.1,0l.8-.5a.07.07,0,0,0,0-.1Z"/><path class="cls-15" d="M145.09,54.46l-.42-.6a.17.17,0,0,0-.23,0l-.62.42a.17.17,0,0,0,0,.22l.38.59a.17.17,0,0,0,.22,0l.65-.41a.17.17,0,0,0,0-.23Z"/><path class="cls-15" d="M143.9,55.28l-.42-.6a.17.17,0,0,0-.22,0l-.62.42a.17.17,0,0,0,0,.22l.38.59a.17.17,0,0,0,.22,0l.65-.41a.17.17,0,0,0,0-.23Z"/><path class="cls-15" d="M142.72,56.09l-.42-.59a.17.17,0,0,0-.23,0l-.6.42a.17.17,0,0,0,0,.22l.38.59a.17.17,0,0,0,.22,0l.65-.41a.17.17,0,0,0,0-.23Z"/><path class="cls-15" d="M141.54,56.91l-.42-.6a.17.17,0,0,0-.22,0l-.62.42a.17.17,0,0,0,0,.22l.38.59a.17.17,0,0,0,.22,0l.65-.41a.17.17,0,0,0,0-.23Z"/><path class="cls-15" d="M140.41,57.81l-.52-.74a.08.08,0,0,0-.11,0h0l-.76.51a.08.08,0,0,0,0,.1l.48.73a.08.08,0,0,0,.11,0h0l.8-.5a.08.08,0,0,0,0-.1Z"/><path class="cls-15" d="M139.36,58.53l-.52-.74a.07.07,0,0,0-.1,0h0l-.76.51a.08.08,0,0,0,0,.11l.48.73a.08.08,0,0,0,.1,0l.8-.5a.08.08,0,0,0,0-.11Z"/><path class="cls-15" d="M138.19,59.34l-.52-.74a.08.08,0,0,0-.11,0l-.76.51a.08.08,0,0,0,0,.11l.48.73a.08.08,0,0,0,.1,0l.8-.5a.08.08,0,0,0,0-.1Z"/><path class="cls-15" d="M137.05,60.13l-.52-.74a.08.08,0,0,0-.11,0h0l-.76.51a.07.07,0,0,0,0,.1h0l.48.73a.07.07,0,0,0,.1,0h0l.8-.5a.08.08,0,0,0,0-.11Z"/><path class="cls-15" d="M136.7,62l-.52-.74a.08.08,0,0,0-.11,0l-.76.51a.08.08,0,0,0,0,.11l.48.73a.08.08,0,0,0,.1,0l.8-.5a.07.07,0,0,0,0-.1Z"/><path class="cls-15" d="M135.56,62.82l-.52-.74a.08.08,0,0,0-.11,0h0l-.76.51a.08.08,0,0,0,0,.1l.48.73a.08.08,0,0,0,.11,0h0l.8-.5a.07.07,0,0,0,0-.1Z"/><path class="cls-15" d="M137.34,58.12l-.49-.7a.1.1,0,0,0-.14,0l-.72.48a.1.1,0,0,0,0,.14l.45.69a.1.1,0,0,0,.14,0l.76-.48a.1.1,0,0,0,0-.14Z"/><path class="cls-15" d="M136.21,58.91l-.49-.7a.1.1,0,0,0-.14,0h0l-.72.48a.1.1,0,0,0,0,.14l.45.69a.1.1,0,0,0,.14,0l.76-.48a.1.1,0,0,0,0-.15Z"/><path class="cls-15" d="M135.07,59.69l-.5-.7a.1.1,0,0,0-.14,0l-.72.48a.1.1,0,0,0,0,.14l.45.69a.1.1,0,0,0,.14,0l.76-.48a.1.1,0,0,0,0-.14Z"/><path class="cls-15" d="M134,60.5l-.52-.74a.08.08,0,0,0-.11,0l-.76.51a.08.08,0,0,0,0,.11l.48.73a.08.08,0,0,0,.1,0l.8-.5a.08.08,0,0,0,0-.1Z"/><path class="cls-15" d="M147.39,52.84l-.44-.64a.17.17,0,0,0-.23,0L145,53.39a.17.17,0,0,0,0,.22l.43.65a.17.17,0,0,0,.23,0h0l1.78-1.25A.17.17,0,0,0,147.39,52.84Z"/><path class="cls-15" d="M135.92,60.89l-.55-.78a.07.07,0,0,0-.1,0h0l-1.9,1.33a.08.08,0,0,0,0,.1l.52.8a.08.08,0,0,0,.11,0h0L135.9,61A.08.08,0,0,0,135.92,60.89Z"/><path class="cls-15" d="M141.95,54.94l-.5-.74a.08.08,0,0,0-.11,0L137.13,57a.07.07,0,0,0,0,.1h0l.52.8a.08.08,0,0,0,.11,0h0l4.2-2.9A.08.08,0,0,0,141.95,54.94Z"/><path class="cls-8" d="M142,52.4l-2.24-3.25a.42.42,0,0,0-.57-.11L133,53.18a.42.42,0,0,0-.11.58h0l2.28,3.35a.42.42,0,0,0,.58.11h0L141.86,53a.41.41,0,0,0,.11-.57Z"/><path class="cls-17" d="M142.07,52.42l-2.24-3.25a.42.42,0,0,0-.57-.11L133.1,53.2a.42.42,0,0,0-.12.58h0l2.27,3.34a.42.42,0,0,0,.58.11h0L142,53a.41.41,0,0,0,.1-.58Z"/><path class="cls-12" d="M155.95,57.67l-4.75-1.58L136,66.67l4.71,1.54a.86.86,0,0,0,.76-.11L156,58a.17.17,0,0,0,0-.3Z"/></g></g></svg>