<svg xmlns="http://www.w3.org/2000/svg" xmlns:xlink="http://www.w3.org/1999/xlink" viewBox="0 0 200 114.81"><defs><style>.cls-1,.cls-10,.cls-2{fill:#3b8bff;}.cls-1{opacity:0.2;}.cls-1,.cls-10,.cls-13,.cls-14,.cls-6,.cls-7,.cls-8{isolation:isolate;}.cls-3{fill:#444053;}.cls-4{fill:#fff;}.cls-5{fill:#3f3d56;}.cls-6{fill:#fa5959;}.cls-6,.cls-7,.cls-8{opacity:0.8;}.cls-7{fill:#fed253;}.cls-8{fill:#8ccf4d;}.cls-10,.cls-9{opacity:0.2;}.cls-11{fill:url(#linear-gradient);}.cls-12{fill:#65617d;}.cls-13,.cls-21{opacity:0.05;}.cls-14,.cls-18{opacity:0.1;}.cls-15{fill:#ee8e9e;}.cls-16{fill:#e3e8f4;}.cls-17{fill:#565387;}.cls-19{fill:url(#linear-gradient-2);}.cls-20{fill:#2d293d;}.cls-22{fill:#ffcdd3;}.cls-23{fill:#dce6f2;}.cls-24{fill:#575988;}.cls-25{fill:#656691;}</style><linearGradient id="linear-gradient" x1="110.41" y1="-6530.06" x2="110.41" y2="-6491.59" gradientTransform="matrix(1, 0, 0, -1, -36.6, -6420.15)" gradientUnits="userSpaceOnUse"><stop offset="0" stop-color="gray" stop-opacity="0.25"/><stop offset="0.54" stop-color="gray" stop-opacity="0.12"/><stop offset="1" stop-color="gray" stop-opacity="0.1"/></linearGradient><linearGradient id="linear-gradient-2" x1="-1014.35" y1="-6443.03" x2="-1014.35" y2="-6362.91" gradientTransform="matrix(1, -0.04, -0.04, -1, 910.92, -6367.15)" xlink:href="#linear-gradient"/></defs><title>step1</title><g id="Layer_2" data-name="Layer 2"><g id="Layer_1-2" data-name="Layer 1"><path class="cls-1" d="M113.69,23.56c-12.82.1-25.14-2.8-36.91-6s-23.46-6.85-36-8.33c-8.08-1-17.29-.81-23.64,2.9C11,15.66,9.18,21.5,8.29,26.89c-.67,4.06-1,8.31,1.37,12,1.64,2.56,4.47,4.66,6.46,7.1,6.93,8.49,2.63,19.41-4.24,28.18-3.22,4.11-7,8.06-9.44,12.41s-3.48,9.26-1,13.52,7.89,7.26,13.79,9.32c12,4.19,25.94,5,39.54,5.29,30.1.59,60.28-1.2,90.38-3,11.14-.66,22.33-1.33,33.25-3.11,6.06-1,12.31-2.43,16.62-5.54,5.48-3.95,6.65-10.35,2.72-14.92-6.59-7.66-24.1-9-28.81-17.31-2.59-4.57-.28-9.85,3.08-14.3,7.24-9.54,19.63-18.12,19.92-28.74.2-7.29-6.16-14.36-15.71-17.47-10-3.26-23.7-2.32-30.77,3.92C138.12,20.64,125,23.48,113.69,23.56Z"/><path class="cls-2" d="M164.16,99.82a4.93,4.93,0,0,0-4.43-.43s.68,1.31,3.47,1.18Z"/><path class="cls-2" d="M164.43,99.9a4.93,4.93,0,0,1-1,4.34s-1-1.06,0-3.67Z"/><path class="cls-2" d="M167.21,97.43S167,95.23,162.09,96A2.37,2.37,0,0,0,163.81,98,2.86,2.86,0,0,0,167.21,97.43Z"/><path class="cls-2" d="M167.52,97.41s2.09.67.23,5.32a2.37,2.37,0,0,1-1.63-2.16A2.85,2.85,0,0,1,167.52,97.41Z"/><path class="cls-2" d="M170.32,94.3s.28-3.61-4.78-3.24c0,0-.36,3.26,3.89,4.11Z"/><path class="cls-2" d="M173.66,90.22s-.69-4.09-5.75-2.87c0,0,0,3.54,4.93,3.85Z"/><path class="cls-2" d="M176.11,86s-1.16-4-6.18-2.79c0,0,1.19,3.59,5.85,3.53Z"/><path class="cls-2" d="M178.44,81.89s-1.14-4.14-6-2.9c0,0,1.62,3.93,5.66,3.6Z"/><path class="cls-2" d="M179.94,78s-.87-5.06-5.39-3.94c0,0,1.31,4.6,5.06,4.67Z"/><path class="cls-2" d="M181.34,73.26s-1-5.1-5.62-3.62c0,0,1.79,4.82,5.29,4.32Z"/><path class="cls-2" d="M182.21,68.86s-1.67-5.1-5.2-5c0,0,1.7,5.39,4.89,6Z"/><path class="cls-2" d="M182.76,64.57s-1.81-6.14-4.69-5.67c0,0,1.26,4.69,4.58,6.62Z"/><path class="cls-2" d="M183.08,59.45s-1.7-5.12-4.53-5.32c0,0,1.15,5,4.47,6.65Z"/><path class="cls-2" d="M183.42,54.68s-2.12-5.12-4-5.24c0,0,.92,5,3.81,6.08Z"/><path class="cls-2" d="M183.65,50.23s-1.3-5.56-3.17-6c0,0,.26,4.55,3,6.44Z"/><path class="cls-2" d="M184.35,44.42S183,40,181.46,39.31c0,0,.3,5.23,2.54,6.19Z"/><path class="cls-2" d="M184.94,40.6l.28-7.82s-2.83,5.9-.49,9.2Z"/><path class="cls-2" d="M187.13,32.83s2-5.71,2.54-6c0,0-4,3.7-3.61,8.47Z"/><path class="cls-2" d="M170.46,94.27s3.59-.47,3.48,4.61c0,0-3.25.53-4.3-3.67Z"/><path class="cls-2" d="M173.84,90.08s4.15,0,3.81,5.18c0,0-3.48.62-4.63-4.2Z"/><path class="cls-2" d="M176.15,86.34s3.77-1.77,6.18,2.79c0,0-3.48,1.47-6.51-2.06Z"/><path class="cls-2" d="M178.52,81.93s3.86-1.88,6.12,2.57c0,0-4,1.38-6.44-1.87Z"/><path class="cls-2" d="M179.88,78.09s3.71-3.55,6.68,0c0,0-3.79,2.92-6.85.75Z"/><path class="cls-2" d="M181.13,73.13s3.74-3.62,6.68.17c0,0-4.19,3-6.81.59Z"/><path class="cls-2" d="M181.83,68.71s2.88-4.53,6.26-3.52c0,0-3,4.8-6.23,4.58Z"/><path class="cls-2" d="M182.68,64.54s2.9-5.71,5.64-4.71c0,0-2.09,4.38-5.71,5.67Z"/><path class="cls-2" d="M182.87,59.15s3-4.49,5.77-3.94c0,0-2.44,4.55-6.06,5.24Z"/><path class="cls-2" d="M183.1,54.57s2.31-5,4.19-5.07c0,0-1.11,5-4,5.93Z"/><path class="cls-2" d="M183.56,50.12s2.57-5.1,4.5-5.11c0,0-1.31,4.36-4.41,5.56Z"/><path class="cls-2" d="M183.95,44.73s1.92-4.22,3.51-4.7c0,0-1,5.15-3.3,5.82Z"/><path class="cls-2" d="M185.17,40.45l4.29-6.54s-1.1,6.45-4.92,7.79Z"/><path class="cls-2" d="M188.12,33.36s5-3.44,5.17-4c0,0-2.54,4.82-7.25,5.67Z"/><path class="cls-2" d="M188.42,31.81s5.73-5.5,7.19-5.5a9.35,9.35,0,0,0-7.33,5.21Z"/><path class="cls-3" d="M184,45.55l.21,0c1.08-8.43,2.65-13.41,4.42-14l-.07-.2C186.68,32,185.1,36.92,184,45.55Z"/><path class="cls-3" d="M182.42,65.69l.32,0c.07-.79.12-1.59.15-2.39.3-7,.77-13.38,1.38-18.18l-.18-.23c-.61,4.81-1.21,11.41-1.51,18.39C182.54,64.11,182.48,64.91,182.42,65.69Z"/><path class="cls-3" d="M158.28,103.83a41,41,0,0,0,11.37-8.41A45.74,45.74,0,0,0,178,83.64a53.43,53.43,0,0,0,4.83-18.56l-.33.15a48.45,48.45,0,0,1-13.1,29.87,40.62,40.62,0,0,1-11.24,8.33Z"/><path class="cls-4" d="M171.57,5.65V99.58c0,2.79-2.69,5.07-6,5.07H38.1c-3.33,0-6-2.27-6-5.07V5.65A6.07,6.07,0,0,1,38.1,0L165.54.31C168.87.31,171.57,2.86,171.57,5.65Z"/><path class="cls-5" d="M171.57,5.68V10H32.08V5.68A5.68,5.68,0,0,1,37.76,0H165.89A5.68,5.68,0,0,1,171.57,5.68Z"/><circle class="cls-6" cx="38.84" cy="5.01" r="2.01"/><circle class="cls-7" cx="44.68" cy="5.01" r="2.01"/><circle class="cls-8" cx="50.52" cy="5.01" r="2.01"/><g class="cls-9"><path class="cls-2" d="M114.23,34.39V44.54c0,.3-.57.54-1.27.54H86.2c-.7,0-1.27-.24-1.27-.54V34.39c0-.3.57-.61,1.27-.61H113C113.66,33.78,114.23,34.09,114.23,34.39Z"/></g><rect class="cls-2" x="97.79" y="37.4" width="13.94" height="0.49"/><path class="cls-10" d="M90.73,36.32a3.31,3.31,0,0,0-1.82,6.06v-.22a.75.75,0,0,1,.66-.74,1.31,1.31,0,0,0,2.3,0,.75.75,0,0,1,.66.74v.23a3.31,3.31,0,0,0-1.8-6.08ZM92,40.51a1.31,1.31,0,0,1-2.61,0,1.44,1.44,0,0,1,.71-1.9l0,0a.45.45,0,0,1-.07-.24.44.44,0,0,1,.44-.44h0a.44.44,0,0,0-.41.43.44.44,0,0,0,.06.22h0a.47.47,0,0,1,0-.09.43.43,0,0,1,.08-.25.43.43,0,0,1,.42-.31h0a.43.43,0,0,0-.33.2.42.42,0,0,1,.24-.07.44.44,0,0,1,.44.44.45.45,0,0,1,0,0,1.44,1.44,0,0,1,1.07,1.39A1.46,1.46,0,0,1,92,40.51Z"/><rect class="cls-10" x="97.79" y="38.6" width="13.94" height="0.49"/><rect class="cls-10" x="97.79" y="39.8" width="13.94" height="0.49"/><rect class="cls-10" x="97.79" y="41" width="13.94" height="0.49"/><g class="cls-9"><path class="cls-2" d="M82.81,54.26V64.41c0,.3-.57.54-1.27.54H54.78c-.7,0-1.27-.25-1.27-.54V54.26c0-.3.57-.61,1.27-.61H81.54C82.24,53.65,82.81,54,82.81,54.26Z"/></g><rect class="cls-2" x="66.37" y="57.27" width="13.94" height="0.49"/><path class="cls-10" d="M59.31,56.19a3.31,3.31,0,0,0-1.82,6.07V62a.75.75,0,0,1,.66-.74,1.31,1.31,0,0,0,2.3,0,.75.75,0,0,1,.66.74v.24a3.31,3.31,0,0,0-1.8-6.08Zm1.3,4.19a1.31,1.31,0,0,1-2.61,0,1.44,1.44,0,0,1,.75-1.92.43.43,0,0,1-.07-.24.44.44,0,0,1,.44-.44h0a.44.44,0,0,0-.35.65h0a.44.44,0,0,1,0-.09.64.64,0,0,1,.5-.56h0A.44.44,0,0,0,59,58a.43.43,0,0,1,.24-.07.44.44,0,0,1,.44.44h0a.44.44,0,0,1,0,0,1.44,1.44,0,0,1,.93,2Z"/><rect class="cls-10" x="66.37" y="58.47" width="13.94" height="0.49"/><rect class="cls-10" x="66.37" y="59.67" width="13.94" height="0.49"/><rect class="cls-10" x="66.37" y="60.87" width="13.94" height="0.49"/><g class="cls-9"><path class="cls-2" d="M75.58,22.08V32.23c0,.3-.57.54-1.27.54H47.55c-.7,0-1.27-.25-1.27-.54V22.08c0-.3.57-.61,1.27-.61H74.32C75,21.47,75.58,21.78,75.58,22.08Z"/></g><rect class="cls-2" x="59.14" y="25.1" width="13.94" height="0.49"/><rect class="cls-10" x="59.14" y="26.3" width="13.94" height="0.49"/><rect class="cls-10" x="59.14" y="27.5" width="13.94" height="0.49"/><rect class="cls-10" x="59.14" y="28.7" width="13.94" height="0.49"/><path class="cls-10" d="M52.08,24a3.31,3.31,0,0,0-1.81,6.07v-.56a.75.75,0,0,1,.66-.74,1.31,1.31,0,0,0,2.3,0,.75.75,0,0,1,.66.74v.57A3.31,3.31,0,0,0,52.08,24Zm1.45,4,0,.06a.18.18,0,0,1-.1,0h-.07a1.31,1.31,0,0,1-2.57-.37,1.29,1.29,0,0,1,.17-.65h0a.44.44,0,0,1,0-.61.87.87,0,0,1,.27-.1,1.21,1.21,0,0,0,.69-.53,1.45,1.45,0,0,1,0,.2.29.29,0,0,1,.41,0h0l.12.13a.36.36,0,0,0,.15,0l.33,0a.63.63,0,0,1,.38.14.59.59,0,0,1,.13.22,3.3,3.3,0,0,1,.22.7,1.12,1.12,0,0,1-.1.71Z"/><g class="cls-9"><path class="cls-2" d="M121.54,70.09V80.23c0,.3-.57.54-1.27.54H93.51c-.7,0-1.27-.24-1.27-.54V70.09c0-.3.57-.61,1.27-.61h26.77C121,69.47,121.54,69.77,121.54,70.09Z"/></g><rect class="cls-2" x="105.1" y="73.09" width="13.94" height="0.49"/><rect class="cls-10" x="105.1" y="74.29" width="13.94" height="0.49"/><rect class="cls-10" x="105.1" y="75.49" width="13.94" height="0.49"/><rect class="cls-10" x="105.1" y="76.69" width="13.94" height="0.49"/><path class="cls-10" d="M98,72a3.31,3.31,0,0,0-1.82,6.06v-.56a.75.75,0,0,1,.66-.74,1.31,1.31,0,0,0,2.3,0,.75.75,0,0,1,.66.74v.57A3.31,3.31,0,0,0,98,72Zm1.45,4,0,.06a.18.18,0,0,1-.1,0h-.07a1.31,1.31,0,1,1-2.4-1h0a.44.44,0,0,1,0-.61.87.87,0,0,1,.27-.1,1.21,1.21,0,0,0,.69-.53,1.45,1.45,0,0,1,0,.2.29.29,0,0,1,.41,0h0a.75.75,0,0,0,.12.13.35.35,0,0,0,.15,0l.33,0a.62.62,0,0,1,.38.14.59.59,0,0,1,.13.22,3.27,3.27,0,0,1,.22.7,1.11,1.11,0,0,1-.1.7Z"/><path class="cls-11" d="M90,103.33l-4-5.76a5.42,5.42,0,0,0-.34-1.76c-.26-.33-.06-1.07-.06-1.07s.28-.41,0-.45,0-.95,0-.95l0-1.45a5.1,5.1,0,0,0,0-1.72.54.54,0,0,1,0-.59s.22-.8,0-1a6,6,0,0,1-.11-2.43,3.7,3.7,0,0,0-.39-1.69c0-.15-1.47-1.59-1.47-1.72a3.67,3.67,0,0,0-1.49-.82c-.56-.15-.84-.26-.82-.33s-.87-.36-.87-.36a1.77,1.77,0,0,1-1.08-.44,2.26,2.26,0,0,0-1.23-.51l0-.08,0-.08c.07-.12.13-.24.19-.36l.05-.11a1.59,1.59,0,0,0,.92-.28,1.24,1.24,0,0,0,.44-.89,2,2,0,0,0-.22-1,1.68,1.68,0,0,1-.32-1c0-.16.13-.29.18-.45a1.18,1.18,0,0,0-.13-.88c-.14-.27-.34-.51-.49-.77a3,3,0,0,1-.39-1.09,1.67,1.67,0,0,0-.14-.59,1.13,1.13,0,0,0-.33-.33,3.26,3.26,0,0,0-2-.61,9.67,9.67,0,0,1-1.51.09,5.54,5.54,0,0,1-.88-.23,2.29,2.29,0,0,0-1.88.1c-.54.36-.76,1.06-1.13,1.61a12.7,12.7,0,0,0-1,1.41v0a1.79,1.79,0,0,0-.14.38,2.67,2.67,0,0,0,.08,1.23.86.86,0,0,0,.3.54,1.74,1.74,0,0,0,.65.13l0,.11a4.17,4.17,0,0,0-.09.88,4.25,4.25,0,0,0,3,4.07v.11a3,3,0,0,1,0,.32h0a6.44,6.44,0,0,0-2.37-.12c-.5.26-1.49.46-1.63.61s-.52,0-.86.91S68,85.59,67.61,86s-.65.69-.67,1,.06.36-.11.46-.41.48-.34.63a.53.53,0,0,1-.2.56.62.62,0,0,0-.26.56s-.11.41-.37.5-.43.7-.43.7l-.84,1-1.67-1.85a.7.7,0,0,0-1-.05l-.82.73a1.62,1.62,0,0,0-.82.49,2.13,2.13,0,0,0-.42.63l-.45.4A1.14,1.14,0,0,0,59.09,93l1.07,1.18h0a1.87,1.87,0,0,0-1,.42c-1.6,1.41-1.62,2.71-1.37,3.3A25,25,0,0,0,60,100.77a9.05,9.05,0,0,0,2.87,2.34h0l-.1.12,0,0,0,0,0,0,0,0,0,.05,0,0,0,.07v0l0,.1,0,0a.2.2,0,0,1,0,.07l0,0a.31.31,0,0,1,0,.07l0,.05,0,.08a.24.24,0,0,1,0,0l0,.13a.45.45,0,0,0,0,.05.82.82,0,0,0,0,.1.18.18,0,0,1,0,.07.44.44,0,0,0,0,.09.46.46,0,0,0,0,.07V105a10.21,10.21,0,0,0,.09,2.48,1.2,1.2,0,0,0,1,.74,1.3,1.3,0,0,0,.32,0,18.35,18.35,0,0,1,4-.41,6.9,6.9,0,0,0,2-.16l.17,0,.12.36.36-.1.31.18.2.11c.36,1.24,1.86.82,1.86.82l.35.2,3.59.09a7.21,7.21,0,0,0,1.27.61l.18,0a8,8,0,0,0,1,0c.28,0,.49,0,.49,0s0-1-.09-2.06a29.25,29.25,0,0,0,3.32-.27,4.09,4.09,0,0,0,3-3,8.5,8.5,0,0,1,.18,1.15,8.42,8.42,0,0,0,.3,1,3.34,3.34,0,0,0,.41.74c1.41-.48.56-1.2.26-1.52s.2-.57.2-.57.39-.26.36-.5-.06-.5,1.21-.48S90,103.33,90,103.33ZM70.36,91.49A8.62,8.62,0,0,0,70.71,93a2,2,0,0,1,0,.61c-.75-.06-1.53-.09-1.53-.09a.18.18,0,0,1,0,.1l-.12,0-.17,0,1.38-2.1Zm-2.73,4.35,1.3.21.11,0a4.62,4.62,0,0,0-.07.61s0,0,.07.07a2,2,0,0,0,0,.31,3.58,3.58,0,0,0,1.32.51l0,.11h0c-.61-.32-1.58-.47-1.69-.71a25.12,25.12,0,0,0-3.4-1.39l-.33-.16.87.16.24,0a13,13,0,0,0,1.64.3Z"/><path class="cls-12" d="M85.75,104.14s-.52,3.11-3.13,3.57-11.34.36-11.34.36-5-.72-6.79-4.93-3-5.89-1.42-6S73,100,73.43,100,86.21,93.62,85.75,104.14Z"/><path class="cls-13" d="M85.75,104.14s-.52,3.11-3.13,3.57-11.34.36-11.34.36-5-.72-6.79-4.93-3-5.89-1.42-6S73,100,73.43,100,86.21,93.62,85.75,104.14Z"/><path class="cls-5" d="M62.34,107.59a1.19,1.19,0,0,0,1,.74,1.27,1.27,0,0,0,.32,0,18.81,18.81,0,0,1,4-.4,6.91,6.91,0,0,0,2-.16l.72-.15s-.74-2.45-.83-2.52-3.32-2-3.32-2l-2.55-.18h0a1.34,1.34,0,0,0-.86.51,2.71,2.71,0,0,0-.52,1.74A10,10,0,0,0,62.34,107.59Z"/><path class="cls-13" d="M62.34,107.59a1.19,1.19,0,0,0,1,.74,10.45,10.45,0,0,1-.69-1v-1.79a3.15,3.15,0,0,1,1-2.66h0s-1.34.09-1.38,2.25A10.83,10.83,0,0,0,62.34,107.59Z"/><path class="cls-14" d="M73.41,103.69l2.38-1.86,3.74-3.68-1,0c-.15.1-.58.4-.59.77s-1,0-1.53.29-3,3.49-3.48,3.47-.79-.22-1,.09v0Z"/><path class="cls-14" d="M62.77,103.39l.26.12a16.16,16.16,0,0,1,4.2,2.69,17.26,17.26,0,0,0,2.39,1.55l.72-.15s-.74-2.45-.83-2.52-3.32-2-3.32-2l-2.55-.18h0A1.34,1.34,0,0,0,62.77,103.39Z"/><path class="cls-12" d="M57.76,98.12A24.57,24.57,0,0,0,60,101a8.77,8.77,0,0,0,3.08,2.43,16.12,16.12,0,0,1,4.2,2.69,20.44,20.44,0,0,0,2.56,1.65l.23.13.5.29.27.15,1.23-1c.61-.5,1.21-1,1.22-1s.26-.68.2-.72-.15-.27-.39-.57a2.61,2.61,0,0,0-.94-.78A2.66,2.66,0,0,1,71,103l-.2-.14a2.46,2.46,0,0,0-.83-.36c-.41-.05-1.16-.88-1.16-.88a2.27,2.27,0,0,1-.72-.76,26.44,26.44,0,0,0-3.31-2.54l6.93,4.44,1.66,1.06,2.38-1.86,3.74-3.68-1.23-.05c-1.81-.08-5-.2-5.45-.11a3.08,3.08,0,0,1-1,.07,3.55,3.55,0,0,1-1.53-.28c-.61-.32-1.57-.47-1.68-.71a24.87,24.87,0,0,0-3.37-1.38s-4.44-2.36-6-1S57.52,97.53,57.76,98.12Z"/><path class="cls-15" d="M72.07,84.6l.57,1.9.74,4.27,2.71.18.78-1.3.78-1.3s.49-1.73.84-3.4c.31-1.48.51-2.91.18-3.07s-.49-.64-.62-1.17l0-.2a10.42,10.42,0,0,1-.18-1.37s-5.67-.3-4.88,2a3.69,3.69,0,0,1,.21,1.24,3,3,0,0,1,0,.32A2.65,2.65,0,0,1,72.07,84.6Z"/><path class="cls-16" d="M70.89,84.29l.2,3.22.46,2.74.52,1.27.46,7S77,99,78,98.47a.47.47,0,0,0,.2-.15c1.3-2,.88-7.67.88-7.67l.5-3.69L79.29,85l-.8-.09-.62-.07-.34.44C77,86.06,76,87.47,76,88.06c.09.81-.11,1.63-.42,1.77s-.57.35-.63.13a1,1,0,0,1-.06-.59,4.78,4.78,0,0,0-.24-1.27,5.35,5.35,0,0,1-.46-1.6,1.88,1.88,0,0,0-.2-1.16c-.15-.13-.35-.26-.18-.85s-.72-1.74-.72-1.74Z"/><path class="cls-14" d="M76.75,92.33l.18,5.51,1.06.59a.46.46,0,0,0,.2-.15c1.3-2,.88-7.67.88-7.67l.5-3.68L79.24,85l-.8-.09c.31-1.48.51-2.91.18-3.07s-.5-.64-.62-1.17h0l-.58,3.89s0,.35.07.71a2,2,0,0,1,0,.69,2.29,2.29,0,0,0,0,.92,7.48,7.48,0,0,0-.58,2.72C76.71,91,76.75,92.33,76.75,92.33Z"/><path class="cls-5" d="M78,80.59s.93.12,1.22.5a1.74,1.74,0,0,0,1.07.44,4.22,4.22,0,0,1,.86.36c0,.07.26.18.81.33a3.65,3.65,0,0,1,1.47.81c0,.13,1.45,1.56,1.45,1.71a3.69,3.69,0,0,1,.39,1.68,6,6,0,0,0,.11,2.41c.22.2,0,1,0,1a.54.54,0,0,0,0,.59,5.12,5.12,0,0,1,0,1.71l0,1.44s-.2.91,0,.94,0,.44,0,.44-.2.74.05,1.07a5.43,5.43,0,0,1,.33,1.75l3.94,5.73s.05,1-1.2,1-1.23.24-1.2.48-.35.5-.35.5-.5.26-.2.57,1.14,1-.26,1.51a3.33,3.33,0,0,1-.41-.74,8.58,8.58,0,0,1-.3-1s-.13-1.4-.39-1.58-.22-1.07-.22-1.07.36-.72-.15-1l-8-4.44-.18-5.51s-.13-4.07.65-5.44a2.29,2.29,0,0,1,0-.92,4.79,4.79,0,0,0,0-1.4Z"/><path class="cls-14" d="M73.18,82.81a6.44,6.44,0,0,0-2.36-.13c-.5.26-1.47.46-1.62.61s-.52,0-.85.91-.36,1.75-.79,2.15-.65.68-.66,1,.06.36-.11.46-.4.48-.33.63,3.83,3.39,3.83,3.39a8.59,8.59,0,0,0,.35,1.55c.17.31-.18,4.62-.55,4.92s2.49.27,2.49.27.13-2.83.24-3a29.34,29.34,0,0,0-.07-3.17A18.07,18.07,0,0,1,73,89.13a14.9,14.9,0,0,0,.21-2.95,6.09,6.09,0,0,1,.47-1.68C73.91,84.19,73.18,82.81,73.18,82.81Z"/><path class="cls-5" d="M73.13,82.75a6.44,6.44,0,0,0-2.36-.12c-.5.26-1.47.46-1.62.61s-.52,0-.85.91-.36,1.75-.79,2.15-.65.68-.66,1,.05.36-.11.46-.41.48-.33.63,3.83,3.39,3.83,3.39a8.55,8.55,0,0,0,.35,1.55c.17.31-.18,4.62-.55,4.92s2.49.27,2.49.27.13-2.83.24-3a29.35,29.35,0,0,0-.07-3.17,18.07,18.07,0,0,1,.22-3.26,14.93,14.93,0,0,0,.21-2.95,6.08,6.08,0,0,1,.47-1.68C73.85,84.14,73.13,82.75,73.13,82.75Z"/><path class="cls-14" d="M72.93,81.19a3.69,3.69,0,0,1,.21,1.24A4.22,4.22,0,0,0,78,80.52a10.42,10.42,0,0,1-.18-1.37S72.14,78.85,72.93,81.19Z"/><path class="cls-15" d="M70.14,78.28a4.21,4.21,0,1,0,.09-.88A4.21,4.21,0,0,0,70.14,78.28Z"/><path class="cls-5" d="M67.43,88l-1,.31a.52.52,0,0,1-.2.54.61.61,0,0,0-.26.54s-.11.41-.36.5-.42.7-.42.7l-.85,1s-.31.26-.26.39-.33.16-.33.16l.2,3.28,1.75.33,1.09-.11.88-.33.77-.46.35-.91,1.55-2.36Z"/><path class="cls-15" d="M64,92.44S61.74,89.2,60.06,91s.68,4.58,1.23,4.49,3.19-.24,3.19-.24Z"/><path class="cls-14" d="M70.23,77.41a.51.51,0,0,1,.31.14c.14.15.15.42.34.51a.39.39,0,0,0,.22,0c.49-.07.77-.62,1.24-.78a1.27,1.27,0,0,1,.82.07.63.63,0,0,1,.27.18c.16.2,0,.5.12.75s.51.48.86.52a1.5,1.5,0,0,1,1,.34.91.91,0,0,1,.18.71.57.57,0,0,0,0,.26c.1.28.58.24.7,0s.06-.29.28-.33a.91.91,0,0,1,.45.08,3.28,3.28,0,0,0,1.17.18,4.22,4.22,0,1,0-7.94-2.67Z"/><path class="cls-5" d="M75.57,80a.57.57,0,0,1,0-.26.91.91,0,0,0-.18-.71,1.51,1.51,0,0,0-1-.34c-.35,0-.76-.18-.86-.52s0-.54-.12-.75a.61.61,0,0,0-.27-.18,1.27,1.27,0,0,0-.82-.07c-.47.15-.75.7-1.24.78a.39.39,0,0,1-.22,0c-.18-.09-.19-.36-.34-.51s-.65-.09-.92-.26a.84.84,0,0,1-.3-.54,2.64,2.64,0,0,1-.08-1.22c.16-.68.77-1.15,1.16-1.74s.57-1.23,1.12-1.6a2.23,2.23,0,0,1,1.87-.1,5.23,5.23,0,0,0,.88.23,9.71,9.71,0,0,0,1.5-.09,3.21,3.21,0,0,1,2,.6A1.09,1.09,0,0,1,78,73a1.65,1.65,0,0,1,.14.59,3,3,0,0,0,.39,1.08c.16.26.35.49.49.76a1.17,1.17,0,0,1,.13.87c0,.15-.14.29-.18.44a1.66,1.66,0,0,0,.32,1,2,2,0,0,1,.22,1,1.24,1.24,0,0,1-.44.88,1.58,1.58,0,0,1-.93.28A3.32,3.32,0,0,1,77,79.78a.91.91,0,0,0-.45-.08c-.22,0-.18.18-.28.33S75.67,80.3,75.57,80Z"/><path class="cls-14" d="M73.3,103.8l2.38-1.86,3.74-3.68-1.23-.05a.8.8,0,0,0-.26.5c0,.45-1,0-1.53.29s-3,3.49-3.48,3.46-.79-.22-1,.09v0a.52.52,0,0,1-.28.17Z"/><path class="cls-12" d="M68.51,103.68l1.19,3.81.18.6.57-.16,1.25-.34L77.29,106a4.84,4.84,0,0,0,2-.54,6.08,6.08,0,0,1,3.47-.76c.74.07,1.56-.25,2.24-1.51,0,0,1.55-4.57-2.36-5.87s-4.09.69-4.09.69l-.05,0c-.15.1-.58.4-.59.77s-1,0-1.53.29-3,3.5-3.47,3.48-.79-.22-1,.09v0c-.14.18-.54.23-.82.24h-.29l-.28.08Z"/><path class="cls-14" d="M68.82,96.27l.57.09L69.64,94s-.26,0-.59-.12A12.4,12.4,0,0,1,68.82,96.27Z"/><path class="cls-14" d="M83.88,85.17s1.71-.5,1.29,4.36a13.58,13.58,0,0,1-3.59,7.94s-3.65,1.6-5.29,1.34-2.83-.31-2.83-.31a4.19,4.19,0,0,0-1.66-.44,7.8,7.8,0,0,1-2.9-.79c0-.18.48-2.89.26-3.09a16.94,16.94,0,0,1,2.84.29c.26.19.63.05.91,0a3.15,3.15,0,0,1,2.8-.14,1.68,1.68,0,0,0,.79-.09.79.79,0,0,1,.58,0,1.58,1.58,0,0,0,.4-.2c.06-.07.5,0,.5,0a.2.2,0,0,0,.26-.09v0a1.21,1.21,0,0,1,.26-.4s.5-2.8,1.44-3.85a.6.6,0,0,0,.2-.53C80.07,88.78,81.67,84.58,83.88,85.17Z"/><path class="cls-14" d="M70.54,103.07,73,106l0,0c0-.05.26-.68.2-.72a3.38,3.38,0,0,0-1.33-1.34,2.52,2.52,0,0,1-1-.95Z"/><path class="cls-14" d="M70.56,108.16l.27.15,1.23-1c.61-.5,1.21-1,1.22-1s.26-.68.2-.72-.15-.27-.39-.57c-1.65-.46-.6.68-.46.74a1.68,1.68,0,0,0-2.12,1.72A2.61,2.61,0,0,0,70.56,108.16Z"/><path class="cls-5" d="M72.6,109.09l.35.2,3.55.09a7.18,7.18,0,0,0,1.26.61l.18,0a8.29,8.29,0,0,0,1,0c.27,0,.48,0,.48,0s-.17-4.48-.3-5c-.06-.23-.36-.18-.65-.06a4.21,4.21,0,0,0-.64.32,11.33,11.33,0,0,0-1.75.28c-.24.13-.92-.07-1.34,0s-1.18-.5-1.18-.5c-2.06-.68-.91.59-.76.65a1.68,1.68,0,0,0-2.12,1.72A1.42,1.42,0,0,0,72.6,109.09Z"/><path class="cls-17" d="M77.74,107.36A6,6,0,0,0,78.93,110c.27,0,.48,0,.48,0s-.17-4.48-.3-5c-.06-.23-.36-.18-.65-.06A5.18,5.18,0,0,0,77.74,107.36Z"/><path class="cls-14" d="M77.74,107.36A6,6,0,0,0,78.93,110c.27,0,.48,0,.48,0s-.17-4.48-.3-5c-.06-.23-.36-.18-.65-.06A5.18,5.18,0,0,0,77.74,107.36Z"/><path class="cls-13" d="M77.13,107.48a10.56,10.56,0,0,0,.63,2.51l.18,0a8.29,8.29,0,0,0,1,0c.27,0,.48,0,.48,0s-.17-4.48-.3-5c-.06-.23-.36-.18-.65-.06a4.21,4.21,0,0,0-.64.32A2.47,2.47,0,0,0,77.13,107.48Z"/><path class="cls-14" d="M64.87,98.4A7.35,7.35,0,0,1,68.13,101Z"/><g class="cls-18"><path d="M79.22,76.3v0l-.06.15A1.09,1.09,0,0,1,79.22,76.3Z"/><path d="M69.23,75.41a1.66,1.66,0,0,1,.14-.36l0,.1a2.64,2.64,0,0,0,.08,1.22.84.84,0,0,0,.3.54c.27.18.7,0,.92.26s.15.42.34.51a.36.36,0,0,0,.22,0c.49-.07.77-.62,1.24-.77a1.24,1.24,0,0,1,.82.07.61.61,0,0,1,.27.18c.16.2,0,.5.12.75s.51.48.86.52a1.51,1.51,0,0,1,1,.34.89.89,0,0,1,.18.71.59.59,0,0,0,0,.26c.1.28.58.24.7,0s.06-.29.28-.34a.92.92,0,0,1,.45.08,3.32,3.32,0,0,0,1.19.18,1.61,1.61,0,0,0,.93-.28,1.11,1.11,0,0,0,.29-.35,1.18,1.18,0,0,1-.4.63,1.58,1.58,0,0,1-.93.28A3.32,3.32,0,0,1,77,79.8a.91.91,0,0,0-.45-.08c-.21,0-.18.18-.28.33s-.6.26-.7,0a.59.59,0,0,1,0-.26.89.89,0,0,0-.18-.71,1.52,1.52,0,0,0-1-.34c-.36,0-.76-.18-.86-.52s0-.54-.12-.75a.61.61,0,0,0-.27-.18,1.27,1.27,0,0,0-.82-.07c-.47.15-.75.7-1.24.78a.4.4,0,0,1-.22,0c-.18-.09-.19-.36-.34-.51s-.65-.09-.92-.26a.84.84,0,0,1-.3-.54A2.64,2.64,0,0,1,69.23,75.41Z"/></g><path class="cls-14" d="M79.5,90.15c-.34.45-.72.88-1,1.36A2.58,2.58,0,0,0,78,93.11,4.27,4.27,0,0,0,78.68,92a16.36,16.36,0,0,1,1.24-1.86c.08-.12.59-.8.33-.83S79.62,90,79.5,90.15Z"/><path class="cls-4" d="M70.18,82.71l3.69,7c.11.21-.19.58-.67.84l-18.42,9.74c-.48.25-1,.29-1.07.08l-3.69-7c-.11-.21.17-.63.65-.88l18.42-9.74C69.57,82.5,70.07,82.5,70.18,82.71Z"/><g class="cls-9"><path class="cls-2" d="M70.18,82.71l3.69,7c.11.21-.19.58-.67.84l-18.42,9.74c-.48.25-1,.29-1.07.08l-3.69-7c-.11-.21.17-.63.65-.88l18.42-9.74C69.57,82.5,70.07,82.5,70.18,82.71Z"/></g><rect class="cls-2" x="59.42" y="88.22" width="10.86" height="0.38" transform="translate(-33.81 40.57) rotate(-27.87)"/><rect class="cls-10" x="59.85" y="89.05" width="10.86" height="0.38" transform="translate(-34.14 40.87) rotate(-27.87)"/><rect class="cls-10" x="60.29" y="89.87" width="10.86" height="0.38" transform="translate(-34.48 41.17) rotate(-27.87)"/><rect class="cls-10" x="60.73" y="90.7" width="10.86" height="0.38" transform="translate(-34.81 41.47) rotate(-27.87)"/><path class="cls-10" d="M54.71,92.59a2.57,2.57,0,0,0,1,4.84l-.2-.38a.59.59,0,0,1,.18-.75,1,1,0,0,0,1.58-.84.59.59,0,0,1,.72.27l.21.39a2.57,2.57,0,0,0-3.45-3.53Zm2.47,2.25a.14.14,0,0,1,0,.05.15.15,0,0,1-.05.06l0,0a1,1,0,1,1-2,.18h0a.34.34,0,0,1-.19-.43.65.65,0,0,1,.15-.17.94.94,0,0,0,.28-.61l.07.14a.23.23,0,0,1,.28-.16l.13,0,.12,0,.24-.09a.36.36,0,0,1,.47.07,2.63,2.63,0,0,1,.4.4.87.87,0,0,1,.19.52Z"/><path class="cls-15" d="M62.53,93.13c0,2.43,5,2.95,5,2.95l1.28.2.57.09L69.64,94s-.26,0-.59-.12c-.49-.11-1.12-.31-1.25-.59C67.57,92.83,62.55,90.69,62.53,93.13Z"/><path class="cls-5" d="M83.84,84.8s1.71-.5,1.29,4.36a13.58,13.58,0,0,1-3.59,7.94s-3.65,1.6-5.29,1.34-2.84-.31-2.84-.31a4.19,4.19,0,0,0-1.66-.44,7.8,7.8,0,0,1-2.9-.79c0-.18.48-2.9.26-3.09A16.94,16.94,0,0,1,72,94.1c.26.19.63.05.91,0a3.14,3.14,0,0,1,2.8-.14,1.68,1.68,0,0,0,.79-.09.79.79,0,0,1,.58,0,1.58,1.58,0,0,0,.4-.2c.06-.07.5,0,.5,0a.19.19,0,0,0,.26-.09l0,0a1.22,1.22,0,0,1,.26-.41s.5-2.8,1.44-3.85a.6.6,0,0,0,.2-.53C80,88.41,81.63,84.22,83.84,84.8Z"/><path class="cls-4" d="M155,24.67V34.81c0,.3-.57.54-1.27.54H126.91c-.7,0-1.27-.24-1.27-.54V24.67c0-.3.57-.61,1.27-.61h26.78C154.39,24.06,155,24.36,155,24.67Z"/><g class="cls-18"><path class="cls-2" d="M151.82,26.51V36.66c0,.3-.57.54-1.27.54H123.78c-.7,0-1.27-.25-1.27-.54V26.51c0-.3.57-.61,1.27-.61h26.77C151.25,25.9,151.82,26.21,151.82,26.51Z"/></g><path class="cls-4" d="M155,24.67V34.81c0,.3-.57.54-1.27.54H126.91c-.7,0-1.27-.24-1.27-.54V24.67c0-.3.57-.61,1.27-.61h26.78C154.39,24.06,155,24.36,155,24.67Z"/><g class="cls-9"><path class="cls-2" d="M155,24.67V34.81c0,.3-.57.54-1.27.54H126.91c-.7,0-1.27-.24-1.27-.54V24.67c0-.3.57-.61,1.27-.61h26.78C154.39,24.06,155,24.36,155,24.67Z"/></g><rect class="cls-2" x="138.51" y="27.68" width="13.94" height="0.49"/><rect class="cls-10" x="138.51" y="28.88" width="13.94" height="0.49"/><rect class="cls-10" x="138.51" y="30.08" width="13.94" height="0.49"/><rect class="cls-10" x="138.51" y="31.28" width="13.94" height="0.49"/><path class="cls-10" d="M131.46,26.6a3.31,3.31,0,0,0-1.83,6.07v-.56a.75.75,0,0,1,.66-.74,1.31,1.31,0,0,0,2.3,0,.75.75,0,0,1,.66.74v.57a3.31,3.31,0,0,0-1.8-6.08Zm1.45,4a.14.14,0,0,1-.14.09h-.07a1.31,1.31,0,0,1-2.57-.37,1.3,1.3,0,0,1,.17-.65h0a.44.44,0,0,1,0-.61.89.89,0,0,1,.27-.1,1.2,1.2,0,0,0,.69-.53,1.23,1.23,0,0,1,0,.2.29.29,0,0,1,.41,0h0s.07.1.12.13a.31.31,0,0,0,.15,0l.33,0a.46.46,0,0,1,.5.36,3.17,3.17,0,0,1,.22.7,1.1,1.1,0,0,1-.11.71Z"/><path class="cls-19" d="M163.44,107.67c-.25-.91-.41-1.7-.41-1.7a3.53,3.53,0,0,0-.46-1.72V104h0l-.07-1.84a6.2,6.2,0,0,1,.43-1,7.19,7.19,0,0,0-.1-2.69s-1.34-2.93-1.11-4.83-2.84-8.3-2.84-8.3a8.34,8.34,0,0,1,.19-1.86,1.48,1.48,0,0,0,0-.39.41.41,0,0,0,0,0h0a14.46,14.46,0,0,0-1.17-3.54l0-4.46a13.08,13.08,0,0,0-.63-6.14c-.41-1.22-.67-2.19-.85-2.95l-.06-.25L160,65s-1.42-5.07-2.28-5.94-1.63-3.66-1.63-3.66-.57-3.6.09-4.69a7.07,7.07,0,0,0,.68-2.93s1.54-1.22,1.72-1.74a8.47,8.47,0,0,0,.44-2.29,14.39,14.39,0,0,1-.18-1.47c.06-.32-.52-1.52-.28-2.11a1.56,1.56,0,0,0,.09-.56v0a7.82,7.82,0,0,0-.2-1.5,4.27,4.27,0,0,0-1.61-.78l0-.14-.1-.36-.16-.09v-.13l0-.52.2-1.18c.41-2.05-2.32-2.25-2.32-2.25a1.42,1.42,0,0,0-.79-.64c-.55-.18,0,3.06.29,3.26A12.38,12.38,0,0,1,155,36.91h0l.05.08-.12.14.13.7,0,.11a2.84,2.84,0,0,0-.4.75,1.58,1.58,0,0,1,.44,1.14,3.49,3.49,0,0,0,.22,1.4s-.39-.4-.74-.29l-1.31.43s-.72.16-.65.31-.46.88-.46.88l-2-1.78-.06-.16a4.64,4.64,0,0,1-.2-.81,4.41,4.41,0,0,0,.62-.22,1.35,1.35,0,0,0,.53-.36,2.22,2.22,0,0,0,.28-.86,11.89,11.89,0,0,1,.66-1.65,5.27,5.27,0,0,0,.27-2.91,1.93,1.93,0,0,0-.33-.84c-.34-.43-.92-.59-1.36-.92s-.72-.86-1.23-1.1a2.29,2.29,0,0,0-1.49-.07A8,8,0,0,0,145.14,32a1.4,1.4,0,0,1-.91.34,1.23,1.23,0,0,1-.69-.47.15.15,0,0,1,0,0l0,0a3.46,3.46,0,0,0-.25,1.47,1,1,0,0,0,0,.23v.08a.44.44,0,0,1,0,.07h0a.41.41,0,0,1,0,.11.75.75,0,0,1-.18.27,1.63,1.63,0,0,0-.15.22.28.28,0,0,1,0-.08,1.15,1.15,0,0,0-.18.63.62.62,0,0,0,.16.44,2.13,2.13,0,0,0,.33.24,3.54,3.54,0,0,0,0,.65,3.79,3.79,0,0,0,2,3.16l.07.16a4.69,4.69,0,0,1,.44,2.12,1.11,1.11,0,0,1,0,.16c0,.05,0,.06-.07.09h0s-3.23.16-4-.5-1.86,1.76-1.86,1.76-1.15.27-1.39.05-1.59,0-1.59,0a2.91,2.91,0,0,0-2-.66,6,6,0,0,0-1.51-.77h0a1.66,1.66,0,0,0-.72-.07,14.9,14.9,0,0,1-2.13-1.94c-.49-.69-2.8-3.22-2.81-3.23v-.13l0-.38-.2,0,0-.13a7,7,0,0,0-.51-1.06s0-.48.12-.61a8.22,8.22,0,0,0-.13-1.88s-1.56-3.29-2.75-.74c0,0-2.36,1.71-.26,3.51,0,0,.83.36,1,.67s.38.75.58,1.12l.09.16,0,0,0,.31,0,.12c-.37.23-.63.46-.56.62a3.5,3.5,0,0,1,.26.86s2.95,3.42,3.37,4.91c0,0,7.72,4.19,10.21,4.42l-.33,2.25a17.87,17.87,0,0,0,0,1.83c.05.48-.2,2.67-.2,2.67a17.83,17.83,0,0,1-.65,3.68,6.17,6.17,0,0,0-.21,2.38,16.19,16.19,0,0,1-.39,2.74,7,7,0,0,0,0,2.73s-1.15,2.93,1.79.86c0,0,1.47-.15,3.17-.27v.17c0,.22,0,.46,0,.71,0,1.65.12,3.93.26,5.65.25,3,1.41,9,1.41,9l.12,3a4.16,4.16,0,0,0-.05.87,5.62,5.62,0,0,0,.92,3l.31,2a7.94,7.94,0,0,1,.64,2.1,1.09,1.09,0,0,1,0,.19,1.34,1.34,0,0,0,0,.31,17,17,0,0,0,.64,3.09s.12,2.21.45,2.32-.33,1.29-.51,1.63v-.06l0,.07a1.57,1.57,0,0,0-.08.56.8.8,0,0,0,.4.76c.64.36,1,.67.47.82a5.61,5.61,0,0,0-.58.15s0-.05,0-.07a.36.36,0,0,0-.2.39,1.67,1.67,0,0,0,.23.74,8,8,0,0,0,1,1.6l.25,0a1.32,1.32,0,0,1-.14.28,1.07,1.07,0,0,1-.36.35,1.14,1.14,0,0,1-.45.18,1.27,1.27,0,0,0-.92.49,1,1,0,0,0,.18,1.51l2.4.72s4.09.37,3.84-.53-.41-1.7-.41-1.7a3.62,3.62,0,0,0-.39-1.61,2,2,0,0,0-.15-.23l.14,0a7.49,7.49,0,0,1,.6-2.43c.09-.09.11-.16.08-.21s-.07-.18-.2-.2a.29.29,0,0,1,0,.08,2,2,0,0,0-.4,0s-.18-1.05.24-1.45a.41.41,0,0,0,.07-.32,1.72,1.72,0,0,0-.06-.43v0a15.72,15.72,0,0,0-1-2.45,3,3,0,0,1,.18-1.35c.25-.39-.24-5.22-.24-5.22a15.76,15.76,0,0,0-.33-3.42,3.84,3.84,0,0,1,.27-2.38.34.34,0,0,0,0-.07v0l-.05-.36a.12.12,0,0,1,0,0c-.09-.62-.26-1.73-.36-2.25-.16-.72-.13-4.26-.13-4.26l.54-1.53L151.37,80l1.26,3.42a3,3,0,0,1,.63,1.45V85a2,2,0,0,0,0,.23,2.06,2.06,0,0,0,.39,1.22,5.35,5.35,0,0,0,.84,2,1.85,1.85,0,0,1,.51,1.2,20.29,20.29,0,0,0,.93,2.76,4.16,4.16,0,0,1,.29,1.6h0v.09s.11.84.14,1.56v.24a2.58,2.58,0,0,1,0,.58v-.09a6.09,6.09,0,0,0-.11,1.48,3.78,3.78,0,0,0,.72,2.43c.93,1,1.49.84,1.49.84s-.38,1.3-.91,1.57l-.06,0a.51.51,0,0,0,0-.07.62.62,0,0,0-.14.48A3.46,3.46,0,0,0,158,105a1.05,1.05,0,0,0,.46.24l-.08.06-.18.09a.89.89,0,0,1-.27.08,1.28,1.28,0,0,0-.92.49,1,1,0,0,0,.18,1.51l2.4.72S163.7,108.57,163.44,107.67Z"/><path class="cls-20" d="M147.94,109.78l-2.32-.72a1,1,0,0,1-.17-1.52,1.22,1.22,0,0,1,.89-.49,1.09,1.09,0,0,0,.43-.18,1,1,0,0,0,.35-.35,1.7,1.7,0,0,0,.23-.9s2.49-.83,3.2-.12a1.94,1.94,0,0,1,.32.43,3.74,3.74,0,0,1,.38,1.61s.16.79.4,1.7S147.94,109.78,147.94,109.78Z"/><path class="cls-20" d="M159.11,108.22l-2.32-.72a1,1,0,0,1-.17-1.51,1.21,1.21,0,0,1,.89-.49.91.91,0,0,0,.26-.08l.18-.09a1.45,1.45,0,0,0,.58-1.24s2.49-.83,3.2-.12a1.77,1.77,0,0,1,.25.32,3.63,3.63,0,0,1,.45,1.72s.16.8.4,1.7S159.11,108.22,159.11,108.22Z"/><path class="cls-14" d="M150.56,105.51a1.94,1.94,0,0,1,.32.43h0l-3.75.58a1.7,1.7,0,0,0,.23-.9S149.84,104.8,150.56,105.51Z"/><path class="cls-14" d="M162,104.27l0,.71c-.54,1-3.39.89-4.23.43l.18-.09a1.45,1.45,0,0,0,.58-1.24s2.49-.83,3.2-.12A1.77,1.77,0,0,1,162,104.27Z"/><path class="cls-12" d="M162.31,101.21a6.22,6.22,0,0,0-.41,1l.1,2.54c-.6,1.09-3.94.86-4.42.3s-1-2-.51-2.32.87-1.57.87-1.57-.54.15-1.45-.84-.74-3.28-.6-3.83a11.36,11.36,0,0,0-.09-2.37,4.75,4.75,0,0,0-.29-1.69,21.05,21.05,0,0,1-.91-2.76,1.9,1.9,0,0,0-.49-1.2,5.51,5.51,0,0,1-.82-2,2.1,2.1,0,0,1-.37-1.36,2.8,2.8,0,0,0-.61-1.65L151.1,80,150,77.43,149.45,79s0,3.53.13,4.26.42,2.68.42,2.68a3.94,3.94,0,0,0-.26,2.38,16.28,16.28,0,0,1,.32,3.42s.47,4.83.23,5.22a3.19,3.19,0,0,0-.18,1.35s1.42,2.77,1,3.17-.23,1.45-.23,1.45.91,0,.53.36a7.49,7.49,0,0,0-.58,2.43l-3.86.6a8,8,0,0,1-.93-1.6c-.56-1.17.06-1.06.57-1.21s.18-.45-.45-.82-.3-1.24-.3-1.24.87-1.61.54-1.72-.44-2.32-.44-2.32a14.34,14.34,0,0,1-.61-3.31,6.43,6.43,0,0,0-.61-2.38l-.3-2a5.55,5.55,0,0,1-.85-3.79l-.11-3.12s-1.13-6-1.37-9c-.16-1.95-.24-4.61-.27-6.27,0-.93,0-1.55,0-1.55l13.78-2a11.51,11.51,0,0,0,.33,2c.17.75.43,1.73.82,2.95a13.53,13.53,0,0,1,.62,6.14l0,4.46s1.33,2.93,1.11,4a8.62,8.62,0,0,0-.18,1.87s3,6.4,2.76,8.3,1.09,4.84,1.09,4.84A7.46,7.46,0,0,1,162.31,101.21Z"/><path class="cls-13" d="M153.75,84.82l4.19-.72S155.65,86.62,153.75,84.82Z"/><path class="cls-14" d="M157.17,80s.2,1.48-.69,2.08C156.49,82.08,158.11,81.76,157.17,80Z"/><path class="cls-14" d="M156.74,75.27s-3.41,3-4.71,2.84S156.74,75.27,156.74,75.27Z"/><path class="cls-14" d="M148.58,86.39s-2.65.71-2.69,1.79S148.58,86.39,148.58,86.39Z"/><path class="cls-13" d="M149.69,99.72s-3.75.85-2.66,1.29a18.34,18.34,0,0,0,2.87.76S151.11,101.78,149.69,99.72Z"/><g class="cls-21"><path d="M146.3,101.79a.75.75,0,0,1-.36-.53l0,.07s-.32.88.3,1.24l.2.12.35-.08C147.25,102.47,146.92,102.16,146.3,101.79Z"/><path d="M151.15,101.36c.1-.1.09-.35,0-.66a1.78,1.78,0,0,0-.18.93A.74.74,0,0,1,151.15,101.36Z"/><path d="M150,85.44a4.35,4.35,0,0,0-.21,1.19,4.62,4.62,0,0,1,.26-.82Z"/><path d="M158.55,83.43a1.42,1.42,0,0,0,0-.35c0,.24-.06.46-.08.66C158.51,83.63,158.52,83.53,158.55,83.43Z"/><path d="M150.3,96.83a2,2,0,0,0,.07-.71,2.41,2.41,0,0,0-.15.91A.87.87,0,0,1,150.3,96.83Z"/><path d="M151.33,102.84a12.61,12.61,0,0,0-.36,2l-3.86.6a8.12,8.12,0,0,1-.93-1.6l-.12-.28c-.23.12-.31.36,0,1.05a8,8,0,0,0,.93,1.6l3.86-.6a7.68,7.68,0,0,1,.58-2.43C151.63,103,151.5,102.88,151.33,102.84Z"/><path d="M146,97.29s.12,2.21.44,2.33h0c.15-.37.24-.72.1-.77-.33-.12-.44-2.33-.44-2.33a14.25,14.25,0,0,1-.61-3.31,6.41,6.41,0,0,0-.61-2.38l-.3-2a5.55,5.55,0,0,1-.85-3.79l-.12-3.11s-1.13-6-1.37-9c-.16-1.95-.24-4.61-.27-6.27,0-.3,0-.57,0-.79l-.11,0s0,.62,0,1.55c0,1.66.12,4.32.27,6.27.25,3,1.38,9,1.38,9l.12,3.11a5.55,5.55,0,0,0,.85,3.79l.3,2a6.4,6.4,0,0,1,.61,2.38A14.21,14.21,0,0,0,146,97.29Z"/><path d="M157.67,104.15a3.75,3.75,0,0,1-.67-1.5c-.38.36.13,1.74.57,2.27s3.82.78,4.42-.3l0-.61C161.14,104.91,158.12,104.68,157.67,104.15Z"/><path d="M162.41,100.34a6.22,6.22,0,0,0-.41,1l0,.45c.07-.17.16-.39.3-.65a1.94,1.94,0,0,0,.11-.8Z"/><path d="M157.75,101a6,6,0,0,0,.29-.77s-.54.15-1.45-.84a4.56,4.56,0,0,1-.69-3.05c-.14.54-.31,2.84.6,3.83A2.31,2.31,0,0,0,157.75,101Z"/><path d="M155.81,94a17.4,17.4,0,0,1,.14,1.9,2.34,2.34,0,0,1,.05-.3,11.37,11.37,0,0,0-.09-2.37,4.78,4.78,0,0,0-.29-1.69,21.14,21.14,0,0,1-.91-2.76,1.88,1.88,0,0,0-.5-1.2,5.46,5.46,0,0,1-.82-2,2.11,2.11,0,0,1-.37-1.37,2.79,2.79,0,0,0-.61-1.64l-1.22-3.42-1.13-2.55-.52,1.53v.49l.42-1.24,1.13,2.55,1.22,3.42a2.79,2.79,0,0,1,.61,1.64,2.1,2.1,0,0,0,.37,1.37,5.42,5.42,0,0,0,.82,2,1.86,1.86,0,0,1,.49,1.2,21.06,21.06,0,0,0,.91,2.76A4.82,4.82,0,0,1,155.81,94Z"/></g><path class="cls-22" d="M156.23,34.95l-.2,1.18,0,.52,0,.38-1.33.18-.16-.27h0a11.23,11.23,0,0,0-1.1-1.63c-.25-.2-.82-3.43-.28-3.26a1.4,1.4,0,0,1,.77.65S156.63,32.9,156.23,34.95Z"/><path class="cls-14" d="M156.09,37l-1.33.18-.16-.27h0a1.18,1.18,0,0,1,1.47-.3Z"/><path class="cls-23" d="M156.45,37.65l-1.75.48,0-.26-.13-.7a1.21,1.21,0,0,1,1.7-.3l.1.36Z"/><path class="cls-22" d="M127.8,36.17,126,37.26l-.18-.35c-.19-.36-.48-.92-.56-1.12s-.92-.67-.92-.67c-2-1.81.24-3.51.24-3.51,1.15-2.55,2.66.75,2.66.75a8.44,8.44,0,0,1,.13,1.88c-.13.13-.11.61-.11.61a7.12,7.12,0,0,1,.49,1.06C127.77,36.06,127.8,36.17,127.8,36.17Z"/><path class="cls-14" d="M127.8,36.17,126,37.26l-.18-.35c.26-.23,1.17-1,1.48-1a2.39,2.39,0,0,0,.45,0C127.77,36.06,127.8,36.17,127.8,36.17Z"/><path class="cls-23" d="M128,36.73l-2.07,1.12-.06-.45,0-.31S127,36,127.39,36a2,2,0,0,0,.54,0l0,.38Z"/><path class="cls-22" d="M151.4,42.91s-9.18,1.4-7.48.77a2.32,2.32,0,0,0,1.7-2.07,4.84,4.84,0,0,0-.43-2.12,9.26,9.26,0,0,0-.89-1.63s6.9-4.15,5.62-.57a5.61,5.61,0,0,0-.34,1.69,4.71,4.71,0,0,0,.25,1.68A5,5,0,0,0,151.4,42.91Z"/><path class="cls-14" d="M149.94,37.29A5.61,5.61,0,0,0,149.6,39a3.25,3.25,0,0,1-2.31.61,4.16,4.16,0,0,1-2.09-.09,9.26,9.26,0,0,0-.89-1.63S151.21,33.71,149.94,37.29Z"/><circle class="cls-22" cx="147.03" cy="36.02" r="3.82"/><path class="cls-14" d="M151.4,42.91s-9.18,1.4-7.48.77a2.32,2.32,0,0,0,1.7-2.07,5.09,5.09,0,0,1,1.93-1.12,2.75,2.75,0,0,1,1.67-.09,2.32,2.32,0,0,1,.62.26A5,5,0,0,0,151.4,42.91Z"/><path class="cls-14" d="M156.45,37.65l-1.75.48,0-.26a1.56,1.56,0,0,1,1.67-.65Z"/><path class="cls-14" d="M128,36.73l-2.07,1.12-.06-.45a15.36,15.36,0,0,1,2.1-1Z"/><path class="cls-14" d="M155.94,66c-3.55.7-8.6,1.63-9.42,1.42a23.3,23.3,0,0,0-4.67.06c0-.93,0-1.55,0-1.55l13.78-2A11.51,11.51,0,0,0,155.94,66Z"/><path class="cls-5" d="M159.47,65s-11.68,2.47-13,2.13-7.74.33-7.74.33c-2.84,2.07-1.73-.86-1.73-.86a7.07,7.07,0,0,1,0-2.73,16.75,16.75,0,0,0,.38-2.74,6.34,6.34,0,0,1,.2-2.38,18.26,18.26,0,0,0,.63-3.68s.24-2.19.18-2.67a17.44,17.44,0,0,1,0-1.83l.33-2.26c-2.42-.23-9.89-4.43-9.89-4.43-.41-1.49-3.26-4.91-3.26-4.91a3.68,3.68,0,0,0-.26-.86c-.21-.51,2.63-1.64,2.63-1.64s2.25,2.54,2.72,3.23a13.92,13.92,0,0,0,2.06,1.94,1.54,1.54,0,0,1,.71.06h0a5.74,5.74,0,0,1,1.47.77,2.78,2.78,0,0,1,2,.66s1.31-.24,1.54,0,1.35-.05,1.35-.05,1-2.42,1.79-1.75,3.89.51,3.89.51a4.62,4.62,0,0,1,2-1.23,2.75,2.75,0,0,1,1.67-.09,2.14,2.14,0,0,1,.67.29l2,1.78s.52-.72.45-.88.63-.31.63-.31l1.27-.43c.35-.11.68.26.72.29a3.71,3.71,0,0,1-.21-1.4,1.65,1.65,0,0,0-.43-1.14c1-2.8,3.63-.59,3.63-.59a5.25,5.25,0,0,1,.11,2.08c-.24.59.33,1.78.27,2.11s.16.86.18,1.47a8.88,8.88,0,0,1-.42,2.29c-.17.52-1.67,1.73-1.67,1.73a7.24,7.24,0,0,1-.66,2.91c-.63,1.08-.08,4.69-.08,4.69s.75,2.79,1.59,3.66S159.47,65,159.47,65Z"/><path class="cls-14" d="M141.52,44.61s-.39-1-.72-1.13a7.69,7.69,0,0,1-.94-.38l.18-.4s1.22.28,1.42.63A2.82,2.82,0,0,1,141.52,44.61Z"/><path class="cls-14" d="M135,42.52c-.05.32-2.9.72-2.9.72l1.39-1.5h0A5.74,5.74,0,0,1,135,42.52Z"/><circle class="cls-24" cx="126.58" cy="38.44" r="0.26"/><circle class="cls-24" cx="126.92" cy="38.94" r="0.26"/><circle class="cls-24" cx="127.26" cy="39.4" r="0.26"/><circle class="cls-24" cx="127.62" cy="39.9" r="0.26"/><circle class="cls-24" cx="157.82" cy="38.71" r="0.21"/><circle class="cls-24" cx="157.87" cy="39.18" r="0.21"/><circle class="cls-24" cx="157.91" cy="39.65" r="0.21"/><path class="cls-14" d="M141.87,53.29s7.54,8.81,12.95,3.32C154.82,56.61,146,58.15,141.87,53.29Z"/><path class="cls-14" d="M137.91,58.19s4.33,0,4.83,1.18l0,1.29a.82.82,0,0,1-.8,0c-.44-.22-3.11-1.45-4-.77Z"/><path class="cls-25" d="M138,58.19s4.14,0,4.61,1.12l0,1.23a.79.79,0,0,1-.77,0c-.42-.21-3-1.38-3.83-.73Z"/><path class="cls-14" d="M139.9,48.72a13.9,13.9,0,0,0,1.79,2.81A11.28,11.28,0,0,0,144.41,54S140,49.31,139.9,48.72Z"/><path class="cls-14" d="M138.3,43.75s.84,3.08,2.74,4.07Z"/><path class="cls-14" d="M137.21,44.11c0-.06-.54,2.49,2.54,3.76C139.75,47.87,138.44,47.48,137.21,44.11Z"/><path class="cls-14" d="M156,41.29a21,21,0,0,1,2,1.37S156.9,41.19,156,41.29Z"/><path class="cls-20" d="M146.13,39.52a.6.6,0,0,0,.62.58h.06a7.76,7.76,0,0,0,3.44-.46,1.3,1.3,0,0,0,.51-.36,2.17,2.17,0,0,0,.27-.86,12.45,12.45,0,0,1,.64-1.65,5.45,5.45,0,0,0,.26-2.92,2,2,0,0,0-.32-.84c-.33-.43-.9-.59-1.32-.92s-.7-.86-1.19-1.11a2.18,2.18,0,0,0-1.45-.07A7.57,7.57,0,0,0,145,32a1.34,1.34,0,0,1-.89.34,1.23,1.23,0,0,1-.68-.48,3.55,3.55,0,0,0-.22,1.67.72.72,0,0,1,0,.25.77.77,0,0,1-.17.27,1,1,0,0,0-.14,1.2c.13.14.32.22.45.36s.17.65.18,1a.5.5,0,0,0,.1.34.49.49,0,0,0,.47.09,1.28,1.28,0,0,1,.5-.07.83.83,0,0,1,.45.32A5.83,5.83,0,0,1,146.13,39.52Z"/><g class="cls-18"><path d="M150.88,39a1.3,1.3,0,0,1-.51.36,7.68,7.68,0,0,1-3.43.46.6.6,0,0,1-.68-.51s0,0,0-.06A5.92,5.92,0,0,0,145.19,37a.83.83,0,0,0-.45-.32,1.32,1.32,0,0,0-.5.07.49.49,0,0,1-.47-.09.51.51,0,0,1-.1-.34,1.44,1.44,0,0,0-.18-1c-.13-.14-.32-.22-.45-.36a.75.75,0,0,1-.1-.76.88.88,0,0,0,0,1c.13.14.32.21.45.36s.17.65.18,1a.5.5,0,0,0,.1.33.49.49,0,0,0,.47.09,1.32,1.32,0,0,1,.5-.07.84.84,0,0,1,.45.32,6,6,0,0,1,1.06,2.22.81.81,0,0,0,.32.5.82.82,0,0,0,.36.07,7.76,7.76,0,0,0,3.44-.46,1.31,1.31,0,0,0,.51-.36,1,1,0,0,0,.15-.32Z"/><path d="M143.24,33.7a.54.54,0,0,0,.11-.2.68.68,0,0,0,0-.25,3.55,3.55,0,0,1,.13-1.39l0,0a3.56,3.56,0,0,0-.22,1.67A1.08,1.08,0,0,1,143.24,33.7Z"/></g><path class="cls-14" d="M145.54,41.86s4.79.45,5.19-.28"/><path class="cls-14" d="M154.73,39.53s2.65-.1,3.26.87"/><path class="cls-14" d="M40.39,60.65a2.48,2.48,0,0,1,1.55-.59,1.89,1.89,0,0,0-1,.39,2.31,2.31,0,0,0-.28.36c-.09.13-.83,1.07-.95.92S40.24,60.78,40.39,60.65Z"/></g></g></svg>