<svg xmlns="http://www.w3.org/2000/svg" xmlns:xlink="http://www.w3.org/1999/xlink" viewBox="0 0 180 125.33"><defs><style>.cls-1,.cls-3{fill:#3b8bff;}.cls-1,.cls-2{opacity:0.2;}.cls-1,.cls-7,.cls-9{isolation:isolate;}.cls-4{fill:url(#linear-gradient);}.cls-5{fill:#fbbebe;}.cls-6{fill:#464353;}.cls-11,.cls-7{opacity:0.1;}.cls-8{fill:#f86d70;}.cls-9{opacity:0.05;}.cls-10{fill:#3f3d56;}.cls-12{fill:#4c4c78;}.cls-13{fill:#fff;}</style><linearGradient id="linear-gradient" x1="206.61" y1="-6497.61" x2="206.61" y2="-6375.71" gradientTransform="matrix(1, 0, 0, -1, -91.39, -6372.28)" gradientUnits="userSpaceOnUse"><stop offset="0" stop-color="gray" stop-opacity="0.25"/><stop offset="0.54" stop-color="gray" stop-opacity="0.12"/><stop offset="1" stop-color="gray" stop-opacity="0.1"/></linearGradient></defs><title>step3</title><g id="Layer_2" data-name="Layer 2"><g id="Layer_1-2" data-name="Layer 1"><path class="cls-1" d="M105.15,19.7c-11.45-.4-22.36-4.09-32.78-8.14S51.64,3,40.47.9C33.28-.48,25.05-.67,19.26,3.18,13.69,6.9,11.89,13.3,10.92,19.24c-.73,4.47-1.16,9.18.84,13.36,1.39,2.91,3.85,5.35,5.55,8.13,5.92,9.68,1.74,21.62-4.68,31.08-3,4.43-6.5,8.67-8.82,13.39S.4,95.32,2.43,100.14s6.82,8.36,12,10.88c10.56,5.12,23,6.59,35.15,7.42,26.87,1.84,53.88,1,80.81.25,10-.3,20-.59,29.79-2.14,5.45-.86,11.07-2.22,15-5.49a12.58,12.58,0,0,0,2.9-16.44c-5.64-8.76-21.23-10.93-25.18-20.33-2.17-5.17.06-10.94,3.21-15.73,6.77-10.29,18.11-19.32,18.71-31.09.41-8.08-5-16.17-13.47-20-8.84-4-21.09-3.5-27.6,3.13C127.06,17.43,115.26,20.05,105.15,19.7Z"/><g class="cls-2"><path class="cls-3" d="M15.28,58.1S2.05,52.53.31,62.56a2.44,2.44,0,0,0,.35,2.86s.27-.69,1.55,0A6.58,6.58,0,0,0,3.66,66a3.25,3.25,0,0,0,2.06-.11h0s4.35-.24,8-5.93c0,0,1.57-1,1.65-1.33l-2.62.18a4.35,4.35,0,0,1-.88,3.07s1-3,.5-3.06c-.09,0-1.39.15-1.39.15s.33,3.34-1.42,5.07c0,0,1.62-3.4.92-5l-1.94.37S9.08,62.94,7.17,65c0,0,1.57-3.61,1-5.44l-1.85.62s.45,3.43-1.16,5.13c0,0,1.4-4.35.74-5a9.64,9.64,0,0,0-2,1.06s.26,2.48-.75,3.37c0,0,.62-3,.31-3.13A10.13,10.13,0,0,0,.88,64.36a7.34,7.34,0,0,1,2.28-3,4.07,4.07,0,0,0-2.3.32S1.53,60.4,3.63,61A9.12,9.12,0,0,1,5.5,59.94a8.94,8.94,0,0,0-3.42-.78s1.54-.88,3.91.59l1.85-.67A12.6,12.6,0,0,0,4,57.78S5.69,57.12,8.31,59l1.89-.39A15.06,15.06,0,0,0,6.65,57s1.72-.27,4.1,1.51L12,58.38s-1.57-.92-2-1.15-.45-.37-.45-.37a6.17,6.17,0,0,1,3,1.46A15,15,0,0,0,15.28,58.1Z"/></g><g class="cls-2"><path class="cls-3" d="M158.06,65.92s13.23-5.56,15,4.47a2.44,2.44,0,0,1-.35,2.86s-.27-.69-1.55,0a6.58,6.58,0,0,1-1.44.59,3.25,3.25,0,0,1-2.06-.11h0s-4.35-.24-8-5.93c0,0-1.57-1-1.65-1.33l2.62.18a4.35,4.35,0,0,0,.88,3.07s-1-3-.5-3.06c.09,0,1.39.15,1.39.15s-.33,3.34,1.42,5.07c0,0-1.62-3.4-.92-5l1.94.37s-.53,3.51,1.38,5.55c0,0-1.57-3.61-1-5.44l1.85.62s-.45,3.43,1.16,5.13c0,0-1.4-4.35-.74-5a9.64,9.64,0,0,1,2,1.06s-.26,2.48.75,3.37c0,0-.62-3-.31-3.13a10.13,10.13,0,0,1,2.53,2.72,7.34,7.34,0,0,0-2.28-3,4.07,4.07,0,0,1,2.3.32s-.67-1.28-2.77-.67a9.12,9.12,0,0,0-1.87-1.06,8.94,8.94,0,0,1,3.42-.78s-1.54-.88-3.91.59l-1.85-.67a12.6,12.6,0,0,1,3.85-1.31s-1.71-.66-4.33,1.18l-1.89-.39a15.06,15.06,0,0,1,3.55-1.6s-1.72-.27-4.1,1.51l-1.29-.11s1.57-.92,2-1.15.45-.37.45-.37a6.17,6.17,0,0,0-3,1.46A15,15,0,0,1,158.06,65.92Z"/></g><g class="cls-2"><path class="cls-3" d="M14.79,48.12S10.1,37.28,3.36,42.25a2,2,0,0,0-1.42,1.89s.56-.26.91.9a5.33,5.33,0,0,0,.53,1.17,2.65,2.65,0,0,0,1.28,1.11h0s2.72,2.34,8.14,1a5.31,5.31,0,0,0,1.74.15l-1.66-1.39a3.57,3.57,0,0,1-2.28,1.32s2.27-1.22,2-1.53c0-.06-.91-.7-.91-.7S10,48.37,8,48.41c0,0,2.9-1.09,3.4-2.45l-1.36-.88s-1.69,2.39-4,2.51c0,0,3-1.25,3.68-2.68l-1.46-.68s-1.69,2.3-3.6,2.39c0,0,3.31-1.79,3.26-2.52a7.68,7.68,0,0,0-1.81-.52s-1.25,1.62-2.37,1.57c0,0,2.09-1.43,2-1.68a8.29,8.29,0,0,0-3,.18,6,6,0,0,1,3.07-.48A3.33,3.33,0,0,0,4.21,42s1.13-.38,2,1.18A7.73,7.73,0,0,1,8,43.64a7.27,7.27,0,0,0-1.59-2.41s1.42.35,2,2.58l1.48.66a10.32,10.32,0,0,0-1.54-3s1.39.58,1.9,3.17l1.34.85a12.41,12.41,0,0,0-1.2-3,4.9,4.9,0,0,1,1.57,3.24l.83.67s-.41-1.44-.56-1.84-.06-.48-.06-.48a5.07,5.07,0,0,1,1,2.6A12,12,0,0,0,14.79,48.12Z"/></g><path class="cls-4" d="M165,115.52a9.06,9.06,0,0,0-1-2.49,8.64,8.64,0,0,0-1.56-1.71c-1.73-1.57-3.85-3.16-6.14-2.77a8.1,8.1,0,0,0-2,.74c-.33.15-.67.31-1,.44a5.05,5.05,0,0,1-3.06.27c-.52-.14-1-.39-1.53-.55a4.94,4.94,0,0,0-.75-.16,13.86,13.86,0,0,0,1.45-.76c2.57-1.59,4.62-4.45,4.33-7.47a12.19,12.19,0,0,0-.8-3L152,95.56a10.79,10.79,0,0,0-1.53-3.13,8,8,0,0,0-3.13-2.22,30.41,30.41,0,0,0-8.06-1.87l-.19,0V58.72a1.91,1.91,0,0,0-1.89-1.92h-3.62l-.48-2.91a27.25,27.25,0,0,0-2.2-8.08c-.83-1.63-2.16-3.19-4-3.51a3.94,3.94,0,0,1-1-.24c-.52-.26-.81-.83-1.22-1.25-1-1.09-2.73-1.11-4.12-1.67A21.56,21.56,0,0,1,117.23,37a4.39,4.39,0,0,0-3.76-.75,2.57,2.57,0,0,1,0,.27l-.8-.36a8.72,8.72,0,0,1-2.42-1.46,6.94,6.94,0,0,1-1.73-3.12c0-.12-.07-.24-.11-.37a11.09,11.09,0,0,0,3-5.66l.2.63a3.31,3.31,0,0,0,.24.62l.11.19a1.22,1.22,0,0,0,.29.3.81.81,0,0,0,.38.15h.2a1.1,1.1,0,0,0,.8-.68,1.43,1.43,0,0,0,.08-.29,1.5,1.5,0,0,0,0-.18v-.43a.69.69,0,0,0,0-.14s0,0,0,0l0-.18a.24.24,0,0,1,0,0l0-.15,0-.09v0h0l-.07-.28a8.21,8.21,0,0,1-.13-2.52,27.28,27.28,0,0,1,.68-3.66l.05-.22.06-.25.11-.51h0c0-.15.06-.29.09-.44s0-.26.06-.39v0a11.32,11.32,0,0,0,.12-2.69h0a5.65,5.65,0,0,0-1.35-3.37c-.6-.66-1.38-1.16-1.94-1.85s-.81-1.46-1.35-2.1c-1.49-1.78-5.31-3.15-7.65-3.39-2.69-.27-7,.41-9.19,2a8.88,8.88,0,0,0-1.91,2.23,11,11,0,0,1-3.83,3.81,4.64,4.64,0,0,0-1.74,1.1,3,3,0,0,0-.48,1.24,24.35,24.35,0,0,0-.49,4.72,5.82,5.82,0,0,0,.26,2c0,.09.07.18.12.27h0l.13.24,0,.05a9.9,9.9,0,0,1,.76,1.3,1.88,1.88,0,0,1,.11.4,2.93,2.93,0,0,1-.07,1h0a.67.67,0,0,1,0,.15l0,.11a.2.2,0,0,1,0,.1q0,.15-.05.31c0,.07,0,.15,0,.22a1.79,1.79,0,0,0,.16.86,1.09,1.09,0,0,0,.11.18,1,1,0,0,0,.32.27,3.61,3.61,0,0,0,.88.21,2.67,2.67,0,0,1,1.81,1.72,6.07,6.07,0,0,1,.21.57,10.16,10.16,0,0,1,.33,1.49c.41,0,.64-.38.78-.77a3.62,3.62,0,0,0,.11-.39l.17-.75A11.08,11.08,0,0,0,95.06,33c.07.2.13.39.19.59a4,4,0,0,1-.08,3.15,3.35,3.35,0,0,1-1.76,1.37A1.17,1.17,0,0,0,93,37.8a1.81,1.81,0,0,0-1.91.54c-1,.86-1.73,2.1-3,2.38a3.47,3.47,0,0,0-1.33.36,3.08,3.08,0,0,0-.62.81,2.84,2.84,0,0,1-2.44,1.22c-.44,0-1-.12-1.25.2s-.24.62-.48.84-.84.16-1.29.14A2.38,2.38,0,0,0,79,45a4.06,4.06,0,0,0-1-2.6,13.74,13.74,0,0,0-2.3-1.52c-1.91-1.3-2.86-3.57-3.85-5.66s-2.3-4.29-4.47-5c-.5-.18-1.19-.19-1.42.29a1.06,1.06,0,0,0,0,.63A7.3,7.3,0,0,0,67.56,34c1.15,1.51,2.12,3.35,1.84,5.23-.33,2.23-2.31,4-2.55,6.19a28.86,28.86,0,0,0,.14,3,8.55,8.55,0,0,0,0,1.85,12.54,12.54,0,0,0,.5,1.35,7.88,7.88,0,0,1,.33,2.22q.25,4.74.5,9.48a25.86,25.86,0,0,1-.91,7A22,22,0,0,0,66,74.6a14.63,14.63,0,0,0,.24,7.84c.45,1.37,1.14,2.64,1.51,4a.37.37,0,0,0,0,.09c0,.3.08.59.13.88a8.5,8.5,0,0,0,.26,1,7.13,7.13,0,0,0,.52,1.64,4.58,4.58,0,0,0,1.43,1.67c-.34.67-.9,1.21-1.27,1.87a5.74,5.74,0,0,0-.44,3.83A12.67,12.67,0,0,0,72,104h-.24a3.74,3.74,0,0,0-1.63.58A11.06,11.06,0,0,0,65,115.79a4.81,4.81,0,0,0,1,2.34,3.71,3.71,0,0,0,1.74,1.07,6,6,0,0,0,1.28.24c2.93.24,5.77-1.12,8.71-1.24a23.47,23.47,0,0,1,2.92.14q2.12.18,4.26.22a5.64,5.64,0,0,0,5.08-2.29,6.17,6.17,0,0,0,.9-1.42c1.25-.07,2.64-.18,3.64-.26v.14a1.91,1.91,0,0,0,.52,1.33,1.86,1.86,0,0,0,.71.29,30.87,30.87,0,0,0,7.32,1.19,30.91,30.91,0,0,0,3.48-.27l4.36-.5a22.21,22.21,0,0,1,3.74.81c1.26.43,2.44,1.07,3.66,1.57a36.41,36.41,0,0,0,9,2,1.83,1.83,0,0,0,1.5-.24c.5-.48.33-1.27.19-1.94-.06-.27-.1-.55-.14-.82a41.34,41.34,0,0,1,6,2.09l.34.15c.1.52.58.94,1,1.5a3.79,3.79,0,0,0,.53.65,1.73,1.73,0,0,0,.76.27,35.29,35.29,0,0,0,9.77.44,10,10,0,0,1,2-.07,8.49,8.49,0,0,1,1.45.33l2.76.79a18.64,18.64,0,0,0,6.23,1,8.27,8.27,0,0,0,1.27-.18,6,6,0,0,0,4-2.82C166.1,120.26,165.58,117.75,165,115.52ZM84,78.26a8.67,8.67,0,0,1-.8,3c-.3.6-.68,1.15-1,1.75a9.46,9.46,0,0,0-.57,2.7l-.43-.06c.21-.74.37-1.51.58-2.25A29.17,29.17,0,0,1,84,78.26Z"/><path class="cls-5" d="M87.71,114.9c-.5-1.14-1-2.46-.48-3.6a3.06,3.06,0,0,1,1.58-1.49,7.62,7.62,0,0,1,2.14-.53,29.93,29.93,0,0,1,7-.1,11.36,11.36,0,0,1-.5,4c-.28,1.19-.44,1.37-1.67,1.43C95,114.65,87.9,115.32,87.71,114.9Z"/><ellipse class="cls-6" cx="108.93" cy="97.66" rx="34.07" ry="9.53"/><ellipse class="cls-7" cx="108.93" cy="97.66" rx="34.07" ry="9.53"/><path class="cls-5" d="M115,47.34a10.6,10.6,0,0,1-5.47,5,13.72,13.72,0,0,1-4.33.82,12.36,12.36,0,0,1-4.79-.58,11,11,0,0,1-5-4,24.48,24.48,0,0,1-2.9-5.8,6.45,6.45,0,0,1-.59-3.3,4.68,4.68,0,0,0,3.2-1.78,4,4,0,0,0,.08-3.12c-.09-.3-.19-.6-.29-.89-.24-.69-1.06-2-.49-2.59.36-.37,1.89-.56,2.42-.81,1.62-.75,3.12-1.83,4.9-2.18a11.8,11.8,0,0,1,4.67.3,1.54,1.54,0,0,1,.58.21,1.39,1.39,0,0,1,.43.64c.44,1.07.7,2.25,1,3.36a6.87,6.87,0,0,0,1.72,3.09,8.79,8.79,0,0,0,2.42,1.44l2.11,1a2.78,2.78,0,0,1,1,.65,2.53,2.53,0,0,1,.48,1.3A12.11,12.11,0,0,1,115,47.34Z"/><path class="cls-7" d="M108.49,32.58a11,11,0,0,1-13.25,2c-.09-.3-.19-.6-.29-.89-.24-.69-1.06-2-.49-2.59.36-.37,1.89-.56,2.42-.81,1.62-.75,3.12-1.83,4.9-2.18a11.8,11.8,0,0,1,4.67.3,1.54,1.54,0,0,1,.58.21,1.39,1.39,0,0,1,.43.64C107.88,30.29,108.14,31.47,108.49,32.58Z"/><circle class="cls-5" cx="100.59" cy="24.51" r="10.96"/><path class="cls-8" d="M134,60.08l-.9-5.46a26.8,26.8,0,0,0-2.2-8c-.84-1.62-2.16-3.15-4-3.47a3.82,3.82,0,0,1-1-.24c-.52-.25-.81-.82-1.21-1.24-1-1.08-2.73-1.09-4.12-1.64a21.07,21.07,0,0,1-3.35-2.09,4.46,4.46,0,0,0-3.75-.74,18.81,18.81,0,0,1-1.32,6.25A9.36,9.36,0,0,1,98,47a11.76,11.76,0,0,1-4.12-6.65c-.15-.63-.33-1.35-.91-1.64a1.83,1.83,0,0,0-1.91.53c-1,.86-1.73,2.08-3,2.37a3.48,3.48,0,0,0-1.33.36,3,3,0,0,0-.62.8,2.86,2.86,0,0,1-2.44,1.21c-.44,0-1-.12-1.25.2s-.24.61-.48.83-.84.16-1.29.14a2.61,2.61,0,0,0-2.12,1.19,7.69,7.69,0,0,0-1,2.35c2.6,5.8,5,11.61,7.59,17.41a1.48,1.48,0,0,1,.19.71,1.74,1.74,0,0,1-.32.71c-1.28,2.05-1.24,4.63-1.1,7s.31,5-.76,7.12c-.29.59-.67,1.14-1,1.73a16.39,16.39,0,0,0-.51,7.09h53.85c-1-2.82-.64-8.49-.42-11.49a41.9,41.9,0,0,0-.41-6.29C134.43,68.42,134.69,64.35,134,60.08Z"/><path class="cls-6" d="M136.74,88.8a5.13,5.13,0,0,1,2.52-.08,30.65,30.65,0,0,1,8.05,1.85,7.91,7.91,0,0,1,3.13,2.19,10.86,10.86,0,0,1,1.53,3.1l.91,2.5a12.07,12.07,0,0,1,.8,2.94c.29,3-1.77,5.83-4.35,7.39s-5.62,2.11-8.58,2.69-5.93,1.22-8.88,1.91a35.74,35.74,0,0,1-4.18.82c-3.15.36-6.45-.17-9.45.87a36,36,0,0,1-3.6,1.32,22.38,22.38,0,0,1-2.49.4l-5.67.65a31,31,0,0,1-3.48.27,31.17,31.17,0,0,1-7.32-1.17,1.39,1.39,0,0,1-1.23-1.6q-.36-3.2-.64-6.4a2.4,2.4,0,0,1,2.53-3.1,58.82,58.82,0,0,1,10.88-.76c1.38-1.38,3.67-1.39,5.48-2.14a16.29,16.29,0,0,0,1.93-1.05,25.26,25.26,0,0,1,10.61-3.35,9.88,9.88,0,0,0,2.17-.31c1.4-.44,2.68-1.62,4.12-1.33a3.34,3.34,0,0,1,.71-1.49c.2-.17.46-.29.65-.48a2,2,0,0,0,.37-1.6,4.68,4.68,0,0,1,0-1.69,2.33,2.33,0,0,1,.26-.59A3.21,3.21,0,0,1,136.74,88.8Z"/><path class="cls-9" d="M136.74,88.8a5.13,5.13,0,0,1,2.52-.08,30.65,30.65,0,0,1,8.05,1.85,7.91,7.91,0,0,1,3.13,2.19,10.86,10.86,0,0,1,1.53,3.1l.91,2.5a12.07,12.07,0,0,1,.8,2.94c.29,3-1.77,5.83-4.35,7.39s-5.62,2.11-8.58,2.69-5.93,1.22-8.88,1.91a35.74,35.74,0,0,1-4.18.82c-3.15.36-6.45-.17-9.45.87a36,36,0,0,1-3.6,1.32,22.38,22.38,0,0,1-2.49.4l-5.67.65a31,31,0,0,1-3.48.27,31.17,31.17,0,0,1-7.32-1.17,1.39,1.39,0,0,1-1.23-1.6q-.36-3.2-.64-6.4a2.4,2.4,0,0,1,2.53-3.1,58.82,58.82,0,0,1,10.88-.76c1.38-1.38,3.67-1.39,5.48-2.14a16.29,16.29,0,0,0,1.93-1.05,25.26,25.26,0,0,1,10.61-3.35,9.88,9.88,0,0,0,2.17-.31c1.4-.44,2.68-1.62,4.12-1.33a3.34,3.34,0,0,1,.71-1.49c.2-.17.46-.29.65-.48a2,2,0,0,0,.37-1.6,4.68,4.68,0,0,1,0-1.69,2.33,2.33,0,0,1,.26-.59A3.21,3.21,0,0,1,136.74,88.8Z"/><path class="cls-10" d="M89.9,116.37a5.66,5.66,0,0,1-5.08,2.26q-2.13-.05-4.26-.22a23.87,23.87,0,0,0-2.92-.14c-2.94.11-5.78,1.46-8.71,1.22a6.18,6.18,0,0,1-1.28-.24,3.72,3.72,0,0,1-1.73-1.05,4.75,4.75,0,0,1-1-2.31,10.9,10.9,0,0,1,5.13-11.11,3.76,3.76,0,0,1,1.63-.58,3.86,3.86,0,0,1,1.65.36h0a12.47,12.47,0,0,1,4.08,2.73,2.3,2.3,0,0,0,.62.5,2.14,2.14,0,0,0,.74.14l3.13.2a7.42,7.42,0,0,1,1.57.22,12.5,12.5,0,0,1,1.65.71,21.17,21.17,0,0,0,5.37,1.24.8.8,0,0,1,.48.19.75.75,0,0,1,.15.31A6.08,6.08,0,0,1,89.9,116.37Z"/><path class="cls-7" d="M73.38,104.59a18.8,18.8,0,0,0-3.13,3.92,19.6,19.6,0,0,0-2.56,7.75,14.39,14.39,0,0,0,0,3,3.72,3.72,0,0,1-1.73-1.05,4.75,4.75,0,0,1-1-2.31,10.9,10.9,0,0,1,5.13-11.11,3.76,3.76,0,0,1,1.63-.58,3.86,3.86,0,0,1,1.65.36Z"/><path class="cls-5" d="M134,110.52c1.75,0,3.72-.14,5,1s1.39,3,1.47,4.61l.09,1.92a3.84,3.84,0,0,1-.18,1.73,2.67,2.67,0,0,1-2.62,1.36,8.82,8.82,0,0,1-3-.93,41.86,41.86,0,0,0-8.1-2.55q.14-2,.45-4c.15-.91.17-2.44.78-3.2s1.49-.37,2.36-.22A19,19,0,0,0,134,110.52Z"/><path class="cls-6" d="M87.74,91.2c0,.24-.37,0-.41-.25a5.8,5.8,0,0,0-3.57-4.29A11.7,11.7,0,0,0,78,86c-2.92.28-6.18,1.39-7.26,4.12-.25.64-.37,1.33-.68,1.94S69.17,93.3,68.8,94a5.66,5.66,0,0,0-.44,3.79,13.68,13.68,0,0,0,5.78,8.34,34.5,34.5,0,0,0,9.41,4.31,163.26,163.26,0,0,0,26.69,6.37,25.65,25.65,0,0,1,4.36.9c1.26.42,2.44,1.05,3.66,1.55a36.8,36.8,0,0,0,9,2,1.84,1.84,0,0,0,1.5-.24c.5-.46.33-1.26.19-1.92a10.33,10.33,0,0,1,1.21-7.32,4.8,4.8,0,0,0,1.08-2.73,2.74,2.74,0,0,0-2.42-2.16,12.1,12.1,0,0,0-3.47.24,1.9,1.9,0,0,1-1.19-.12,2.36,2.36,0,0,1-.46-.41,5.23,5.23,0,0,0-6.09-.85c-.43.24-1.07-.29-1.52-.49l-5-2.27A118.2,118.2,0,0,0,93.45,96a3.7,3.7,0,0,1-1.36-.56c-.3-.24-.52-.56-.8-.83a10.18,10.18,0,0,0-2.18-1.21C88.38,93,87.57,92,87.74,91.2Z"/><path class="cls-10" d="M165,122.34a6,6,0,0,1-4,2.79,8,8,0,0,1-1.27.18,18.8,18.8,0,0,1-6.22-1l-2.76-.78a8.71,8.71,0,0,0-1.45-.32,10,10,0,0,0-2,.07,35.64,35.64,0,0,1-9.77-.44,1.72,1.72,0,0,1-.76-.27,3.75,3.75,0,0,1-.53-.65c-.75-.9-1.56-1.43-.67-2.62.51-.69,1.46-1,1.86-1.83a4.08,4.08,0,0,0-.09-2.74c-.32-1.13-1.38-1.62-1.76-2.66a1.87,1.87,0,0,1,.91-2.12,3.78,3.78,0,0,1,2.43-.35c.83.11,1.64.34,2.47.41,2.44.2,4.94-1.07,7.29-.36.52.16,1,.41,1.53.55a5.09,5.09,0,0,0,3.06-.26c.34-.13.68-.28,1-.44a8.16,8.16,0,0,1,2-.74c2.29-.39,4.41,1.19,6.14,2.74a8.68,8.68,0,0,1,1.56,1.69,8.49,8.49,0,0,1,1,2.46C165.55,117.83,166.07,120.31,165,122.34Z"/><path class="cls-7" d="M165,122.34a6,6,0,0,1-4,2.79,7.79,7.79,0,0,0,.85-4.09,12.91,12.91,0,0,0-2.41-6.28,22.25,22.25,0,0,0-2.65-3.23c-.76-.76-1.69-1.37-2.5-2.07a8.16,8.16,0,0,1,2-.74c2.29-.39,4.41,1.19,6.14,2.74a8.68,8.68,0,0,1,1.56,1.69,8.49,8.49,0,0,1,1,2.46C165.55,117.83,166.07,120.31,165,122.34Z"/><path class="cls-10" d="M93,6.72a8.73,8.73,0,0,0-1.91,2.21,10.91,10.91,0,0,1-3.83,3.77,4.65,4.65,0,0,0-1.74,1.09A2.94,2.94,0,0,0,85.07,15a24.22,24.22,0,0,0-.49,4.67A5.19,5.19,0,0,0,85,22a7.87,7.87,0,0,1,1,2,5.93,5.93,0,0,1-.19,1.7,1.44,1.44,0,0,0,.58,1.52,3.52,3.52,0,0,0,.88.21c1.58.35,2.12,2.21,2.36,3.75.54,0,.78-.65.89-1.15l1.65-7.34c.18-.8.48-1.72,1.27-2a4.07,4.07,0,0,1,1.67,0c2.18.18,4-1.51,6.16-2a7.86,7.86,0,0,1,2.08-.14c1.68.08,3.64.77,4,2.34.06.25.1.56.33.69s.48,0,.74,0c1.07-.11,1.7,1.09,2,2.08l1.12,3.57c.17.54.45,1.18,1,1.25a1.08,1.08,0,0,0,1.08-1,4.18,4.18,0,0,0-.21-1.54c-.53-2.35.28-4.75.77-7.1s.58-5.05-1.07-6.86c-.6-.66-1.38-1.14-1.94-1.83s-.81-1.44-1.35-2.08c-1.49-1.76-5.31-3.11-7.65-3.34C99.53,4.47,95.18,5.15,93,6.72Z"/><g class="cls-11"><path d="M112.58,26.81c-.59-.07-.87-.71-1-1.25L110.42,22c-.31-1-.94-2.18-2-2.08-.24,0-.52.12-.74,0s-.27-.43-.33-.69c-.36-1.57-2.31-2.26-4-2.34a8,8,0,0,0-2.08.14c-2.14.48-4,2.14-6.16,2a4.11,4.11,0,0,0-1.67,0c-.8.28-1.09,1.19-1.27,2l-1.65,7.34c-.11.51-.36,1.12-.89,1.15-.24-1.53-.77-3.39-2.36-3.75a3.75,3.75,0,0,1-.88-.21,1,1,0,0,1-.46-.51c0,.22-.09.44-.12.66a1.45,1.45,0,0,0,.58,1.52,3.52,3.52,0,0,0,.88.21c1.58.35,2.12,2.21,2.36,3.75.54,0,.78-.65.89-1.15l1.65-7.34c.18-.8.48-1.72,1.27-2a4.07,4.07,0,0,1,1.67,0c2.18.18,4-1.51,6.16-2a7.86,7.86,0,0,1,2.07-.14c1.68.08,3.64.77,4,2.34.06.25.1.56.33.69s.48,0,.74,0c1.07-.11,1.7,1.09,2,2.08l1.12,3.57c.17.54.45,1.18,1,1.25a1.08,1.08,0,0,0,1.08-1,3.24,3.24,0,0,0-.14-1.27A1,1,0,0,1,112.58,26.81Z"/><path d="M86,22.27a8,8,0,0,0-1-2,3.92,3.92,0,0,1-.35-1.43c0,.27,0,.53,0,.8A5.19,5.19,0,0,0,85,22c.26.54.7,1,.92,1.57A3.59,3.59,0,0,0,86,22.27Z"/><path d="M114.21,17.2c-.43,2.08-1.11,4.19-.9,6.28a40.86,40.86,0,0,1,.9-4.61,12.15,12.15,0,0,0,.28-3.53A14.57,14.57,0,0,1,114.21,17.2Z"/></g><path class="cls-5" d="M86.94,70.61c-.29,4.73-3.76,8.64-5.08,13.19a27.53,27.53,0,0,1-1,3.4,10.75,10.75,0,0,1-5,4.88,7.51,7.51,0,0,1-2.46.9,4.72,4.72,0,0,1-4.74-2.52,20,20,0,0,1-1-3.57c-.37-1.37-1.06-2.64-1.51-4a14.57,14.57,0,0,1-.24-7.76A23.83,23.83,0,0,1,68.5,68.8l.51-.87a19.82,19.82,0,0,1,1.65-2.38,26.34,26.34,0,0,1,5.08-4.35,1.19,1.19,0,0,1,.48-.24h0a1.15,1.15,0,0,1,.59.14A46.59,46.59,0,0,1,84.07,65c.82.55,2.11,1.16,2.54,2.08A8.46,8.46,0,0,1,86.94,70.61Z"/><path class="cls-8" d="M77.48,48.84a2.47,2.47,0,0,0-.53.85,40,40,0,0,0-3.36,13.73,1.37,1.37,0,0,1-.15.66,2.91,2.91,0,0,1-.35.38,1.32,1.32,0,0,0,.16,1.85l.07.05a2.56,2.56,0,0,1,2.17-1c4-.32,7.92,1.55,11.93,1.41-.28-1-.69-1.92-.92-2.91-1-4.4,1.53-9.19,0-13.43a3.46,3.46,0,0,0-1.66-2.05A4.41,4.41,0,0,0,83.74,48c-1-.18-3-1-4-.65-.36.12-.51.46-.81.66S77.87,48.45,77.48,48.84Z"/><path class="cls-7" d="M79.12,88.23a7,7,0,0,1-6,3.46,4.69,4.69,0,0,1-1.91-.35,5.29,5.29,0,0,1-2.7-4c-.32-1.63-.22-3.32-.45-5-.18-1.32-.57-2.59-.77-3.91-.49-3.25.48-6.45,1.17-9.69l.51-.87a19.82,19.82,0,0,1,1.65-2.38,26.34,26.34,0,0,1,5.08-4.35H73.85a.33.33,0,0,1,.52.23c.19,1.67,2.54,3.34,3.05,5,.32,1,.7,2,1,3A23.94,23.94,0,0,1,78.83,72l1,7.39C80.26,82.37,80.62,85.62,79.12,88.23Z"/><path class="cls-5" d="M76,56.95l2.3-7.21A12.52,12.52,0,0,0,79,46.43a4.24,4.24,0,0,0-1.05-3.13,13.63,13.63,0,0,0-2.3-1.51c-1.91-1.28-2.86-3.53-3.85-5.6s-2.3-4.24-4.47-5c-.5-.18-1.19-.19-1.42.29a1,1,0,0,0,0,.62A7.12,7.12,0,0,0,67.56,35c1.15,1.49,2.11,3.31,1.84,5.18-.33,2.21-2.31,3.92-2.55,6.14A28.34,28.34,0,0,0,67,49.2,8.21,8.21,0,0,0,67,51a12.31,12.31,0,0,0,.5,1.35,7.91,7.91,0,0,1,.33,2.19l.5,9.38c.27,5.07-2.48,10-1.72,15,.2,1.31.59,2.59.77,3.91.24,1.65.13,3.34.45,5a5.32,5.32,0,0,0,2.7,4,4.69,4.69,0,0,0,1.91.35,7,7,0,0,0,6-3.46c1.5-2.62,1.14-5.86.73-8.85l-1-7.39a23.94,23.94,0,0,0-.46-2.62c-.25-1-.63-2-1-3C75.7,63.61,74.94,60.18,76,56.95Z"/><rect class="cls-10" x="85.94" y="57.51" width="53.13" height="33.83" rx="1.9" ry="1.9"/><rect class="cls-12" x="85.94" y="57.51" width="53.13" height="33.83" rx="1.9" ry="1.9"/><circle class="cls-13" cx="112.38" cy="74.42" r="1.43"/><path class="cls-10" d="M49.69,102.14h2.89a6,6,0,0,1,6,6v8.84H43.73V108.1A6,6,0,0,1,49.69,102.14Z"/><path class="cls-7" d="M49.69,102.14h2.89a6,6,0,0,1,6,6v8.84H43.73V108.1A6,6,0,0,1,49.69,102.14Z"/><circle class="cls-10" cx="50.54" cy="104.22" r="1.18"/><circle class="cls-10" cx="50.54" cy="102.74" r="1.18"/><circle class="cls-10" cx="50.54" cy="101.26" r="1.18"/><circle class="cls-10" cx="50.54" cy="99.78" r="1.18"/><circle class="cls-10" cx="50.54" cy="98.3" r="1.18"/><circle class="cls-10" cx="50.54" cy="96.82" r="1.18"/><circle class="cls-10" cx="50.54" cy="95.34" r="1.18"/><circle class="cls-10" cx="52.32" cy="95.93" r="1.18"/><circle class="cls-10" cx="53.5" cy="95.34" r="1.18"/><circle class="cls-10" cx="54.69" cy="94.75" r="1.18"/><circle class="cls-10" cx="50.54" cy="93.86" r="1.18"/><circle class="cls-10" cx="50.54" cy="92.38" r="1.18"/><circle class="cls-10" cx="50.54" cy="90.9" r="1.18"/><circle class="cls-10" cx="50.54" cy="89.42" r="1.18"/><path class="cls-3" d="M55.45,85.6c-.29,0-.59.07-.88.09a6.8,6.8,0,0,0,.76-.78,5.06,5.06,0,0,0-.71-1.39,2.43,2.43,0,0,1-1,.3c-.29,0-.59.08-.88.1a16.3,16.3,0,0,0,1.13-1.19,5,5,0,1,0,1.67,3.73,4.93,4.93,0,0,0-.08-.86Z"/><path class="cls-3" d="M59.41,91.48a2.34,2.34,0,0,1-1,.33c-.29,0-.59.07-.88.09A8.67,8.67,0,0,0,58.4,91a3,3,0,1,0,1,.48Z"/><circle class="cls-10" cx="48.77" cy="95.93" r="1.18"/><circle class="cls-10" cx="47.58" cy="95.34" r="1.18"/><circle class="cls-10" cx="46.4" cy="94.75" r="1.18"/><path class="cls-3" d="M41.68,91.48a2.33,2.33,0,0,0,1,.33c.29,0,.59.07.88.09a8.44,8.44,0,0,1-.88-.91,3,3,0,1,1-1,.48Z"/><path class="cls-10" d="M49.69,103h2.89a6,6,0,0,1,6,6v7.83a1,1,0,0,1-1,1H44.74a1,1,0,0,1-1-1V109A6,6,0,0,1,49.69,103Z"/><g class="cls-11"><path d="M55.54,85.92a4.49,4.49,0,0,1-.38.36,3.87,3.87,0,0,0,.41,0C55.56,86.14,55.55,86,55.54,85.92Z"/><path d="M53.38,84.51c.3,0,.59-.05.89-.09a2.86,2.86,0,0,0,.77-.21,5.22,5.22,0,0,0-.41-.68,1.79,1.79,0,0,1-.48.2A6.86,6.86,0,0,1,53.38,84.51Z"/><path d="M46.1,87.05a5,5,0,0,1,7.74-4.23l.08-.08a5,5,0,1,0-6.68,7.51l.06,0A5,5,0,0,1,46.1,87.05Z"/></g><g class="cls-11"><path d="M57.53,92.5c.3,0,.59-.05.88-.09a2.31,2.31,0,0,0,1-.33,3,3,0,0,1,1.19,2.1,2.71,2.71,0,0,0,0-.31,3,3,0,0,0-1.19-2.38,2.34,2.34,0,0,1-1,.33l-.24,0A6,6,0,0,1,57.53,92.5Z"/><path d="M57.65,91.49l.3,0L58.4,91a3,3,0,0,0-3.72,2.86,2,2,0,0,0,0,.3A3,3,0,0,1,57.65,91.49Z"/></g><g class="cls-11"><path d="M43.56,92.5c-.3,0-.59-.05-.88-.09a2.3,2.3,0,0,1-1-.33,3,3,0,0,0-1.19,2.1,2.71,2.71,0,0,1,0-.31,3,3,0,0,1,1.19-2.38,2.33,2.33,0,0,0,1,.33l.24,0A5.64,5.64,0,0,0,43.56,92.5Z"/><path d="M43.44,91.49l-.3,0L42.68,91a3,3,0,0,1,3.72,2.86,2,2,0,0,1,0,.3A3,3,0,0,0,43.44,91.49Z"/></g></g></g></svg>