<svg xmlns="http://www.w3.org/2000/svg" viewBox="0 0 180 113.55"><defs><style>.cls-1{fill:#4c4c78;}.cls-2{opacity:0.1;}.cls-2,.cls-8{isolation:isolate;}.cls-3{fill:none;stroke:#3f3d56;stroke-miterlimit:10;}.cls-4{fill:#3b8bff;}.cls-5{fill:#f2f2f2;}.cls-6{fill:#46455b;}.cls-7{fill:#a8a8a8;}.cls-8{opacity:0.2;}.cls-9{fill:#efb7b9;}.cls-10{fill:#605d82;}.cls-11{fill:#535070;}.cls-12{fill:#3f3d56;}.cls-13{fill:#f86d70;}.cls-14{fill:#fff;}.cls-15{fill:#57b894;}</style></defs><title>step4</title><g id="Layer_2" data-name="Layer 2"><g id="Layer_1-2" data-name="Layer 1"><path class="cls-1" d="M140.87,113.26H56.56a10.43,10.43,0,0,1-10.43-10.43h0V64.21a4.13,4.13,0,0,1,1.29-3L92.1,18.86a9.62,9.62,0,0,1,13.23,0l42.6,40.38a10.8,10.8,0,0,1,3.37,7.83v35.76a10.43,10.43,0,0,1-10.43,10.43Z"/><path class="cls-2" d="M46.13,64.84H150.42V107a6.3,6.3,0,0,1-6.3,6.3H52.43a6.3,6.3,0,0,1-6.3-6.3h0V64.84h0Z"/><path class="cls-3" d="M46,62.32"/><rect class="cls-4" x="59.83" y="31.65" width="77.56" height="77.56" rx="5.74" ry="5.74"/><polygon class="cls-2" points="137.39 66.58 137.39 109.21 59.83 109.21 59.83 66.58 98.61 85.33 137.39 66.58"/><path class="cls-1" d="M98.61,87.74l-49.69-24A2,2,0,0,0,46,65.54v41.32a6.3,6.3,0,0,0,6.3,6.3h92.57a6.3,6.3,0,0,0,6.3-6.3h0V66.24A2.46,2.46,0,0,0,147.66,64Z"/><rect class="cls-5" x="66.51" y="38.77" width="21.69" height="3.07"/><rect class="cls-5" x="64.76" y="49.94" width="64.41" height="1.75"/><rect class="cls-5" x="64.76" y="55.86" width="64.41" height="1.75"/><rect class="cls-5" x="64.76" y="61.77" width="64.41" height="1.75"/><path class="cls-6" d="M0,86.17c0,12.92,8.1,23.37,18.12,23.37"/><path class="cls-4" d="M18.12,109.54c0-13.06,9-23.63,20.22-23.63"/><path class="cls-4" d="M6.56,87.34c0,12.27,5.17,22.2,11.55,22.2"/><path class="cls-6" d="M18.12,109.54c0-16.69,10.45-30.2,23.37-30.2"/><path class="cls-7" d="M14.31,109.71s2.57-.08,3.34-.63,4-1.21,4.14-.33,3.86,4.4,1,4.42-6.74-.45-7.51-.92S14.31,109.71,14.31,109.71Z"/><path class="cls-8" d="M22.81,112.87c-2.9,0-6.74-.45-7.51-.92-.59-.36-.82-1.65-.9-2.24h-.09s.16,2.07.94,2.54,4.61.95,7.51.92c.84,0,1.13-.3,1.11-.75C23.75,112.7,23.43,112.86,22.81,112.87Z"/><path class="cls-9" d="M151,15.5c-.13,1.17-1,2.12-1.36,3.25-.5,1.71.36,3.54,1.54,4.86a10.77,10.77,0,0,0,7.5,3.56A3.2,3.2,0,0,0,160,27a2.65,2.65,0,0,0,.94-.64A6,6,0,0,0,162.45,23a18,18,0,0,0,0-3.77,2.13,2.13,0,0,0-.14-.76,2,2,0,0,0-.49-.6,11.41,11.41,0,0,0-2.1-1.53,2.41,2.41,0,0,1-.88-.67,2.18,2.18,0,0,1-.27-.81l-.23-1.18a2.32,2.32,0,0,0-.34-1,2.36,2.36,0,0,0-1.88-.66l-2.52-.1a12.14,12.14,0,0,0-2.58-.1c-.71.14-.48.8-.35,1.4A10.14,10.14,0,0,1,151,15.5Z"/><path class="cls-2" d="M151,15.5c-.13,1.17-1,2.12-1.36,3.25-.5,1.71.36,3.54,1.54,4.86a10.77,10.77,0,0,0,7.5,3.56A3.2,3.2,0,0,0,160,27a2.65,2.65,0,0,0,.94-.64A6,6,0,0,0,162.45,23a18,18,0,0,0,0-3.77,2.13,2.13,0,0,0-.14-.76,2,2,0,0,0-.49-.6,11.41,11.41,0,0,0-2.1-1.53,2.41,2.41,0,0,1-.88-.67,2.18,2.18,0,0,1-.27-.81l-.23-1.18a2.32,2.32,0,0,0-.34-1,2.36,2.36,0,0,0-1.88-.66l-2.52-.1a12.14,12.14,0,0,0-2.58-.1c-.71.14-.48.8-.35,1.4A10.14,10.14,0,0,1,151,15.5Z"/><path class="cls-10" d="M167.06,68.3,166,80c-.28,3.08-.56,6.17-1.11,9.21-.19,1-.41,2.09-.67,3.12-.73,2.87-1.79,5.67-2.14,8.62,0,.08,0,.17,0,.26a7.49,7.49,0,0,1-.37,1.91c-.17.45-.43.86-.62,1.3a8.31,8.31,0,0,0-.46,2.83,12.2,12.2,0,0,0-4.2-1.44,3.21,3.21,0,0,1-2-.71,2.85,2.85,0,0,1-.39-2.28l.85-7.36a19.17,19.17,0,0,1,.54-3.12c.1-.34.21-.68.33-1s.33-.92.45-1.4a16.83,16.83,0,0,0,.38-2.33c.29-2.47.64-4.93.95-7.39l0-.13a75.62,75.62,0,0,0,.71-11.26c0-.56,0-1.11-.07-1.67-.05-.81-.12-1.24.55-1.75a12.62,12.62,0,0,1,2.56-1.32c.46-.2,5.48-2,5.6-1.59a9.79,9.79,0,0,1,.37,2.56A28.54,28.54,0,0,1,167.06,68.3Z"/><path class="cls-2" d="M164.88,89.26c-.19,1-.41,2.09-.67,3.12-.73,2.87-1.79,5.67-2.14,8.62,0,.08,0,.17,0,.26-2.24-3.2-4.13-6.64-6.31-9.87.16-.46.33-.92.45-1.4a16.83,16.83,0,0,0,.38-2.33c.29-2.47.64-4.93.95-7.39l0-.13a7.66,7.66,0,0,0,.55,1.52c1.47,3,5,4.49,6.66,7.35Z"/><path class="cls-10" d="M146.7,63a55.51,55.51,0,0,0,.84,7.13l.79,4.88a25,25,0,0,0,2.14,7.78A36,36,0,0,0,154,87.73c3,3.94,5.3,8.41,8.17,12.47.83,1.18,2,2.46,3.45,2.21a5.61,5.61,0,0,0,2.35-1.54,14.62,14.62,0,0,0,2.59-2.11c.68-.89.81-2.36-.11-3a4.87,4.87,0,0,0-1.06-.43A5.74,5.74,0,0,1,166.46,92a32.09,32.09,0,0,0-1.73-4.25c-1.71-2.86-5.19-4.36-6.66-7.35a13.26,13.26,0,0,1-1-5.46l-.16-4.75a3.47,3.47,0,0,1,.18-1.53c.56-1.26,2.26-1.38,3.63-1.54a12.42,12.42,0,0,0,4.45-1.4,4.64,4.64,0,0,0,2-1.76,5.69,5.69,0,0,0,.48-2.39l.48-8.6a5.39,5.39,0,0,0-.18-2.2c-.65-1.74-2.85-2.31-4.71-2.23-3.46.15-6.65,1.64-9.91,2.65a25.21,25.21,0,0,1-2.46.64,19.77,19.77,0,0,0-2.32.32c-1.24.42-1.21,3.13-1.39,4.26A35.86,35.86,0,0,0,146.7,63Z"/><path class="cls-11" d="M165.16,102.77a2.2,2.2,0,0,1,.48,1.18,40.44,40.44,0,0,1,.68,7.16,1.17,1.17,0,0,0,.13.65.82.82,0,0,0,.34.27c.88.42,1.91-.17,2.64-.81a6.81,6.81,0,0,0,2.59-4.6,10.69,10.69,0,0,1,0-1.4,5.83,5.83,0,0,1,.87-1.87,15.79,15.79,0,0,0,1.43-3.21c.13-.42.22-1-.11-1.25a1.2,1.2,0,0,0-.39-.2l-4-1.48c-.35-.13-1.2,2.08-1.34,2.32a1.82,1.82,0,0,1-1.33,1.06c-.68.14-1.5-.06-2.13.28C164,101.45,164.55,102.15,165.16,102.77Z"/><path class="cls-11" d="M159,104.13a1.22,1.22,0,0,0-.3-.38,1.37,1.37,0,0,0-.61-.21,2.39,2.39,0,0,0-2.18.35c-.49.53-.41,1.39-.82,2-.13.19-.31.34-.42.54a2,2,0,0,0-.18,1c0,.92,0,1.84,0,2.76a3.86,3.86,0,0,0,.66,2.18c.77,1,2.16,1.11,3.4,1.17l1,.05a2,2,0,0,0,.82-.08,1.35,1.35,0,0,0,.71-.78c.52-1.29-.3-2.69-.81-4C159.72,107.2,159.82,105.54,159,104.13Z"/><path class="cls-12" d="M150.74,8.89a.83.83,0,0,1,.06-.39c.15-.26.53-.19.82-.12a19,19,0,0,0,3.58.1c1.19.07,2.54.67,2.78,1.84a8.73,8.73,0,0,0,2.21-2.27,2.72,2.72,0,0,0,.58-1.66,3.24,3.24,0,0,0-1.45-2l-2-1.62a3,3,0,0,0-.89-.57A4.44,4.44,0,0,0,155,2.08c-1.45,0-3-.66-4.28,0a4.62,4.62,0,0,0-1.33,1.21l-1.77,2.1a1.12,1.12,0,0,0-.28.48,2.14,2.14,0,0,0,.13.77c.08.47-.12,1,0,1.42.26.75,1.17.85,1.72,1.28.21.16.53.7.78.69C150.42,10,150.73,9.23,150.74,8.89Z"/><circle class="cls-9" cx="153.75" cy="9.4" r="5.68"/><path class="cls-13" d="M155.08,21.83A2.75,2.75,0,0,0,152.4,20a.82.82,0,0,1-.49-.06.68.68,0,0,1-.2-.25,9.92,9.92,0,0,1-.83-2c-.09-.3-.21-.66-.52-.73a.7.7,0,0,0-.66.29,5.83,5.83,0,0,1-.47.59c-.71.64-2,.06-2.74.64-.12.1-.23.22-.36.31a1.66,1.66,0,0,1-.42.18,40,40,0,0,0-4.3,1.68,40.5,40.5,0,0,0,2.2,9c.56,1.35,1.2,2.68,1.65,4.07a31.6,31.6,0,0,1,1.05,9.64,20.09,20.09,0,0,1-.72,6.6,6.23,6.23,0,0,0-.41,1.45,1.5,1.5,0,0,0,.51,1.35,1.74,1.74,0,0,0,.78.28,10.17,10.17,0,0,0,3.73-.43c3.29-.76,6.64-1.2,10-1.63l5.61-.73a3.26,3.26,0,0,0,1.16-.3,2.22,2.22,0,0,0,.49-3.09,16.78,16.78,0,0,1-1-1.36,1.26,1.26,0,0,1,.16-1.54c.9-.7.63-2,.67-3.15q.18-4.78,0-9.57a19.05,19.05,0,0,1,0-2,17.57,17.57,0,0,1,.62-3.31l1.7-6.71a3.5,3.5,0,0,0-2.11-1.35c-.81-.2-1.65-.26-2.44-.51-1.63-.5-3.08-1.79-4.78-1.67a.87.87,0,0,0-.37.09c-.38.22-.32.77-.35,1.21a3.34,3.34,0,0,1-1.56,2.36A27.8,27.8,0,0,0,155.51,21,1.08,1.08,0,0,0,155.08,21.83Z"/><path class="cls-9" d="M132.57,28.2a6.71,6.71,0,0,1-1.2.61,3.93,3.93,0,0,0-1.14.56,1.79,1.79,0,0,0-.4.49,2.19,2.19,0,0,0,2,3.26,4.39,4.39,0,0,0,1.49-.44l4-1.74a3.15,3.15,0,0,0,1.73-1.3.3.3,0,0,0,0-.21.34.34,0,0,0-.16-.17,9,9,0,0,1-2.33-2.2c-.16-.22-.37-.75-.6-.88C135.17,25.68,133.25,27.76,132.57,28.2Z"/><path class="cls-9" d="M175.41,26.77l1.48,1.69c.32.36.63.73.92,1.11a13,13,0,0,1,1.69,3.19,5.57,5.57,0,0,1,.48,2.64,6.45,6.45,0,0,1-.37,1.34,16.68,16.68,0,0,1-1,2.42,13.77,13.77,0,0,1-1.13,1.69,39.53,39.53,0,0,1-3.75,4.28,4.88,4.88,0,0,0-.94,2,8.29,8.29,0,0,1-2.3,3.14,6.41,6.41,0,0,1-1,.85,3.22,3.22,0,0,1-1.8.51,2,2,0,0,1-.81-.17,2.1,2.1,0,0,1-1-1.75,3.71,3.71,0,0,1,.31-1.87c.85-1.88,3-2.69,4.56-4.06A14.82,14.82,0,0,0,173,41a9.72,9.72,0,0,0,1.15-2c.34-.92.21-2,.51-2.93.13-.39.35-.75.49-1.14a1.33,1.33,0,0,0-.07-1.19,1.73,1.73,0,0,0-.67-.49c-1-.5-2.08-1.14-2.27-2.23a2.39,2.39,0,0,1,.44-1.7,7.09,7.09,0,0,1,1.24-1.3C174.25,27.58,175,27.15,175.41,26.77Z"/><path class="cls-9" d="M131.62,30.55a2.75,2.75,0,0,0-1.11-1.33,2.05,2.05,0,0,0-1.62,0,6.09,6.09,0,0,0-1.42.86l-1.27.94a3.13,3.13,0,0,0-.76.7,3,3,0,0,0-.39,1.08,7.72,7.72,0,0,0-.2,2.67,7.6,7.6,0,0,0,2,3.78,3.36,3.36,0,0,0,2.24,1.4,1,1,0,0,0,1-.5,1.24,1.24,0,0,0,.09-.44A9.87,9.87,0,0,0,129,35.08a3,3,0,0,1-.37-1.24.34.34,0,0,1,.05-.21.35.35,0,0,1,.22-.11c.91-.18,2.49.53,3.13-.49C132.48,32.38,131.91,31.15,131.62,30.55Z"/><path class="cls-12" d="M150.44,7.1a.83.83,0,0,1,.06-.39c.15-.26.53-.19.82-.12a19,19,0,0,0,3.58.1c1.19.07,2.54.67,2.78,1.84a8.73,8.73,0,0,0,2.21-2.27,2.72,2.72,0,0,0,.58-1.66,3.24,3.24,0,0,0-1.45-2L157,.94a3,3,0,0,0-.89-.57,4.44,4.44,0,0,0-1.44-.08c-1.45,0-3-.66-4.28,0a4.62,4.62,0,0,0-1.33,1.21l-1.77,2.1a1.12,1.12,0,0,0-.28.48,2.14,2.14,0,0,0,.13.77c.08.47-.12,1,0,1.42.26.75,1.17.85,1.72,1.28.21.16.53.7.78.69C150.12,8.24,150.43,7.45,150.44,7.1Z"/><path class="cls-13" d="M138.37,22.67a2.31,2.31,0,0,0-.59.55c-.21.31-.25.71-.43,1-.38.71-1.28,1-1.84,1.55a.58.58,0,0,0-.18.3.67.67,0,0,0,.15.44l2.69,4.24c.9.08,1.76-.48,2.65-.41a2.67,2.67,0,0,0,1,0,2.87,2.87,0,0,0,.64-.39c.54-.34,1.25-.38,1.7-.82a2.32,2.32,0,0,0,.48-1.71,6.86,6.86,0,0,0-.16-1.57c-.4-1.63-1.64-2.87-2.42-4.31-.38-.7-.59-1.11-1.39-.63S139.13,22.11,138.37,22.67Z"/><path class="cls-13" d="M171.09,20.53a6.3,6.3,0,0,1,1.36,1.19c.41.53.64,1.18,1,1.72a19.18,19.18,0,0,0,1.34,1.41,10.92,10.92,0,0,1,1.54,2.51,37.48,37.48,0,0,1-3.48,3.94,1.12,1.12,0,0,1-.53.35.85.85,0,0,1-.75-.3c-.19-.2-.33-.45-.52-.67a2.66,2.66,0,0,0-1.65-.8,11.31,11.31,0,0,0-1.87,0,.74.74,0,0,1-.4-.07.67.67,0,0,1-.22-.25c-.73-1.24-.49-2.8-.24-4.22l.59-3.25a7.3,7.3,0,0,1,.49-1.81c.22-.48.72-1.29,1.34-1.15S170.57,20.15,171.09,20.53Z"/><ellipse class="cls-14" cx="63" cy="32.87" rx="8.98" ry="9"/><path class="cls-15" d="M63,22.34A10.74,10.74,0,1,0,73.74,33.07,10.74,10.74,0,0,0,63,22.34ZM60.8,38.8l-5.5-5.5,1.54-1.54,4,4,8.37-8.37,1.54,1.54L60.8,38.8Z"/></g></g></svg>